<svg width="506" height="44" viewBox="0 0 506 44" fill="none" xmlns="http://www.w3.org/2000/svg">
<path d="M3.358 12.709V7.77698H5.95C7.552 7.77698 8.182 8.20898 8.794 9.21698L10.936 12.709H12.412L10.144 9.01898C9.73 8.31698 9.28 7.79498 8.488 7.57898V7.48898C10.72 7.43498 12.214 6.17498 12.214 4.14098C12.214 1.92698 10.504 0.648984 7.984 0.648984H2.08V12.709H3.358ZM3.358 1.81898H7.966C9.874 1.81898 10.882 2.57498 10.882 4.28498C10.882 5.99498 9.874 6.75098 7.966 6.75098H3.358V1.81898ZM15.1705 2.68298V0.648984H13.8925V2.68298H15.1705ZM15.1705 12.709V3.81698H13.8925V12.709H15.1705ZM21.2262 12.889C23.5302 12.889 25.1862 12.007 25.1862 10.333C25.1862 8.89298 24.1602 8.24498 22.2522 7.97498L20.0742 7.66898C18.5982 7.45298 18.1302 7.12898 18.1302 6.21098C18.1302 5.14898 18.9042 4.69898 20.7762 4.69898C23.0442 4.69898 23.7462 5.41898 23.7462 6.75098V6.84098H25.0242V6.80498C25.0242 4.71698 23.3682 3.63698 20.8122 3.63698C18.3642 3.63698 16.8702 4.62698 16.8702 6.19298C16.8702 7.66898 17.8962 8.29898 19.5162 8.51498L21.8922 8.85698C23.3682 9.09098 23.9262 9.39698 23.9262 10.333C23.9262 11.359 23.2422 11.827 21.2442 11.827C19.0662 11.827 18.1842 11.305 18.1842 9.81098V9.70298H16.9062V9.73898C16.9062 11.791 18.4902 12.889 21.2262 12.889ZM30.5912 12.889C32.8052 12.889 34.0832 11.449 34.3892 9.93698H34.4792V12.709H35.6312V3.81698H34.3532V8.13698C34.3532 10.423 33.2192 11.737 31.0412 11.737C28.9892 11.737 28.0892 10.675 28.0892 8.82098V3.81698H26.8112V9.01898C26.8112 11.125 28.0532 12.889 30.5912 12.889ZM41.6872 12.889C43.9912 12.889 45.6472 12.007 45.6472 10.333C45.6472 8.89298 44.6212 8.24498 42.7132 7.97498L40.5352 7.66898C39.0592 7.45298 38.5912 7.12898 38.5912 6.21098C38.5912 5.14898 39.3652 4.69898 41.2372 4.69898C43.5052 4.69898 44.2072 5.41898 44.2072 6.75098V6.84098H45.4852V6.80498C45.4852 4.71698 43.8292 3.63698 41.2732 3.63698C38.8252 3.63698 37.3312 4.62698 37.3312 6.19298C37.3312 7.66898 38.3572 8.29898 39.9772 8.51498L42.3532 8.85698C43.8292 9.09098 44.3872 9.39698 44.3872 10.333C44.3872 11.359 43.7032 11.827 41.7052 11.827C39.5272 11.827 38.6452 11.305 38.6452 9.81098V9.70298H37.3672V9.73898C37.3672 11.791 38.9512 12.889 41.6872 12.889ZM51.9088 12.709V7.21898H59.6668V12.709H60.9448V0.648984H59.6668V6.04898H51.9088V0.648984H50.6308V12.709H51.9088ZM65.5773 12.889C67.6473 12.889 69.2133 11.953 69.7353 10.315H69.8253V12.709H70.9773V7.14698C70.9773 5.18498 69.8253 3.63698 67.1253 3.63698C64.3893 3.63698 62.8413 5.16698 62.8413 7.03898V7.11098H64.1193V7.03898C64.1193 5.47298 65.1273 4.78898 67.0353 4.78898C68.9793 4.78898 69.7353 5.47298 69.7353 7.20098V7.88498L65.5053 8.35298C63.8493 8.53298 62.6433 9.16298 62.6433 10.621C62.6433 12.061 63.8313 12.889 65.5773 12.889ZM63.9213 10.531C63.9213 9.61298 64.5693 9.28898 65.9013 9.16298L69.7353 8.73098V8.80298C69.7353 10.945 68.0253 11.899 65.8653 11.899C64.5153 11.899 63.9213 11.431 63.9213 10.531ZM74.23 12.709V10.081H74.32C74.734 11.863 76.156 12.889 78.136 12.889C81.034 12.889 82.564 10.963 82.564 8.26298C82.564 5.56298 81.034 3.63698 78.244 3.63698C76.102 3.63698 74.824 4.77098 74.446 6.30098H74.356V0.648984H73.078V12.709H74.23ZM74.356 8.40698V8.24498C74.356 6.04898 75.616 4.82498 77.866 4.82498C79.918 4.82498 81.268 5.68898 81.268 8.26298C81.268 10.837 79.954 11.719 77.83 11.719C75.688 11.719 74.356 10.513 74.356 8.40698ZM85.4127 2.68298V0.648984H84.1347V2.68298H85.4127ZM85.4127 12.709V3.81698H84.1347V12.709H85.4127ZM93.0164 12.709V11.539H91.3964C90.1004 11.539 89.4884 11.197 89.4884 9.95498V4.91498H93.0164V3.81698H89.4884V1.69298H88.1924V3.81698H86.6084V4.91498H88.1924V9.88298C88.1924 11.971 89.3264 12.709 91.0904 12.709H93.0164ZM96.8839 12.889C98.9539 12.889 100.52 11.953 101.042 10.315H101.132V12.709H102.284V7.14698C102.284 5.18498 101.132 3.63698 98.4319 3.63698C95.6959 3.63698 94.1479 5.16698 94.1479 7.03898V7.11098H95.4259V7.03898C95.4259 5.47298 96.4339 4.78898 98.3419 4.78898C100.286 4.78898 101.042 5.47298 101.042 7.20098V7.88498L96.8119 8.35298C95.1559 8.53298 93.9499 9.16298 93.9499 10.621C93.9499 12.061 95.1379 12.889 96.8839 12.889ZM95.2279 10.531C95.2279 9.61298 95.8759 9.28898 97.2079 9.16298L101.042 8.73098V8.80298C101.042 10.945 99.3319 11.899 97.1719 11.899C95.8219 11.899 95.2279 11.431 95.2279 10.531ZM105.663 12.709V8.40698C105.663 6.12098 106.797 4.80698 108.957 4.80698C110.991 4.80698 111.873 5.86898 111.873 7.70498V12.709H113.151V7.52498C113.151 5.41898 111.909 3.63698 109.407 3.63698C107.193 3.63698 105.933 5.09498 105.627 6.60698H105.537V3.81698H104.385V12.709H105.663ZM120.684 12.709V11.539H119.064C117.768 11.539 117.156 11.197 117.156 9.95498V4.91498H120.684V3.81698H117.156V1.69298H115.86V3.81698H114.276V4.91498H115.86V9.88298C115.86 11.971 116.994 12.709 118.758 12.709H120.684ZM134.319 12.709V11.539H126.669V0.648984H125.391V12.709H134.319ZM139.992 12.889C142.476 12.889 144.312 11.611 144.312 9.75698V9.63098H143.034V9.75698C143.034 11.053 142.062 11.827 139.974 11.827C137.616 11.827 136.59 10.621 136.518 8.62298H144.348C144.402 8.38898 144.438 8.11898 144.438 7.79498C144.438 5.14898 142.584 3.63698 139.974 3.63698C137.112 3.63698 135.312 5.56298 135.312 8.26298C135.312 11.089 137.13 12.889 139.992 12.889ZM139.956 4.69898C142.044 4.69898 143.232 5.68898 143.232 7.56098C143.232 7.65098 143.232 7.74098 143.232 7.83098H136.518C136.608 5.88698 137.652 4.69898 139.956 4.69898ZM150.489 12.889C153.405 12.889 155.331 10.963 155.331 8.26298C155.331 5.56298 153.405 3.63698 150.489 3.63698C147.591 3.63698 145.665 5.56298 145.665 8.26298C145.665 10.963 147.591 12.889 150.489 12.889ZM150.489 11.737C148.041 11.737 146.925 10.423 146.925 8.26298C146.925 6.12098 148.041 4.78898 150.489 4.78898C152.937 4.78898 154.071 6.12098 154.071 8.26298C154.071 10.423 152.937 11.737 150.489 11.737ZM169.498 12.709V11.539H161.614V7.21898H169.228V6.06698H161.614V1.81898H169.498V0.648984H160.336V12.709H169.498ZM175.103 11.989C177.155 11.989 178.469 10.981 178.829 9.61298H178.919V11.935C178.919 14.149 178.019 14.851 175.715 14.851C173.735 14.851 172.691 14.239 172.691 12.673H171.413C171.413 14.743 173.249 15.949 175.661 15.949C178.343 15.949 180.197 14.797 180.197 11.863V3.81698H179.045V6.10298H178.955C178.595 4.51898 177.119 3.63698 175.247 3.63698C172.511 3.63698 170.837 5.38298 170.837 7.81298C170.837 10.243 172.457 11.989 175.103 11.989ZM172.115 7.81298C172.115 5.54498 173.537 4.77098 175.535 4.77098C177.587 4.77098 178.919 5.81498 178.919 7.56098V7.86698C178.919 9.75698 177.641 10.855 175.445 10.855C173.519 10.855 172.115 10.081 172.115 7.81298ZM186.591 12.889C189.075 12.889 190.911 11.611 190.911 9.75698V9.63098H189.633V9.75698C189.633 11.053 188.661 11.827 186.573 11.827C184.215 11.827 183.189 10.621 183.117 8.62298H190.947C191.001 8.38898 191.037 8.11898 191.037 7.79498C191.037 5.14898 189.183 3.63698 186.573 3.63698C183.711 3.63698 181.911 5.56298 181.911 8.26298C181.911 11.089 183.729 12.889 186.591 12.889ZM186.555 4.69898C188.643 4.69898 189.831 5.68898 189.831 7.56098C189.831 7.65098 189.831 7.74098 189.831 7.83098H183.117C183.207 5.88698 184.251 4.69898 186.555 4.69898ZM196.638 12.889C198.942 12.889 200.598 12.007 200.598 10.333C200.598 8.89298 199.572 8.24498 197.664 7.97498L195.486 7.66898C194.01 7.45298 193.542 7.12898 193.542 6.21098C193.542 5.14898 194.316 4.69898 196.188 4.69898C198.456 4.69898 199.158 5.41898 199.158 6.75098V6.84098H200.436V6.80498C200.436 4.71698 198.78 3.63698 196.224 3.63698C193.776 3.63698 192.282 4.62698 192.282 6.19298C192.282 7.66898 193.308 8.29898 194.928 8.51498L197.304 8.85698C198.78 9.09098 199.338 9.39698 199.338 10.333C199.338 11.359 198.654 11.827 196.656 11.827C194.478 11.827 193.596 11.305 193.596 9.81098V9.70298H192.318V9.73898C192.318 11.791 193.902 12.889 196.638 12.889ZM207.731 12.709V11.539H206.111C204.815 11.539 204.203 11.197 204.203 9.95498V4.91498H207.731V3.81698H204.203V1.69298H202.907V3.81698H201.323V4.91498H202.907V9.88298C202.907 11.971 204.041 12.709 205.805 12.709H207.731ZM211.599 12.889C213.669 12.889 215.235 11.953 215.757 10.315H215.847V12.709H216.999V7.14698C216.999 5.18498 215.847 3.63698 213.147 3.63698C210.411 3.63698 208.863 5.16698 208.863 7.03898V7.11098H210.141V7.03898C210.141 5.47298 211.149 4.78898 213.057 4.78898C215.001 4.78898 215.757 5.47298 215.757 7.20098V7.88498L211.527 8.35298C209.871 8.53298 208.665 9.16298 208.665 10.621C208.665 12.061 209.853 12.889 211.599 12.889ZM209.943 10.531C209.943 9.61298 210.591 9.28898 211.923 9.16298L215.757 8.73098V8.80298C215.757 10.945 214.047 11.899 211.887 11.899C210.537 11.899 209.943 11.431 209.943 10.531ZM223.006 12.889C225.31 12.889 226.966 12.007 226.966 10.333C226.966 8.89298 225.94 8.24498 224.032 7.97498L221.854 7.66898C220.378 7.45298 219.91 7.12898 219.91 6.21098C219.91 5.14898 220.684 4.69898 222.556 4.69898C224.824 4.69898 225.526 5.41898 225.526 6.75098V6.84098H226.804V6.80498C226.804 4.71698 225.148 3.63698 222.592 3.63698C220.144 3.63698 218.65 4.62698 218.65 6.19298C218.65 7.66898 219.676 8.29898 221.296 8.51498L223.672 8.85698C225.148 9.09098 225.706 9.39698 225.706 10.333C225.706 11.359 225.022 11.827 223.024 11.827C220.846 11.827 219.964 11.305 219.964 9.81098V9.70298H218.686V9.73898C218.686 11.791 220.27 12.889 223.006 12.889ZM233.227 12.709V4.21298L233.191 2.59298H233.281L234.055 4.21298L238.069 11.989H239.617L243.631 4.21298L244.387 2.59298H244.495L244.459 4.21298V12.709H245.737V0.648984H243.973L239.941 8.51498L238.897 10.747H238.807L237.745 8.51498L233.695 0.648984H231.949V12.709H233.227ZM250.341 12.889C252.411 12.889 253.977 11.953 254.499 10.315H254.589V12.709H255.741V7.14698C255.741 5.18498 254.589 3.63698 251.889 3.63698C249.153 3.63698 247.605 5.16698 247.605 7.03898V7.11098H248.883V7.03898C248.883 5.47298 249.891 4.78898 251.799 4.78898C253.743 4.78898 254.499 5.47298 254.499 7.20098V7.88498L250.269 8.35298C248.613 8.53298 247.407 9.16298 247.407 10.621C247.407 12.061 248.595 12.889 250.341 12.889ZM248.685 10.531C248.685 9.61298 249.333 9.28898 250.665 9.16298L254.499 8.73098V8.80298C254.499 10.945 252.789 11.899 250.629 11.899C249.279 11.899 248.685 11.431 248.685 10.531ZM261.568 12.889C263.782 12.889 265.06 11.449 265.366 9.93698H265.456V12.709H266.608V3.81698H265.33V8.13698C265.33 10.423 264.196 11.737 262.018 11.737C259.966 11.737 259.066 10.675 259.066 8.82098V3.81698H257.788V9.01898C257.788 11.125 259.03 12.889 261.568 12.889ZM270.036 12.709V7.88498C270.036 5.88698 270.828 4.75298 272.628 4.75298C274.176 4.75298 274.806 5.49098 274.806 7.00298V7.68698H276.084V6.80498C276.084 5.14898 275.184 3.63698 273.132 3.63698C271.278 3.63698 270.27 4.82498 270 6.24698H269.91V3.81698H268.758V12.709H270.036ZM278.842 2.68298V0.648984H277.564V2.68298H278.842ZM278.842 12.709V3.81698H277.564V12.709H278.842ZM284.898 12.889C287.202 12.889 288.858 12.007 288.858 10.333C288.858 8.89298 287.832 8.24498 285.924 7.97498L283.746 7.66898C282.27 7.45298 281.802 7.12898 281.802 6.21098C281.802 5.14898 282.576 4.69898 284.448 4.69898C286.716 4.69898 287.418 5.41898 287.418 6.75098V6.84098H288.696V6.80498C288.696 4.71698 287.04 3.63698 284.484 3.63698C282.036 3.63698 280.542 4.62698 280.542 6.19298C280.542 7.66898 281.568 8.29898 283.188 8.51498L285.564 8.85698C287.04 9.09098 287.598 9.39698 287.598 10.333C287.598 11.359 286.914 11.827 284.916 11.827C282.738 11.827 281.856 11.305 281.856 9.81098V9.70298H280.578V9.73898C280.578 11.791 282.162 12.889 284.898 12.889ZM299.116 12.709C302.734 12.709 305.038 10.369 305.038 6.67898C305.038 2.98898 302.734 0.648984 299.116 0.648984H293.878V12.709H299.116ZM299.116 1.81898C302.176 1.81898 303.688 3.40298 303.688 6.67898C303.688 9.95498 302.176 11.539 299.116 11.539H295.174V1.81898H299.116ZM308.022 2.68298V0.648984H306.744V2.68298H308.022ZM308.022 12.709V3.81698H306.744V12.709H308.022ZM312.638 12.889C314.708 12.889 316.274 11.953 316.796 10.315H316.886V12.709H318.038V7.14698C318.038 5.18498 316.886 3.63698 314.186 3.63698C311.45 3.63698 309.902 5.16698 309.902 7.03898V7.11098H311.18V7.03898C311.18 5.47298 312.188 4.78898 314.096 4.78898C316.04 4.78898 316.796 5.47298 316.796 7.20098V7.88498L312.566 8.35298C310.91 8.53298 309.704 9.16298 309.704 10.621C309.704 12.061 310.892 12.889 312.638 12.889ZM310.982 10.531C310.982 9.61298 311.63 9.28898 312.962 9.16298L316.796 8.73098V8.80298C316.796 10.945 315.086 11.899 312.926 11.899C311.576 11.899 310.982 11.431 310.982 10.531ZM321.417 12.709V8.40698C321.417 6.04898 322.263 4.80698 324.423 4.80698C326.295 4.80698 327.123 5.72498 327.123 7.70498V12.709H328.401V8.40698C328.401 6.04898 329.265 4.80698 331.407 4.80698C333.279 4.80698 334.125 5.72498 334.125 7.70498V12.709H335.403V7.52498C335.403 5.27498 334.197 3.63698 331.875 3.63698C329.643 3.63698 328.581 5.05898 328.329 6.58898H328.239C327.951 4.86098 326.835 3.63698 324.855 3.63698C322.641 3.63698 321.615 5.00498 321.363 6.49898H321.291V3.81698H320.139V12.709H321.417ZM349.955 12.709V11.539H342.071V7.21898H349.685V6.06698H342.071V1.81898H349.955V0.648984H340.793V12.709H349.955ZM355.56 11.989C357.612 11.989 358.926 10.981 359.286 9.61298H359.376V11.935C359.376 14.149 358.476 14.851 356.172 14.851C354.192 14.851 353.148 14.239 353.148 12.673H351.87C351.87 14.743 353.706 15.949 356.118 15.949C358.8 15.949 360.654 14.797 360.654 11.863V3.81698H359.502V6.10298H359.412C359.052 4.51898 357.576 3.63698 355.704 3.63698C352.968 3.63698 351.294 5.38298 351.294 7.81298C351.294 10.243 352.914 11.989 355.56 11.989ZM352.572 7.81298C352.572 5.54498 353.994 4.77098 355.992 4.77098C358.044 4.77098 359.376 5.81498 359.376 7.56098V7.86698C359.376 9.75698 358.098 10.855 355.902 10.855C353.976 10.855 352.572 10.081 352.572 7.81298ZM367.048 12.889C369.532 12.889 371.368 11.611 371.368 9.75698V9.63098H370.09V9.75698C370.09 11.053 369.118 11.827 367.03 11.827C364.672 11.827 363.646 10.621 363.574 8.62298H371.404C371.458 8.38898 371.494 8.11898 371.494 7.79498C371.494 5.14898 369.64 3.63698 367.03 3.63698C364.168 3.63698 362.368 5.56298 362.368 8.26298C362.368 11.089 364.186 12.889 367.048 12.889ZM367.012 4.69898C369.1 4.69898 370.288 5.68898 370.288 7.56098C370.288 7.65098 370.288 7.74098 370.288 7.83098H363.574C363.664 5.88698 364.708 4.69898 367.012 4.69898ZM378.643 12.709V11.539H377.023C375.727 11.539 375.115 11.197 375.115 9.95498V4.91498H378.643V3.81698H375.115V1.69298H373.819V3.81698H372.235V4.91498H373.819V9.88298C373.819 11.971 374.953 12.709 376.717 12.709H378.643ZM384.628 12.709V4.21298L384.592 2.59298H384.682L385.456 4.21298L389.47 11.989H391.018L395.032 4.21298L395.788 2.59298H395.896L395.86 4.21298V12.709H397.138V0.648984H395.374L391.342 8.51498L390.298 10.747H390.208L389.146 8.51498L385.096 0.648984H383.35V12.709H384.628ZM403.631 12.889C406.547 12.889 408.473 10.963 408.473 8.26298C408.473 5.56298 406.547 3.63698 403.631 3.63698C400.733 3.63698 398.807 5.56298 398.807 8.26298C398.807 10.963 400.733 12.889 403.631 12.889ZM403.631 11.737C401.183 11.737 400.067 10.423 400.067 8.26298C400.067 6.12098 401.183 4.78898 403.631 4.78898C406.079 4.78898 407.213 6.12098 407.213 8.26298C407.213 10.423 406.079 11.737 403.631 11.737ZM411.452 12.709V7.88498C411.452 5.88698 412.244 4.75298 414.044 4.75298C415.592 4.75298 416.222 5.49098 416.222 7.00298V7.68698H417.5V6.80498C417.5 5.14898 416.6 3.63698 414.548 3.63698C412.694 3.63698 411.686 4.82498 411.416 6.24698H411.326V3.81698H410.174V12.709H411.452ZM420.132 12.709V10.081H420.222C420.636 11.863 422.058 12.889 424.038 12.889C426.936 12.889 428.466 10.963 428.466 8.26298C428.466 5.56298 426.936 3.63698 424.146 3.63698C422.004 3.63698 420.726 4.77098 420.348 6.30098H420.258V0.648984H418.98V12.709H420.132ZM420.258 8.40698V8.24498C420.258 6.04898 421.518 4.82498 423.768 4.82498C425.82 4.82498 427.17 5.68898 427.17 8.26298C427.17 10.837 425.856 11.719 423.732 11.719C421.59 11.719 420.258 10.513 420.258 8.40698ZM431.315 2.68298V0.648984H430.037V2.68298H431.315ZM431.315 12.709V3.81698H430.037V12.709H431.315ZM442.133 12.709V1.81898H447.083V0.648984H435.887V1.81898H440.855V12.709H442.133ZM452.583 12.889C455.067 12.889 456.903 11.611 456.903 9.75698V9.63098H455.625V9.75698C455.625 11.053 454.653 11.827 452.565 11.827C450.207 11.827 449.181 10.621 449.109 8.62298H456.939C456.993 8.38898 457.029 8.11898 457.029 7.79498C457.029 5.14898 455.175 3.63698 452.565 3.63698C449.703 3.63698 447.903 5.56298 447.903 8.26298C447.903 11.089 449.721 12.889 452.583 12.889ZM452.547 4.69898C454.635 4.69898 455.823 5.68898 455.823 7.56098C455.823 7.65098 455.823 7.74098 455.823 7.83098H449.109C449.199 5.88698 450.243 4.69898 452.547 4.69898ZM460.003 12.709V8.40698C460.003 6.04898 460.849 4.80698 463.009 4.80698C464.881 4.80698 465.709 5.72498 465.709 7.70498V12.709H466.987V8.40698C466.987 6.04898 467.851 4.80698 469.993 4.80698C471.865 4.80698 472.711 5.72498 472.711 7.70498V12.709H473.989V7.52498C473.989 5.27498 472.783 3.63698 470.461 3.63698C468.229 3.63698 467.167 5.05898 466.915 6.58898H466.825C466.537 4.86098 465.421 3.63698 463.441 3.63698C461.227 3.63698 460.201 5.00498 459.949 6.49898H459.877V3.81698H458.725V12.709H460.003ZM477.352 15.769V10.099H477.37C477.784 11.809 479.206 12.889 481.168 12.889C483.994 12.889 485.56 10.963 485.56 8.26298C485.56 5.56298 483.976 3.63698 481.204 3.63698C479.098 3.63698 477.766 4.71698 477.37 6.31898H477.226V3.81698H476.074V15.769H477.352ZM477.352 8.42498V8.26298C477.352 6.06698 478.648 4.82498 480.862 4.82498C482.878 4.82498 484.264 5.68898 484.264 8.26298C484.264 10.837 482.896 11.719 480.826 11.719C478.738 11.719 477.352 10.531 477.352 8.42498ZM490.857 12.889C493.071 12.889 494.349 11.449 494.655 9.93698H494.745V12.709H495.897V3.81698H494.619V8.13698C494.619 10.423 493.485 11.737 491.307 11.737C489.255 11.737 488.355 10.675 488.355 8.82098V3.81698H487.077V9.01898C487.077 11.125 488.319 12.889 490.857 12.889ZM501.953 12.889C504.257 12.889 505.913 12.007 505.913 10.333C505.913 8.89298 504.887 8.24498 502.979 7.97498L500.801 7.66898C499.325 7.45298 498.857 7.12898 498.857 6.21098C498.857 5.14898 499.631 4.69898 501.503 4.69898C503.771 4.69898 504.473 5.41898 504.473 6.75098V6.84098H505.751V6.80498C505.751 4.71698 504.095 3.63698 501.539 3.63698C499.091 3.63698 497.597 4.62698 497.597 6.19298C497.597 7.66898 498.623 8.29898 500.243 8.51498L502.619 8.85698C504.095 9.09098 504.653 9.39698 504.653 10.333C504.653 11.359 503.969 11.827 501.971 11.827C499.793 11.827 498.911 11.305 498.911 9.81098V9.70298H497.633V9.73898C497.633 11.791 499.217 12.889 501.953 12.889ZM8.038 40.709L13.348 28.649H11.854L7.21 39.413H7.12L2.458 28.649H0.946L6.256 40.709H8.038ZM18.0931 40.889C20.3071 40.889 21.5851 39.449 21.8911 37.937H21.9811V40.709H23.1331V31.817H21.8551V36.137C21.8551 38.423 20.7211 39.737 18.5431 39.737C16.4911 39.737 15.5911 38.675 15.5911 36.821V31.817H14.3131V37.019C14.3131 39.125 15.5551 40.889 18.0931 40.889ZM26.5611 40.709V28.649H25.2831V40.709H26.5611ZM29.9889 43.769V38.099H30.0069C30.4209 39.809 31.8429 40.889 33.8049 40.889C36.6309 40.889 38.1969 38.963 38.1969 36.263C38.1969 33.563 36.6129 31.637 33.8409 31.637C31.7349 31.637 30.4029 32.717 30.0069 34.319H29.8629V31.817H28.7109V43.769H29.9889ZM29.9889 36.425V36.263C29.9889 34.067 31.2849 32.825 33.4989 32.825C35.5149 32.825 36.9009 33.689 36.9009 36.263C36.9009 38.837 35.5329 39.719 33.4629 39.719C31.3749 39.719 29.9889 38.531 29.9889 36.425ZM43.4935 40.889C45.7075 40.889 46.9855 39.449 47.2915 37.937H47.3815V40.709H48.5335V31.817H47.2555V36.137C47.2555 38.423 46.1215 39.737 43.9435 39.737C41.8915 39.737 40.9915 38.675 40.9915 36.821V31.817H39.7135V37.019C39.7135 39.125 40.9555 40.889 43.4935 40.889ZM56.1375 40.709V39.539H54.5175C53.2215 39.539 52.6095 39.197 52.6095 37.955V32.915H56.1375V31.817H52.6095V29.693H51.3135V31.817H49.7295V32.915H51.3135V37.883C51.3135 39.971 52.4475 40.709 54.2115 40.709H56.1375ZM60.005 40.889C62.075 40.889 63.641 39.953 64.163 38.315H64.253V40.709H65.405V35.147C65.405 33.185 64.253 31.637 61.553 31.637C58.817 31.637 57.269 33.167 57.269 35.039V35.111H58.547V35.039C58.547 33.473 59.555 32.789 61.463 32.789C63.407 32.789 64.163 33.473 64.163 35.201V35.885L59.933 36.353C58.277 36.533 57.071 37.163 57.071 38.621C57.071 40.061 58.259 40.889 60.005 40.889ZM58.349 38.531C58.349 37.613 58.997 37.289 60.329 37.163L64.163 36.731V36.803C64.163 38.945 62.453 39.899 60.293 39.899C58.943 39.899 58.349 39.431 58.349 38.531ZM72.9598 40.709V39.539H71.3398C70.0438 39.539 69.4318 39.197 69.4318 37.955V32.915H72.9598V31.817H69.4318V29.693H68.1358V31.817H66.5518V32.915H68.1358V37.883C68.1358 39.971 69.2698 40.709 71.0338 40.709H72.9598ZM78.5913 40.889C81.0753 40.889 82.9113 39.611 82.9113 37.757V37.631H81.6333V37.757C81.6333 39.053 80.6613 39.827 78.5732 39.827C76.2153 39.827 75.1893 38.621 75.1173 36.623H82.9473C83.0013 36.389 83.0373 36.119 83.0373 35.795C83.0373 33.149 81.1833 31.637 78.5732 31.637C75.7113 31.637 73.9113 33.563 73.9113 36.263C73.9113 39.089 75.7293 40.889 78.5913 40.889ZM78.5553 32.699C80.6433 32.699 81.8313 33.689 81.8313 35.561C81.8313 35.651 81.8313 35.741 81.8313 35.831H75.1173C75.2073 33.887 76.2513 32.699 78.5553 32.699ZM85.7763 40.709V38.207H84.1923V40.709H85.7763Z" fill="white"/>
</svg>
