<svg width="545" height="41" viewBox="0 0 545 41" fill="none" xmlns="http://www.w3.org/2000/svg">
<path d="M9.464 32.709V21.765H13.16C16.664 21.765 17.624 22.437 18.776 24.837L22.616 32.709H33.032L29.048 24.645C27.848 22.197 26.792 20.613 23.48 19.749V19.269C29.624 18.501 32.168 15.477 32.168 10.389C32.168 4.10098 27.704 0.548984 19.208 0.548984H0.44V32.709H9.464ZM9.464 8.66098H19.112C21.752 8.66098 22.712 9.28498 22.712 11.829C22.712 14.565 21.752 15.045 19.112 15.045H9.464V8.66098ZM47.9593 33.189C56.1193 33.189 61.2552 29.397 61.2552 24.021V23.445H52.2313V23.973C52.2313 25.413 51.2713 26.037 47.6233 26.037C43.7833 26.037 42.4873 25.221 42.3433 22.293H61.3033C61.3993 21.429 61.4473 20.805 61.4473 19.989C61.4473 12.213 56.1193 8.03698 47.7673 8.03698C39.7033 8.03698 33.9913 12.741 33.9913 20.613C33.9913 29.685 39.7513 33.189 47.9593 33.189ZM47.5753 14.949C50.9353 14.949 52.3753 15.669 52.7113 17.733H42.4873C42.8713 15.669 44.2633 14.949 47.5753 14.949ZM71.6859 33.189C76.9179 33.189 79.8939 31.029 80.8059 27.621H81.2859V32.709H89.7339V18.933C89.7339 12.165 85.6539 8.03698 77.2059 8.03698C68.9979 8.03698 63.6219 12.165 63.6219 18.597V18.693H72.6459V18.501C72.6459 16.485 73.5579 15.909 76.5339 15.909C79.7499 15.909 80.8059 16.293 80.8059 18.741V19.221L70.9659 20.181C65.4939 20.709 63.1419 23.157 63.1419 26.565C63.1419 30.693 66.2139 33.189 71.6859 33.189ZM72.2139 25.989C72.2139 25.461 72.5499 25.173 73.3659 25.077L80.7579 24.213C80.5179 26.373 78.7419 26.901 74.3739 26.901C72.9819 26.901 72.2139 26.757 72.2139 25.989ZM103.401 33.189C109.065 33.189 111.945 30.981 112.713 26.181H113.193V32.709H121.641V0.548984H112.617V14.757H112.137C111.417 10.725 108.729 8.03698 103.017 8.03698C95.9128 8.03698 91.9288 12.741 91.9288 20.613C91.9288 28.437 96.0088 33.189 103.401 33.189ZM101.049 20.613C101.049 17.397 102.489 16.245 106.665 16.245C110.697 16.245 112.617 16.917 112.617 20.325V20.661C112.617 24.165 110.697 24.933 106.665 24.933C102.489 24.933 101.049 23.829 101.049 20.613ZM129.846 40.869C136.902 40.869 140.598 39.381 143.19 33.669L154.662 8.51698H144.582L140.982 17.925L139.398 23.589H138.774L137.046 18.021L132.87 8.51698H122.598L134.166 32.421C133.782 32.613 133.206 32.709 132.486 32.709H125.478V40.869H129.846ZM182.026 32.709V8.66098H193.354V0.548984H161.626V8.66098H173.002V32.709H182.026ZM208.926 33.189C217.326 33.189 223.038 28.437 223.038 20.613C223.038 12.741 217.326 8.03698 208.926 8.03698C200.526 8.03698 194.814 12.741 194.814 20.613C194.814 28.437 200.526 33.189 208.926 33.189ZM208.926 25.221C204.846 25.221 203.742 24.117 203.742 20.613C203.742 17.109 204.846 15.957 208.926 15.957C213.006 15.957 214.11 17.109 214.11 20.613C214.11 24.117 213.006 25.221 208.926 25.221ZM247.461 33.189C254.997 33.189 257.733 29.589 258.597 25.845H259.077V32.709H267.477V15.141H248.469V21.765H258.357C257.925 24.213 256.005 24.549 249.333 24.549C242.805 24.549 241.029 23.013 241.029 16.629C241.029 10.245 242.901 8.70898 249.813 8.70898C255.525 8.70898 257.349 9.86098 257.349 12.837V13.173H267.429V12.837C267.429 4.86898 260.949 0.068984 250.053 0.068984C238.341 0.068984 231.429 6.59698 231.429 16.629C231.429 26.661 237.333 33.189 247.461 33.189ZM283.647 33.189C291.807 33.189 296.943 29.397 296.943 24.021V23.445H287.919V23.973C287.919 25.413 286.959 26.037 283.311 26.037C279.471 26.037 278.175 25.221 278.031 22.293H296.991C297.087 21.429 297.135 20.805 297.135 19.989C297.135 12.213 291.807 8.03698 283.455 8.03698C275.391 8.03698 269.679 12.741 269.679 20.613C269.679 29.685 275.439 33.189 283.647 33.189ZM283.263 14.949C286.623 14.949 288.063 15.669 288.399 17.733H278.175C278.559 15.669 279.951 14.949 283.263 14.949ZM317.645 32.709V24.597H313.325C311.261 24.597 310.685 24.117 310.685 22.197V15.909H317.645V8.51698H310.685V4.34098H301.661V8.51698H298.109V15.909H301.661V23.493C301.661 29.781 305.261 32.709 311.309 32.709H317.645ZM342.103 33.189C352.951 33.189 357.175 28.293 357.175 22.773C357.175 18.645 355.062 14.613 347.191 13.461L337.111 11.973C335.383 11.733 334.807 11.253 334.807 10.245C334.807 8.85298 335.815 8.22898 340.423 8.22898C346.471 8.22898 347.479 8.99698 347.479 11.301V12.021H356.503V11.733C356.503 4.53298 351.607 0.068984 341.383 0.068984C329.767 0.068984 325.783 5.44498 325.783 10.581C325.783 15.765 328.807 18.981 334.807 19.797L344.887 21.141C347.527 21.477 348.151 21.957 348.151 23.109C348.151 24.549 347.575 24.981 342.103 24.981C336.055 24.981 335.287 24.405 335.287 22.245V21.237H326.263V21.525C326.263 29.685 332.263 33.189 342.103 33.189ZM377.411 32.709V24.597H373.091C371.027 24.597 370.451 24.117 370.451 22.197V15.909H377.411V8.51698H370.451V4.34098H361.427V8.51698H357.875V15.909H361.427V23.493C361.427 29.781 365.027 32.709 371.075 32.709H377.411ZM387.389 33.189C392.621 33.189 395.597 31.029 396.509 27.621H396.989V32.709H405.437V18.933C405.437 12.165 401.357 8.03698 392.909 8.03698C384.701 8.03698 379.325 12.165 379.325 18.597V18.693H388.349V18.501C388.349 16.485 389.261 15.909 392.237 15.909C395.453 15.909 396.509 16.293 396.509 18.741V19.221L386.669 20.181C381.197 20.709 378.845 23.157 378.845 26.565C378.845 30.693 381.917 33.189 387.389 33.189ZM387.917 25.989C387.917 25.461 388.253 25.173 389.069 25.077L396.461 24.213C396.221 26.373 394.445 26.901 390.077 26.901C388.685 26.901 387.917 26.757 387.917 25.989ZM417.136 32.709V18.261C417.136 16.341 417.856 15.621 420.304 15.621C422.656 15.621 423.424 16.341 423.424 18.357V21.189H432.448V16.389C432.448 11.541 430.336 8.03698 425.008 8.03698C420.208 8.03698 417.712 10.869 417.04 14.853H416.56V8.51698H408.112V32.709H417.136ZM452.458 32.709V24.597H448.138C446.074 24.597 445.498 24.117 445.498 22.197V15.909H452.458V8.51698H445.498V4.34098H436.474V8.51698H432.922V15.909H436.474V23.493C436.474 29.781 440.074 32.709 446.122 32.709H452.458ZM468.1 33.189C476.26 33.189 481.396 29.397 481.396 24.021V23.445H472.372V23.973C472.372 25.413 471.412 26.037 467.764 26.037C463.924 26.037 462.628 25.221 462.484 22.293H481.444C481.54 21.429 481.588 20.805 481.588 19.989C481.588 12.213 476.26 8.03698 467.908 8.03698C459.844 8.03698 454.132 12.741 454.132 20.613C454.132 29.685 459.892 33.189 468.1 33.189ZM467.716 14.949C471.076 14.949 472.516 15.669 472.852 17.733H462.628C463.012 15.669 464.404 14.949 467.716 14.949ZM494.995 33.189C500.659 33.189 503.539 30.981 504.307 26.181H504.787V32.709H513.235V0.548984H504.211V14.757H503.731C503.011 10.725 500.323 8.03698 494.611 8.03698C487.507 8.03698 483.523 12.741 483.523 20.613C483.523 28.437 487.603 33.189 494.995 33.189ZM492.643 20.613C492.643 17.397 494.083 16.245 498.259 16.245C502.291 16.245 504.211 16.917 504.211 20.325V20.661C504.211 24.165 502.291 24.933 498.259 24.933C494.083 24.933 492.643 23.829 492.643 20.613ZM532.96 22.005V21.765C532.96 20.757 533.152 20.085 534.88 19.413L538.48 18.069C541.504 16.917 545.008 14.997 545.008 9.71698C545.008 4.34098 541.168 0.068984 531.184 0.068984C519.52 0.068984 515.152 5.92498 515.152 12.453V13.893H524.032V11.589C524.032 9.33298 525.376 8.27698 530.512 8.27698C535.504 8.27698 535.984 9.04498 535.984 10.053C535.984 11.109 535.216 11.541 533.344 12.213L529.984 13.461C526.96 14.565 523.936 16.197 523.936 20.229V22.005H532.96ZM533.632 32.709V24.213H523.312V32.709H533.632Z" fill="white"/>
</svg>
