<svg width="608" height="108" viewBox="0 0 608 108" fill="none" xmlns="http://www.w3.org/2000/svg">
<path d="M12.952 43V25.272L12.504 18.104H13.336L15.768 25.272L22.168 40.44H36.76L43.16 25.272L45.592 18.104H46.424L45.976 25.272V43H58.008V0.119999H41.688L34.2 17.912L30.168 28.984H29.336L25.112 17.912L17.24 0.119999H0.92V43H12.952ZM72.2895 43.64C79.2655 43.64 83.2335 40.76 84.4495 36.216H85.0895V43H96.3535V24.632C96.3535 15.608 90.9135 10.104 79.6495 10.104C68.7055 10.104 61.5375 15.608 61.5375 24.184V24.312H73.5695V24.056C73.5695 21.368 74.7855 20.6 78.7535 20.6C83.0415 20.6 84.4495 21.112 84.4495 24.376V25.016L71.3295 26.296C64.0335 27 60.8975 30.264 60.8975 34.808C60.8975 40.312 64.9935 43.64 72.2895 43.64ZM72.9935 34.04C72.9935 33.336 73.4415 32.952 74.5295 32.824L84.3855 31.672C84.0655 34.552 81.6975 35.256 75.8735 35.256C74.0175 35.256 72.9935 35.064 72.9935 34.04ZM111.952 43V32.696H117.776L124.56 43H138.768L127.504 26.424L138.96 10.744H124.752L117.648 21.944H111.952V0.119999H99.92V43H111.952ZM158.217 43.64C169.097 43.64 175.944 38.584 175.944 31.416V30.648H163.913V31.352C163.913 33.272 162.633 34.104 157.769 34.104C152.649 34.104 150.921 33.016 150.729 29.112H176.009C176.137 27.96 176.201 27.128 176.201 26.04C176.201 15.672 169.097 10.104 157.961 10.104C147.209 10.104 139.593 16.376 139.593 26.872C139.593 38.968 147.273 43.64 158.217 43.64ZM157.705 19.32C162.185 19.32 164.105 20.28 164.553 23.032H150.921C151.433 20.28 153.289 19.32 157.705 19.32ZM214.598 43V10.936H229.702V0.119999H187.398V10.936H202.566V43H214.598ZM244.64 43V26.36C244.64 22.2 245.984 20.856 251.552 20.856C257.056 20.856 258.784 22.264 258.784 26.744V43H270.816V22.712C270.816 15.544 266.72 10.104 258.144 10.104C249.888 10.104 246.304 15.096 245.28 20.536H244.64V0.119999H232.608V43H244.64ZM292.404 43.64C303.284 43.64 310.132 38.584 310.132 31.416V30.648H298.1V31.352C298.1 33.272 296.82 34.104 291.956 34.104C286.836 34.104 285.108 33.016 284.916 29.112H310.196C310.324 27.96 310.388 27.128 310.388 26.04C310.388 15.672 303.284 10.104 292.148 10.104C281.396 10.104 273.78 16.376 273.78 26.872C273.78 38.968 281.46 43.64 292.404 43.64ZM291.892 19.32C296.372 19.32 298.292 20.28 298.74 23.032H285.108C285.62 20.28 287.476 19.32 291.892 19.32ZM351.281 43C361.521 43 365.681 38.328 365.681 31.096C365.681 25.144 361.585 21.176 353.009 20.856V20.216C360.817 19.896 363.697 15.992 363.697 10.488C363.697 3.768 359.089 0.119999 349.809 0.119999H322.545V43H351.281ZM334.513 10.936H348.209C350.705 10.936 351.665 11.704 351.665 13.688C351.665 15.672 350.961 16.376 348.529 16.376H334.513V10.936ZM334.513 26.232H349.745C352.689 26.232 353.521 26.808 353.521 29.176C353.521 31.608 352.625 32.184 349.745 32.184H334.513V26.232ZM386.217 43.64C397.097 43.64 403.944 38.584 403.944 31.416V30.648H391.913V31.352C391.913 33.272 390.633 34.104 385.769 34.104C380.649 34.104 378.921 33.016 378.729 29.112H404.009C404.137 27.96 404.201 27.128 404.201 26.04C404.201 15.672 397.097 10.104 385.961 10.104C375.209 10.104 367.593 16.376 367.593 26.872C367.593 38.968 375.273 43.64 386.217 43.64ZM385.705 19.32C390.185 19.32 392.105 20.28 392.553 23.032H378.921C379.433 20.28 381.289 19.32 385.705 19.32ZM424.764 43.64C435.452 43.64 441.468 39.288 441.468 33.272C441.468 27.832 438.46 24.696 429.052 23.672L422.652 22.968C418.876 22.584 418.364 22.136 418.364 21.24C418.364 20.024 418.876 19.512 422.78 19.512C427.644 19.512 428.284 20.28 428.284 21.944V22.328H440.316V22.072C440.316 14.136 434.364 10.104 423.164 10.104C411.068 10.104 406.524 15.032 406.524 20.728C406.524 26.168 410.108 29.304 416.764 30.008L426.108 31.032C429.116 31.352 429.628 31.608 429.628 32.632C429.628 33.72 428.988 34.168 424.828 34.168C420.476 34.168 419.324 33.976 419.324 32.184V31.544H407.292V31.8C407.292 39.224 413.372 43.64 424.764 43.64ZM468.486 43V32.184H462.726C459.974 32.184 459.206 31.544 459.206 28.984V20.6H468.486V10.744H459.206V5.176H447.174V10.744H442.438V20.6H447.174V30.712C447.174 39.096 451.974 43 460.038 43H468.486ZM12.952 107V92.088H38.296V81.336H12.952V74.936H39.256V64.12H0.92V107H12.952ZM54.452 71.8V64.12H42.42V71.8H54.452ZM54.452 107V74.744H42.42V107H54.452ZM70.327 107V90.36C70.327 86.2 71.607 84.856 76.919 84.856C82.167 84.856 83.831 86.264 83.831 90.744V107H95.863V86.328C95.863 79.352 91.767 74.104 83.063 74.104C74.423 74.104 70.903 79.16 70.199 84.536H69.559V74.744H58.295V107H70.327ZM109.852 107.64C116.828 107.64 120.796 104.76 122.012 100.216H122.652V107H133.916V88.632C133.916 79.608 128.476 74.104 117.212 74.104C106.268 74.104 99.1 79.608 99.1 88.184V88.312H111.132V88.056C111.132 85.368 112.348 84.6 116.316 84.6C120.604 84.6 122.012 85.112 122.012 88.376V89.016L108.892 90.296C101.596 91 98.46 94.264 98.46 98.808C98.46 104.312 102.556 107.64 109.852 107.64ZM110.556 98.04C110.556 97.336 111.004 96.952 112.092 96.824L121.948 95.672C121.628 98.552 119.26 99.256 113.436 99.256C111.58 99.256 110.556 99.064 110.556 98.04ZM149.515 107V90.36C149.515 86.2 150.795 84.856 156.107 84.856C161.355 84.856 163.019 86.264 163.019 90.744V107H175.051V86.328C175.051 79.352 170.955 74.104 162.251 74.104C153.611 74.104 150.091 79.16 149.387 84.536H148.747V74.744H137.483V107H149.515ZM196.72 107.64C207.728 107.64 214.768 101.944 214.768 93.368V92.28H202.8V92.856C202.8 96.184 200.368 96.824 196.464 96.824C192.048 96.824 189.936 95.864 189.936 90.872C189.936 85.816 192.048 84.856 196.464 84.856C200.368 84.856 202.8 85.56 202.8 88.888V89.4H214.768V88.376C214.768 79.736 207.728 74.104 196.72 74.104C185.264 74.104 177.968 80.376 177.968 90.872C177.968 101.304 185.264 107.64 196.72 107.64ZM230.015 71.8V64.12H217.983V71.8H230.015ZM230.015 107V74.744H217.983V107H230.015ZM244.29 107.64C251.266 107.64 255.234 104.76 256.45 100.216H257.09V107H268.354V88.632C268.354 79.608 262.914 74.104 251.65 74.104C240.706 74.104 233.538 79.608 233.538 88.184V88.312H245.57V88.056C245.57 85.368 246.786 84.6 250.753 84.6C255.042 84.6 256.45 85.112 256.45 88.376V89.016L243.33 90.296C236.034 91 232.898 94.264 232.898 98.808C232.898 104.312 236.994 107.64 244.29 107.64ZM244.994 98.04C244.994 97.336 245.442 96.952 246.53 96.824L256.386 95.672C256.066 98.552 253.698 99.256 247.874 99.256C246.018 99.256 244.994 99.064 244.994 98.04ZM283.952 107V64.12H271.92V107H283.952ZM319.133 107C333.277 107 342.237 99.128 342.237 85.56C342.237 71.992 333.277 64.12 319.133 64.12H297.437V107H319.133ZM319.133 74.936C326.749 74.936 329.373 75.896 329.373 85.56C329.373 95.224 326.749 96.184 319.133 96.184H309.469V74.936H319.133ZM363.404 107.64C374.284 107.64 381.132 102.584 381.132 95.416V94.648H369.1V95.352C369.1 97.272 367.82 98.104 362.956 98.104C357.836 98.104 356.108 97.016 355.916 93.112H381.196C381.324 91.96 381.388 91.128 381.388 90.04C381.388 79.672 374.284 74.104 363.148 74.104C352.396 74.104 344.78 80.376 344.78 90.872C344.78 102.968 352.46 107.64 363.404 107.64ZM362.892 83.32C367.372 83.32 369.292 84.28 369.74 87.032H356.108C356.62 84.28 358.476 83.32 362.892 83.32ZM402.72 107.64C413.728 107.64 420.768 101.944 420.768 93.368V92.28H408.8V92.856C408.8 96.184 406.368 96.824 402.464 96.824C398.048 96.824 395.936 95.864 395.936 90.872C395.936 85.816 398.048 84.856 402.464 84.856C406.368 84.856 408.8 85.56 408.8 88.888V89.4H420.768V88.376C420.768 79.736 413.728 74.104 402.72 74.104C391.264 74.104 383.968 80.376 383.968 90.872C383.968 101.304 391.264 107.64 402.72 107.64ZM436.015 71.8V64.12H423.983V71.8H436.015ZM436.015 107V74.744H423.983V107H436.015ZM457.202 107.64C467.89 107.64 473.906 103.288 473.906 97.272C473.906 91.832 470.898 88.696 461.49 87.672L455.09 86.968C451.314 86.584 450.802 86.136 450.802 85.24C450.802 84.024 451.314 83.512 455.218 83.512C460.082 83.512 460.722 84.28 460.722 85.944V86.328H472.754V86.072C472.754 78.136 466.802 74.104 455.602 74.104C443.506 74.104 438.962 79.032 438.962 84.728C438.962 90.168 442.546 93.304 449.202 94.008L458.546 95.032C461.554 95.352 462.066 95.608 462.066 96.632C462.066 97.72 461.426 98.168 457.266 98.168C452.914 98.168 451.762 97.976 451.762 96.184V95.544H439.73V95.8C439.73 103.224 445.81 107.64 457.202 107.64ZM488.827 71.8V64.12H476.795V71.8H488.827ZM488.827 107V74.744H476.795V107H488.827ZM510.526 107.64C521.726 107.64 529.342 101.304 529.342 90.872C529.342 80.376 521.726 74.104 510.526 74.104C499.326 74.104 491.71 80.376 491.71 90.872C491.71 101.304 499.326 107.64 510.526 107.64ZM510.526 97.016C505.086 97.016 503.614 95.544 503.614 90.872C503.614 86.2 505.086 84.664 510.526 84.664C515.966 84.664 517.438 86.2 517.438 90.872C517.438 95.544 515.966 97.016 510.526 97.016ZM544.265 107V90.36C544.265 86.2 545.545 84.856 550.857 84.856C556.105 84.856 557.769 86.264 557.769 90.744V107H569.801V86.328C569.801 79.352 565.705 74.104 557.001 74.104C548.361 74.104 544.841 79.16 544.137 84.536H543.497V74.744H532.233V107H544.265ZM590.702 107.64C601.39 107.64 607.406 103.288 607.406 97.272C607.406 91.832 604.398 88.696 594.99 87.672L588.59 86.968C584.814 86.584 584.302 86.136 584.302 85.24C584.302 84.024 584.814 83.512 588.718 83.512C593.582 83.512 594.222 84.28 594.222 85.944V86.328H606.254V86.072C606.254 78.136 600.302 74.104 589.102 74.104C577.006 74.104 572.462 79.032 572.462 84.728C572.462 90.168 576.046 93.304 582.702 94.008L592.046 95.032C595.054 95.352 595.566 95.608 595.566 96.632C595.566 97.72 594.926 98.168 590.766 98.168C586.414 98.168 585.262 97.976 585.262 96.184V95.544H573.23V95.8C573.23 103.224 579.31 107.64 590.702 107.64Z" fill="black"/>
</svg>
