<svg width="570" height="45" viewBox="0 0 570 45" fill="none" xmlns="http://www.w3.org/2000/svg">
<path opacity="0.5" d="M6.768 13.18C10.188 13.18 12.546 11.38 12.546 8.482V8.248H10.404V8.482C10.404 10.336 9.234 11.308 6.786 11.308C3.96 11.308 2.592 9.976 2.592 6.97C2.592 3.964 3.96 2.614 6.786 2.614C9.234 2.614 10.404 3.604 10.404 5.44V5.692H12.546V5.44C12.546 2.56 10.17 0.76 6.768 0.76C3.024 0.76 0.54 3.208 0.54 6.97C0.54 10.732 3.024 13.18 6.768 13.18ZM17.7041 13.18C20.0081 13.18 21.1961 11.74 21.4841 10.228H21.5921V13H23.3741V4.054H21.4481V8.482C21.4481 10.426 20.5301 11.434 18.5501 11.434C16.6601 11.434 15.8861 10.588 15.8861 8.914V4.054H13.9601V9.436C13.9601 11.506 15.1841 13.18 17.7041 13.18ZM27.0842 13V8.572C27.0842 6.592 27.7502 5.62 29.6762 5.62C31.4042 5.62 32.0882 6.376 32.0882 8.14V13H34.0142V8.572C34.0142 6.592 34.6982 5.62 36.6062 5.62C38.3342 5.62 39.0362 6.376 39.0362 8.14V13H40.9622V7.618C40.9622 5.458 39.7922 3.874 37.4702 3.874C35.2022 3.874 34.1942 5.296 33.9602 6.826H33.8522C33.6002 5.116 32.5022 3.874 30.4682 3.874C28.2362 3.874 27.2642 5.26 27.0302 6.754H26.9222V4.054H25.1402V13H27.0842ZM55.425 13V11.254H47.721V7.798H55.155V6.07H47.721V2.686H55.425V0.94H45.777V13H55.425ZM62.8071 13V11.254H61.1871C60.0711 11.254 59.5671 10.966 59.5671 9.868V5.674H62.8071V4.054H59.5671V2.092H57.6411V4.054H56.1291V5.674H57.6411V9.976C57.6411 12.154 58.8291 13 60.7551 13H62.8071ZM72.9672 13.18C76.3872 13.18 78.7452 11.38 78.7452 8.482V8.248H76.6032V8.482C76.6032 10.336 75.4332 11.308 72.9852 11.308C70.1592 11.308 68.7912 9.976 68.7912 6.97C68.7912 3.964 70.1592 2.614 72.9852 2.614C75.4332 2.614 76.6032 3.604 76.6032 5.44V5.692H78.7452V5.44C78.7452 2.56 76.3692 0.76 72.9672 0.76C69.2232 0.76 66.7392 3.208 66.7392 6.97C66.7392 10.732 69.2232 13.18 72.9672 13.18ZM84.7493 13.18C87.7373 13.18 89.7353 11.29 89.7353 8.536C89.7353 5.746 87.7373 3.874 84.7493 3.874C81.7793 3.874 79.7813 5.746 79.7813 8.536C79.7813 11.29 81.7793 13.18 84.7493 13.18ZM84.7493 11.452C82.5893 11.452 81.6893 10.426 81.6893 8.536C81.6893 6.628 82.5893 5.584 84.7493 5.584C86.9273 5.584 87.8273 6.628 87.8273 8.536C87.8273 10.426 86.9273 11.452 84.7493 11.452ZM93.0901 13V8.572C93.0901 6.628 93.9721 5.62 95.9341 5.62C97.7881 5.62 98.5441 6.466 98.5441 8.14V13H100.488V7.618C100.488 5.548 99.2641 3.874 96.7801 3.874C94.5121 3.874 93.3241 5.314 93.0541 6.826H92.9281V4.054H91.1461V13H93.0901ZM107.962 13L112.174 4.054H110.068L106.882 11.11H106.738L103.552 4.054H101.41L105.586 13H107.962ZM115.799 13.18C117.833 13.18 119.255 12.28 119.723 10.768H119.849V13H121.631V7.564C121.631 5.422 120.353 3.874 117.509 3.874C114.665 3.874 112.973 5.404 112.973 7.438V7.51H114.899V7.438C114.899 6.124 115.709 5.584 117.365 5.584C119.075 5.584 119.723 6.106 119.723 7.582V8.104L115.655 8.536C113.891 8.734 112.775 9.454 112.775 10.84C112.775 12.316 113.945 13.18 115.799 13.18ZM114.719 10.714C114.719 10.012 115.205 9.778 116.213 9.652L119.723 9.256C119.723 11.02 118.355 11.776 116.321 11.776C115.205 11.776 114.719 11.434 114.719 10.714ZM125.311 13V0.94H123.367V13H125.311ZM129.055 13V0.94H127.111V13H129.055ZM132.799 3.01V0.94H130.855V3.01H132.799ZM132.799 13V4.054H130.855V13H132.799ZM138.829 13.18C141.349 13.18 143.005 12.19 143.005 10.516C143.005 9.04 142.033 8.32 139.909 8.05L137.839 7.762C136.489 7.582 136.129 7.33 136.129 6.628C136.129 5.782 136.705 5.422 138.343 5.422C140.323 5.422 140.863 5.98 140.863 7.042V7.15H142.789V7.096C142.789 4.972 141.133 3.874 138.397 3.874C135.643 3.874 134.221 4.99 134.221 6.556C134.221 8.05 135.247 8.77 136.939 8.986L139.387 9.31C140.665 9.49 141.097 9.724 141.097 10.462C141.097 11.254 140.575 11.614 138.829 11.614C136.957 11.614 136.255 11.236 136.255 10.066V9.922H134.311V9.976C134.311 12.046 135.949 13.18 138.829 13.18ZM149.428 13V8.32H151.642C153.154 8.32 153.712 8.716 154.252 9.67L156.178 13H158.41L156.394 9.508C155.962 8.752 155.53 8.212 154.594 7.96V7.834C156.862 7.708 158.176 6.484 158.176 4.486C158.176 2.236 156.484 0.94 153.748 0.94H147.484V13H149.428ZM149.428 2.686H153.73C155.35 2.686 156.16 3.28 156.16 4.756C156.16 6.268 155.35 6.826 153.73 6.826H149.428V2.686ZM161.522 3.01V0.94H159.578V3.01H161.522ZM161.522 13V4.054H159.578V13H161.522ZM167.552 13.18C170.072 13.18 171.728 12.19 171.728 10.516C171.728 9.04 170.756 8.32 168.632 8.05L166.562 7.762C165.212 7.582 164.852 7.33 164.852 6.628C164.852 5.782 165.428 5.422 167.066 5.422C169.046 5.422 169.586 5.98 169.586 7.042V7.15H171.512V7.096C171.512 4.972 169.856 3.874 167.12 3.874C164.366 3.874 162.944 4.99 162.944 6.556C162.944 8.05 163.97 8.77 165.662 8.986L168.11 9.31C169.388 9.49 169.82 9.724 169.82 10.462C169.82 11.254 169.298 11.614 167.552 11.614C165.68 11.614 164.978 11.236 164.978 10.066V9.922H163.034V9.976C163.034 12.046 164.672 13.18 167.552 13.18ZM176.856 13.18C179.16 13.18 180.348 11.74 180.636 10.228H180.744V13H182.526V4.054H180.6V8.482C180.6 10.426 179.682 11.434 177.702 11.434C175.812 11.434 175.038 10.588 175.038 8.914V4.054H173.112V9.436C173.112 11.506 174.336 13.18 176.856 13.18ZM188.523 13.18C191.043 13.18 192.699 12.19 192.699 10.516C192.699 9.04 191.727 8.32 189.603 8.05L187.533 7.762C186.183 7.582 185.823 7.33 185.823 6.628C185.823 5.782 186.399 5.422 188.037 5.422C190.017 5.422 190.557 5.98 190.557 7.042V7.15H192.483V7.096C192.483 4.972 190.827 3.874 188.091 3.874C185.337 3.874 183.915 4.99 183.915 6.556C183.915 8.05 184.941 8.77 186.633 8.986L189.081 9.31C190.359 9.49 190.791 9.724 190.791 10.462C190.791 11.254 190.269 11.614 188.523 11.614C186.651 11.614 185.949 11.236 185.949 10.066V9.922H184.005V9.976C184.005 12.046 185.643 13.18 188.523 13.18ZM199.121 13V9.364H203.081C205.763 9.364 207.599 7.816 207.599 5.152C207.599 2.47 205.763 0.94 203.081 0.94H197.177V13H199.121ZM202.901 2.686C204.719 2.686 205.655 3.37 205.655 5.152C205.655 6.934 204.719 7.618 202.901 7.618H199.121V2.686H202.901ZM210.705 13V0.94H208.761V13H210.705ZM215.133 13.18C217.167 13.18 218.589 12.28 219.057 10.768H219.183V13H220.965V7.564C220.965 5.422 219.687 3.874 216.843 3.874C213.999 3.874 212.307 5.404 212.307 7.438V7.51H214.233V7.438C214.233 6.124 215.043 5.584 216.699 5.584C218.409 5.584 219.057 6.106 219.057 7.582V8.104L214.989 8.536C213.225 8.734 212.109 9.454 212.109 10.84C212.109 12.316 213.279 13.18 215.133 13.18ZM214.053 10.714C214.053 10.012 214.539 9.778 215.547 9.652L219.057 9.256C219.057 11.02 217.689 11.776 215.655 11.776C214.539 11.776 214.053 11.434 214.053 10.714ZM227.219 13.18C229.901 13.18 231.863 11.668 231.863 9.436V9.238H229.937V9.364C229.937 10.75 228.929 11.434 227.183 11.434C225.167 11.434 224.267 10.462 224.267 8.536C224.267 6.574 225.167 5.62 227.183 5.62C228.929 5.62 229.937 6.304 229.937 7.69V7.798H231.863V7.618C231.863 5.386 229.901 3.874 227.219 3.874C224.267 3.874 222.341 5.746 222.341 8.536C222.341 11.29 224.267 13.18 227.219 13.18ZM237.8 13.18C240.464 13.18 242.336 11.866 242.336 9.958V9.796H240.392V9.94C240.392 11.002 239.618 11.614 237.746 11.614C235.676 11.614 234.83 10.696 234.758 8.968H242.354C242.408 8.698 242.426 8.446 242.426 8.122C242.426 5.404 240.536 3.874 237.764 3.874C234.848 3.874 232.94 5.746 232.94 8.536C232.94 11.524 234.866 13.18 237.8 13.18ZM237.728 5.404C239.636 5.404 240.59 6.196 240.59 7.852V7.888H234.776C234.884 6.286 235.748 5.404 237.728 5.404ZM245.826 13V7.978C245.826 6.376 246.456 5.53 247.986 5.53C249.318 5.53 249.858 6.124 249.858 7.402V8.194H251.784V7.024C251.784 5.332 250.902 3.874 248.868 3.874C247.032 3.874 246.06 5.026 245.79 6.466H245.664V4.054H243.882V13H245.826ZM255.633 13.18C257.667 13.18 259.089 12.28 259.557 10.768H259.683V13H261.465V7.564C261.465 5.422 260.187 3.874 257.343 3.874C254.499 3.874 252.807 5.404 252.807 7.438V7.51H254.733V7.438C254.733 6.124 255.543 5.584 257.199 5.584C258.909 5.584 259.557 6.106 259.557 7.582V8.104L255.489 8.536C253.725 8.734 252.609 9.454 252.609 10.84C252.609 12.316 253.779 13.18 255.633 13.18ZM254.553 10.714C254.553 10.012 255.039 9.778 256.047 9.652L259.557 9.256C259.557 11.02 258.189 11.776 256.155 11.776C255.039 11.776 254.553 11.434 254.553 10.714ZM269.069 13V11.254H267.449C266.333 11.254 265.829 10.966 265.829 9.868V5.674H269.069V4.054H265.829V2.092H263.903V4.054H262.391V5.674H263.903V9.976C263.903 12.154 265.091 13 267.017 13H269.069ZM274.621 13L276.007 9.868H282.379L283.765 13H285.961L280.579 0.94H277.843L272.461 13H274.621ZM278.419 4.45L279.121 2.74H279.265L279.967 4.45L281.605 8.122H276.781L278.419 4.45ZM288.805 13V0.94H286.861V13H288.805ZM292.549 3.01V0.94H290.605V3.01H292.549ZM292.549 13V4.054H290.605V13H292.549ZM298.219 13.18C300.235 13.18 301.531 12.118 301.909 10.48H301.963V16.06H303.907V4.054H302.125V6.538H301.963C301.603 4.882 300.343 3.874 298.237 3.874C295.465 3.874 293.899 5.764 293.899 8.536C293.899 11.308 295.447 13.18 298.219 13.18ZM295.861 8.536C295.861 6.376 296.977 5.656 298.849 5.656C300.847 5.656 301.963 6.592 301.963 8.518V8.68C301.963 10.516 300.793 11.416 298.885 11.416C296.959 11.416 295.861 10.678 295.861 8.536ZM309.431 13.18C311.735 13.18 312.923 11.74 313.211 10.228H313.319V13H315.101V4.054H313.175V8.482C313.175 10.426 312.257 11.434 310.277 11.434C308.387 11.434 307.613 10.588 307.613 8.914V4.054H305.687V9.436C305.687 11.506 306.911 13.18 309.431 13.18ZM319.495 13.18C321.529 13.18 322.951 12.28 323.419 10.768H323.545V13H325.327V7.564C325.327 5.422 324.049 3.874 321.205 3.874C318.361 3.874 316.669 5.404 316.669 7.438V7.51H318.595V7.438C318.595 6.124 319.405 5.584 321.061 5.584C322.771 5.584 323.419 6.106 323.419 7.582V8.104L319.351 8.536C317.587 8.734 316.471 9.454 316.471 10.84C316.471 12.316 317.641 13.18 319.495 13.18ZM318.415 10.714C318.415 10.012 318.901 9.778 319.909 9.652L323.419 9.256C323.419 11.02 322.051 11.776 320.017 11.776C318.901 11.776 318.415 11.434 318.415 10.714ZM329.006 13V8.572C329.006 6.592 329.672 5.62 331.598 5.62C333.326 5.62 334.01 6.376 334.01 8.14V13H335.936V8.572C335.936 6.592 336.62 5.62 338.528 5.62C340.256 5.62 340.958 6.376 340.958 8.14V13H342.884V7.618C342.884 5.458 341.714 3.874 339.392 3.874C337.124 3.874 336.116 5.296 335.882 6.826H335.774C335.522 5.116 334.424 3.874 332.39 3.874C330.158 3.874 329.186 5.26 328.952 6.754H328.844V4.054H327.062V13H329.006ZM344.947 15.016C346.063 15.016 346.711 14.476 346.711 13.36V10.21H344.263V13H345.343V13.378C345.343 13.756 345.199 13.828 344.893 13.828H344.299V15.016H344.947ZM353.176 13V5.926L353.104 3.838H353.248L354.76 5.962L360.196 13H362.284V0.94H360.34V8.068L360.43 10.246H360.286L358.72 7.996L353.32 0.94H351.232V13H353.176ZM367.808 13.18C370.112 13.18 371.3 11.74 371.588 10.228H371.696V13H373.478V4.054H371.552V8.482C371.552 10.426 370.634 11.434 368.654 11.434C366.764 11.434 365.99 10.588 365.99 8.914V4.054H364.064V9.436C364.064 11.506 365.288 13.18 367.808 13.18ZM377.188 13V8.572C377.188 6.628 378.07 5.62 380.032 5.62C381.886 5.62 382.642 6.466 382.642 8.14V13H384.586V7.618C384.586 5.548 383.362 3.874 380.878 3.874C378.61 3.874 377.422 5.314 377.152 6.826H377.026V4.054H375.244V13H377.188ZM390.836 13.18C393.518 13.18 395.48 11.668 395.48 9.436V9.238H393.554V9.364C393.554 10.75 392.546 11.434 390.8 11.434C388.784 11.434 387.884 10.462 387.884 8.536C387.884 6.574 388.784 5.62 390.8 5.62C392.546 5.62 393.554 6.304 393.554 7.69V7.798H395.48V7.618C395.48 5.386 393.518 3.874 390.836 3.874C387.884 3.874 385.958 5.746 385.958 8.536C385.958 11.29 387.884 13.18 390.836 13.18ZM399.006 13V10.21H396.558V13H399.006ZM408.585 13.18C412.149 13.18 413.643 11.488 413.643 9.652C413.643 7.888 412.455 6.79 410.043 6.358L407.109 5.854C405.687 5.548 405.075 5.206 405.075 4.162C405.075 3.082 405.939 2.542 408.135 2.542C410.637 2.542 411.519 3.28 411.519 4.756V4.99H413.445V4.882C413.445 2.524 411.843 0.76 408.315 0.76C404.571 0.76 403.131 2.524 403.131 4.27C403.131 6.25 404.571 7.186 406.605 7.546L409.557 8.032C411.087 8.32 411.699 8.716 411.699 9.76C411.699 10.894 410.889 11.398 408.585 11.398C405.939 11.398 405.093 10.678 405.093 9.238V8.95H403.149V9.058C403.149 11.596 404.985 13.18 408.585 13.18ZM419.541 13.18C422.223 13.18 424.185 11.668 424.185 9.436V9.238H422.259V9.364C422.259 10.75 421.251 11.434 419.505 11.434C417.489 11.434 416.589 10.462 416.589 8.536C416.589 6.574 417.489 5.62 419.505 5.62C421.251 5.62 422.259 6.304 422.259 7.69V7.798H424.185V7.618C424.185 5.386 422.223 3.874 419.541 3.874C416.589 3.874 414.663 5.746 414.663 8.536C414.663 11.29 416.589 13.18 419.541 13.18ZM430.123 13.18C432.787 13.18 434.659 11.866 434.659 9.958V9.796H432.715V9.94C432.715 11.002 431.941 11.614 430.069 11.614C427.999 11.614 427.153 10.696 427.081 8.968H434.677C434.731 8.698 434.749 8.446 434.749 8.122C434.749 5.404 432.859 3.874 430.087 3.874C427.171 3.874 425.263 5.746 425.263 8.536C425.263 11.524 427.189 13.18 430.123 13.18ZM430.051 5.404C431.959 5.404 432.913 6.196 432.913 7.852V7.888H427.099C427.207 6.286 428.071 5.404 430.051 5.404ZM438.149 13V0.94H436.205V13H438.149ZM444.449 13.18C447.113 13.18 448.985 11.866 448.985 9.958V9.796H447.041V9.94C447.041 11.002 446.267 11.614 444.395 11.614C442.325 11.614 441.479 10.696 441.407 8.968H449.003C449.057 8.698 449.075 8.446 449.075 8.122C449.075 5.404 447.185 3.874 444.413 3.874C441.497 3.874 439.589 5.746 439.589 8.536C439.589 11.524 441.515 13.18 444.449 13.18ZM444.377 5.404C446.285 5.404 447.239 6.196 447.239 7.852V7.888H441.425C441.533 6.286 442.397 5.404 444.377 5.404ZM452.475 13V7.978C452.475 6.376 453.105 5.53 454.635 5.53C455.967 5.53 456.507 6.124 456.507 7.402V8.194H458.433V7.024C458.433 5.332 457.551 3.874 455.517 3.874C453.681 3.874 452.709 5.026 452.439 6.466H452.313V4.054H450.531V13H452.475ZM461.598 3.01V0.94H459.654V3.01H461.598ZM461.598 13V4.054H459.654V13H461.598ZM467.628 13.18C470.148 13.18 471.804 12.19 471.804 10.516C471.804 9.04 470.832 8.32 468.708 8.05L466.638 7.762C465.288 7.582 464.928 7.33 464.928 6.628C464.928 5.782 465.504 5.422 467.142 5.422C469.122 5.422 469.662 5.98 469.662 7.042V7.15H471.588V7.096C471.588 4.972 469.932 3.874 467.196 3.874C464.442 3.874 463.02 4.99 463.02 6.556C463.02 8.05 464.046 8.77 465.738 8.986L468.186 9.31C469.464 9.49 469.896 9.724 469.896 10.462C469.896 11.254 469.374 11.614 467.628 11.614C465.756 11.614 465.054 11.236 465.054 10.066V9.922H463.11V9.976C463.11 12.046 464.748 13.18 467.628 13.18ZM477.077 13.18C479.093 13.18 480.389 12.118 480.767 10.48H480.821V16.06H482.765V4.054H480.983V6.538H480.821C480.461 4.882 479.201 3.874 477.095 3.874C474.323 3.874 472.757 5.764 472.757 8.536C472.757 11.308 474.305 13.18 477.077 13.18ZM474.719 8.536C474.719 6.376 475.835 5.656 477.707 5.656C479.705 5.656 480.821 6.592 480.821 8.518V8.68C480.821 10.516 479.651 11.416 477.743 11.416C475.817 11.416 474.719 10.678 474.719 8.536ZM488.288 13.18C490.592 13.18 491.78 11.74 492.068 10.228H492.176V13H493.958V4.054H492.032V8.482C492.032 10.426 491.114 11.434 489.134 11.434C487.244 11.434 486.47 10.588 486.47 8.914V4.054H484.544V9.436C484.544 11.506 485.768 13.18 488.288 13.18ZM500.224 13.18C502.888 13.18 504.76 11.866 504.76 9.958V9.796H502.816V9.94C502.816 11.002 502.042 11.614 500.17 11.614C498.1 11.614 497.254 10.696 497.182 8.968H504.778C504.832 8.698 504.85 8.446 504.85 8.122C504.85 5.404 502.96 3.874 500.188 3.874C497.272 3.874 495.364 5.746 495.364 8.536C495.364 11.524 497.29 13.18 500.224 13.18ZM500.152 5.404C502.06 5.404 503.014 6.196 503.014 7.852V7.888H497.2C497.308 6.286 498.172 5.404 500.152 5.404ZM510.642 13L512.028 9.868H518.4L519.786 13H521.982L516.6 0.94H513.864L508.482 13H510.642ZM514.44 4.45L515.142 2.74H515.286L515.988 4.45L517.626 8.122H512.802L514.44 4.45ZM524.826 13V0.94H522.882V13H524.826ZM528.571 3.01V0.94H526.627V3.01H528.571ZM528.571 13V4.054H526.627V13H528.571ZM534.241 13.18C536.257 13.18 537.553 12.118 537.931 10.48H537.985V16.06H539.929V4.054H538.147V6.538H537.985C537.625 4.882 536.365 3.874 534.259 3.874C531.487 3.874 529.921 5.764 529.921 8.536C529.921 11.308 531.469 13.18 534.241 13.18ZM531.883 8.536C531.883 6.376 532.999 5.656 534.871 5.656C536.869 5.656 537.985 6.592 537.985 8.518V8.68C537.985 10.516 536.815 11.416 534.907 11.416C532.981 11.416 531.883 10.678 531.883 8.536ZM545.452 13.18C547.756 13.18 548.944 11.74 549.232 10.228H549.34V13H551.122V4.054H549.196V8.482C549.196 10.426 548.278 11.434 546.298 11.434C544.408 11.434 543.634 10.588 543.634 8.914V4.054H541.708V9.436C541.708 11.506 542.932 13.18 545.452 13.18ZM557.388 13.18C560.052 13.18 561.924 11.866 561.924 9.958V9.796H559.98V9.94C559.98 11.002 559.206 11.614 557.334 11.614C555.264 11.614 554.418 10.696 554.346 8.968H561.942C561.996 8.698 562.014 8.446 562.014 8.122C562.014 5.404 560.124 3.874 557.352 3.874C554.436 3.874 552.528 5.746 552.528 8.536C552.528 11.524 554.454 13.18 557.388 13.18ZM557.316 5.404C559.224 5.404 560.178 6.196 560.178 7.852V7.888H554.364C554.472 6.286 555.336 5.404 557.316 5.404ZM569.338 13V11.254H567.718C566.602 11.254 566.098 10.966 566.098 9.868V5.674H569.338V4.054H566.098V2.092H564.172V4.054H562.66V5.674H564.172V9.976C564.172 12.154 565.36 13 567.286 13H569.338ZM2.844 41V36.158H10.224V34.43H2.844V30.686H10.494V28.94H0.9V41H2.844ZM14.5671 41.18C16.6011 41.18 18.0231 40.28 18.4911 38.768H18.6171V41H20.3991V35.564C20.3991 33.422 19.1211 31.874 16.2771 31.874C13.4331 31.874 11.7411 33.404 11.7411 35.438V35.51H13.6671V35.438C13.6671 34.124 14.4771 33.584 16.1331 33.584C17.8431 33.584 18.4911 34.106 18.4911 35.582V36.104L14.4231 36.536C12.6591 36.734 11.5431 37.454 11.5431 38.84C11.5431 40.316 12.7131 41.18 14.5671 41.18ZM13.4871 38.714C13.4871 38.012 13.9731 37.778 14.9811 37.652L18.4911 37.256C18.4911 39.02 17.1231 39.776 15.0891 39.776C13.9731 39.776 13.4871 39.434 13.4871 38.714ZM25.8604 41.18C28.1644 41.18 29.3524 39.74 29.6404 38.228H29.7484V41H31.5304V32.054H29.6044V36.482C29.6044 38.426 28.6864 39.434 26.7064 39.434C24.8164 39.434 24.0424 38.588 24.0424 36.914V32.054H22.1164V37.436C22.1164 39.506 23.3404 41.18 25.8604 41.18ZM37.8145 41.18C40.4965 41.18 42.4585 39.668 42.4585 37.436V37.238H40.5325V37.364C40.5325 38.75 39.5245 39.434 37.7785 39.434C35.7625 39.434 34.8625 38.462 34.8625 36.536C34.8625 34.574 35.7625 33.62 37.7785 33.62C39.5245 33.62 40.5325 34.304 40.5325 35.69V35.798H42.4585V35.618C42.4585 33.386 40.4965 31.874 37.8145 31.874C34.8625 31.874 32.9365 33.746 32.9365 36.536C32.9365 39.29 34.8625 41.18 37.8145 41.18ZM45.8401 31.01V28.94H43.8961V31.01H45.8401ZM45.8401 41V32.054H43.8961V41H45.8401ZM49.4222 41V38.426H49.5482C49.9262 40.208 51.2402 41.18 53.2742 41.18C56.1182 41.18 57.6482 39.29 57.6482 36.536C57.6482 33.746 56.1362 31.874 53.3822 31.874C51.2402 31.874 50.0522 32.972 49.6922 34.484H49.5842V28.94H47.6402V41H49.4222ZM49.5842 36.626V36.482C49.5842 34.574 50.6822 33.638 52.6982 33.638C54.6062 33.638 55.7042 34.376 55.7042 36.536C55.7042 38.678 54.6242 39.398 52.6622 39.398C50.7362 39.398 49.5842 38.498 49.5842 36.626ZM62.7217 41.18C65.0257 41.18 66.2137 39.74 66.5017 38.228H66.6097V41H68.3917V32.054H66.4657V36.482C66.4657 38.426 65.5477 39.434 63.5677 39.434C61.6777 39.434 60.9037 38.588 60.9037 36.914V32.054H58.9777V37.436C58.9777 39.506 60.2017 41.18 62.7217 41.18ZM74.3878 41.18C76.9078 41.18 78.5638 40.19 78.5638 38.516C78.5638 37.04 77.5918 36.32 75.4678 36.05L73.3978 35.762C72.0478 35.582 71.6878 35.33 71.6878 34.628C71.6878 33.782 72.2638 33.422 73.9018 33.422C75.8818 33.422 76.4218 33.98 76.4218 35.042V35.15H78.3478V35.096C78.3478 32.972 76.6918 31.874 73.9558 31.874C71.2018 31.874 69.7798 32.99 69.7798 34.556C69.7798 36.05 70.8058 36.77 72.4978 36.986L74.9458 37.31C76.2238 37.49 76.6558 37.724 76.6558 38.462C76.6558 39.254 76.1338 39.614 74.3878 39.614C72.5158 39.614 71.8138 39.236 71.8138 38.066V37.922H69.8698V37.976C69.8698 40.046 71.5078 41.18 74.3878 41.18ZM89.0366 41V30.686H93.7706V28.94H82.3586V30.686H87.1106V41H89.0366ZM96.8518 31.01V28.94H94.9078V31.01H96.8518ZM96.8518 41V32.054H94.9078V41H96.8518ZM100.596 41V36.572C100.596 34.628 101.478 33.62 103.44 33.62C105.294 33.62 106.05 34.466 106.05 36.14V41H107.994V35.618C107.994 33.548 106.77 31.874 104.286 31.874C102.018 31.874 100.83 33.314 100.56 34.826H100.434V32.054H98.652V41H100.596ZM114.244 41.18C116.926 41.18 118.888 39.668 118.888 37.436V37.238H116.962V37.364C116.962 38.75 115.954 39.434 114.208 39.434C112.192 39.434 111.292 38.462 111.292 36.536C111.292 34.574 112.192 33.62 114.208 33.62C115.954 33.62 116.962 34.304 116.962 35.69V35.798H118.888V35.618C118.888 33.386 116.926 31.874 114.244 31.874C111.292 31.874 109.366 33.746 109.366 36.536C109.366 39.29 111.292 41.18 114.244 41.18ZM122.27 31.01V28.94H120.326V31.01H122.27ZM122.27 41V32.054H120.326V41H122.27ZM128.012 41.18C130.028 41.18 131.342 40.208 131.72 38.426H131.846V41H133.628V28.94H131.684V34.484H131.576C131.216 32.972 130.01 31.874 127.886 31.874C125.168 31.874 123.62 33.746 123.62 36.536C123.62 39.29 125.186 41.18 128.012 41.18ZM125.582 36.536C125.582 34.376 126.698 33.638 128.57 33.638C130.568 33.638 131.684 34.574 131.684 36.482V36.626C131.684 38.498 130.514 39.398 128.606 39.398C126.68 39.398 125.582 38.678 125.582 36.536ZM139.151 41.18C141.455 41.18 142.643 39.74 142.931 38.228H143.039V41H144.821V32.054H142.895V36.482C142.895 38.426 141.977 39.434 139.997 39.434C138.107 39.434 137.333 38.588 137.333 36.914V32.054H135.407V37.436C135.407 39.506 136.631 41.18 139.151 41.18ZM148.532 41V36.572C148.532 34.628 149.414 33.62 151.376 33.62C153.23 33.62 153.986 34.466 153.986 36.14V41H155.93V35.618C155.93 33.548 154.706 31.874 152.222 31.874C149.954 31.874 148.766 33.314 148.496 34.826H148.37V32.054H146.588V41H148.532ZM163.53 41V39.254H161.91C160.794 39.254 160.29 38.966 160.29 37.868V33.674H163.53V32.054H160.29V30.092H158.364V32.054H156.852V33.674H158.364V37.976C158.364 40.154 159.552 41 161.478 41H163.53ZM177.47 41V39.254H169.766V35.798H177.2V34.07H169.766V30.686H177.47V28.94H167.822V41H177.47ZM182.71 41.18C185.014 41.18 186.202 39.74 186.49 38.228H186.598V41H188.38V32.054H186.454V36.482C186.454 38.426 185.536 39.434 183.556 39.434C181.666 39.434 180.892 38.588 180.892 36.914V32.054H178.966V37.436C178.966 39.506 180.19 41.18 182.71 41.18ZM194.482 41L195.868 37.868H202.24L203.626 41H205.822L200.44 28.94H197.704L192.322 41H194.482ZM198.28 32.45L198.982 30.74H199.126L199.828 32.45L201.466 36.122H196.642L198.28 32.45ZM210.664 41.18C212.68 41.18 213.994 40.208 214.372 38.426H214.498V41H216.28V28.94H214.336V34.484H214.228C213.868 32.972 212.662 31.874 210.538 31.874C207.82 31.874 206.272 33.746 206.272 36.536C206.272 39.29 207.838 41.18 210.664 41.18ZM208.234 36.536C208.234 34.376 209.35 33.638 211.222 33.638C213.22 33.638 214.336 34.574 214.336 36.482V36.626C214.336 38.498 213.166 39.398 211.258 39.398C209.332 39.398 208.234 38.678 208.234 36.536ZM220.022 31.01V28.94H218.078V31.01H220.022ZM220.022 41V32.054H218.078V41H220.022ZM223.766 44.06V38.48H223.838C224.198 40.118 225.494 41.18 227.51 41.18C230.3 41.18 231.83 39.308 231.83 36.536C231.83 33.764 230.264 31.874 227.492 31.874C225.386 31.874 224.126 32.882 223.766 34.538H223.604V32.054H221.822V44.06H223.766ZM223.766 36.68V36.518C223.766 34.592 224.882 33.656 226.88 33.656C228.752 33.656 229.886 34.376 229.886 36.536C229.886 38.678 228.77 39.416 226.844 39.416C224.936 39.416 223.766 38.516 223.766 36.68ZM235.121 31.01V28.94H233.177V31.01H235.121ZM235.121 41V32.054H233.177V41H235.121ZM241.151 41.18C243.671 41.18 245.327 40.19 245.327 38.516C245.327 37.04 244.355 36.32 242.231 36.05L240.161 35.762C238.811 35.582 238.451 35.33 238.451 34.628C238.451 33.782 239.027 33.422 240.665 33.422C242.645 33.422 243.185 33.98 243.185 35.042V35.15H245.111V35.096C245.111 32.972 243.455 31.874 240.719 31.874C237.965 31.874 236.543 32.99 236.543 34.556C236.543 36.05 237.569 36.77 239.261 36.986L241.709 37.31C242.987 37.49 243.419 37.724 243.419 38.462C243.419 39.254 242.897 39.614 241.151 39.614C239.279 39.614 238.577 39.236 238.577 38.066V37.922H236.633V37.976C236.633 40.046 238.271 41.18 241.151 41.18ZM251.248 41.18C253.93 41.18 255.892 39.668 255.892 37.436V37.238H253.966V37.364C253.966 38.75 252.958 39.434 251.212 39.434C249.196 39.434 248.296 38.462 248.296 36.536C248.296 34.574 249.196 33.62 251.212 33.62C252.958 33.62 253.966 34.304 253.966 35.69V35.798H255.892V35.618C255.892 33.386 253.93 31.874 251.248 31.874C248.296 31.874 246.37 33.746 246.37 36.536C246.37 39.29 248.296 41.18 251.248 41.18ZM259.274 31.01V28.94H257.33V31.01H259.274ZM259.274 41V32.054H257.33V41H259.274ZM263.018 41V36.572C263.018 34.628 263.9 33.62 265.862 33.62C267.716 33.62 268.472 34.466 268.472 36.14V41H270.416V35.618C270.416 33.548 269.192 31.874 266.708 31.874C264.44 31.874 263.252 33.314 262.982 34.826H262.856V32.054H261.074V41H263.018ZM276.036 40.19C278.07 40.19 279.276 39.218 279.6 37.868H279.726V40.064C279.726 42.062 278.988 42.62 276.954 42.62C275.046 42.62 274.29 42.134 274.29 40.838H272.364C272.364 42.998 274.2 44.24 276.846 44.24C279.78 44.24 281.652 42.962 281.652 39.956V32.054H279.87V34.286H279.762C279.438 32.72 278.034 31.874 276.162 31.874C273.444 31.874 271.788 33.548 271.788 36.032C271.788 38.516 273.372 40.19 276.036 40.19ZM273.75 36.032C273.75 34.196 274.848 33.566 276.72 33.566C278.61 33.566 279.726 34.34 279.726 35.852V36.104C279.726 37.688 278.646 38.516 276.666 38.516C274.83 38.516 273.75 37.868 273.75 36.032ZM291.585 41.18C295.149 41.18 296.643 39.488 296.643 37.652C296.643 35.888 295.455 34.79 293.043 34.358L290.109 33.854C288.687 33.548 288.075 33.206 288.075 32.162C288.075 31.082 288.939 30.542 291.135 30.542C293.637 30.542 294.519 31.28 294.519 32.756V32.99H296.445V32.882C296.445 30.524 294.843 28.76 291.315 28.76C287.571 28.76 286.131 30.524 286.131 32.27C286.131 34.25 287.571 35.186 289.605 35.546L292.557 36.032C294.087 36.32 294.699 36.716 294.699 37.76C294.699 38.894 293.889 39.398 291.585 39.398C288.939 39.398 288.093 38.678 288.093 37.238V36.95H286.149V37.058C286.149 39.596 287.985 41.18 291.585 41.18ZM302.595 41.18C305.583 41.18 307.581 39.29 307.581 36.536C307.581 33.746 305.583 31.874 302.595 31.874C299.625 31.874 297.627 33.746 297.627 36.536C297.627 39.29 299.625 41.18 302.595 41.18ZM302.595 39.452C300.435 39.452 299.535 38.426 299.535 36.536C299.535 34.628 300.435 33.584 302.595 33.584C304.773 33.584 305.673 34.628 305.673 36.536C305.673 38.426 304.773 39.452 302.595 39.452ZM313.51 41.18C316.192 41.18 318.154 39.668 318.154 37.436V37.238H316.228V37.364C316.228 38.75 315.22 39.434 313.474 39.434C311.458 39.434 310.558 38.462 310.558 36.536C310.558 34.574 311.458 33.62 313.474 33.62C315.22 33.62 316.228 34.304 316.228 35.69V35.798H318.154V35.618C318.154 33.386 316.192 31.874 313.51 31.874C310.558 31.874 308.632 33.746 308.632 36.536C308.632 39.29 310.558 41.18 313.51 41.18ZM321.535 31.01V28.94H319.591V31.01H321.535ZM321.535 41V32.054H319.591V41H321.535ZM325.28 31.01V28.94H323.336V31.01H325.28ZM325.28 41V32.054H323.336V41H325.28ZM331.31 41.18C333.83 41.18 335.486 40.19 335.486 38.516C335.486 37.04 334.514 36.32 332.39 36.05L330.32 35.762C328.97 35.582 328.61 35.33 328.61 34.628C328.61 33.782 329.186 33.422 330.824 33.422C332.804 33.422 333.344 33.98 333.344 35.042V35.15H335.27V35.096C335.27 32.972 333.614 31.874 330.878 31.874C328.124 31.874 326.702 32.99 326.702 34.556C326.702 36.05 327.728 36.77 329.42 36.986L331.868 37.31C333.146 37.49 333.578 37.724 333.578 38.462C333.578 39.254 333.056 39.614 331.31 39.614C329.438 39.614 328.736 39.236 328.736 38.066V37.922H326.792V37.976C326.792 40.046 328.43 41.18 331.31 41.18ZM341.224 41L342.61 37.868H348.982L350.368 41H352.564L347.182 28.94H344.446L339.064 41H341.224ZM345.022 32.45L345.724 30.74H345.868L346.57 32.45L348.208 36.122H343.384L345.022 32.45ZM355.408 41V35.978C355.408 34.376 356.038 33.53 357.568 33.53C358.9 33.53 359.44 34.124 359.44 35.402V36.194H361.366V35.024C361.366 33.332 360.484 31.874 358.45 31.874C356.614 31.874 355.642 33.026 355.372 34.466H355.246V32.054H353.464V41H355.408ZM367.106 41.18C369.788 41.18 371.75 39.668 371.75 37.436V37.238H369.824V37.364C369.824 38.75 368.816 39.434 367.07 39.434C365.054 39.434 364.154 38.462 364.154 36.536C364.154 34.574 365.054 33.62 367.07 33.62C368.816 33.62 369.824 34.304 369.824 35.69V35.798H371.75V35.618C371.75 33.386 369.788 31.874 367.106 31.874C364.154 31.874 362.228 33.746 362.228 36.536C362.228 39.29 364.154 41.18 367.106 41.18ZM376.913 41.18C379.217 41.18 380.405 39.74 380.693 38.228H380.801V41H382.583V32.054H380.657V36.482C380.657 38.426 379.739 39.434 377.759 39.434C375.869 39.434 375.095 38.588 375.095 36.914V32.054H373.169V37.436C373.169 39.506 374.393 41.18 376.913 41.18ZM396.803 41V39.254H389.369V28.94H387.425V41H396.803ZM402.632 41.18C405.62 41.18 407.618 39.29 407.618 36.536C407.618 33.746 405.62 31.874 402.632 31.874C399.662 31.874 397.664 33.746 397.664 36.536C397.664 39.29 399.662 41.18 402.632 41.18ZM402.632 39.452C400.472 39.452 399.572 38.426 399.572 36.536C399.572 34.628 400.472 33.584 402.632 33.584C404.81 33.584 405.71 34.628 405.71 36.536C405.71 38.426 404.81 39.452 402.632 39.452ZM410.973 41V35.978C410.973 34.376 411.603 33.53 413.133 33.53C414.465 33.53 415.005 34.124 415.005 35.402V36.194H416.931V35.024C416.931 33.332 416.049 31.874 414.015 31.874C412.179 31.874 411.207 33.026 410.937 34.466H410.811V32.054H409.029V41H410.973ZM422.652 41.18C425.316 41.18 427.188 39.866 427.188 37.958V37.796H425.244V37.94C425.244 39.002 424.47 39.614 422.598 39.614C420.528 39.614 419.682 38.696 419.61 36.968H427.206C427.26 36.698 427.278 36.446 427.278 36.122C427.278 33.404 425.388 31.874 422.616 31.874C419.7 31.874 417.792 33.746 417.792 36.536C417.792 39.524 419.718 41.18 422.652 41.18ZM422.58 33.404C424.488 33.404 425.442 34.196 425.442 35.852V35.888H419.628C419.736 34.286 420.6 33.404 422.58 33.404ZM430.678 41V36.572C430.678 34.592 431.344 33.62 433.27 33.62C434.998 33.62 435.682 34.376 435.682 36.14V41H437.608V36.572C437.608 34.592 438.292 33.62 440.2 33.62C441.928 33.62 442.63 34.376 442.63 36.14V41H444.556V35.618C444.556 33.458 443.386 31.874 441.064 31.874C438.796 31.874 437.788 33.296 437.554 34.826H437.446C437.194 33.116 436.096 31.874 434.062 31.874C431.83 31.874 430.858 33.26 430.624 34.754H430.516V32.054H428.734V41H430.678ZM451.315 41V37.364H455.275C457.957 37.364 459.793 35.816 459.793 33.152C459.793 30.47 457.957 28.94 455.275 28.94H449.371V41H451.315ZM455.095 30.686C456.913 30.686 457.849 31.37 457.849 33.152C457.849 34.934 456.913 35.618 455.095 35.618H451.315V30.686H455.095ZM465.527 41.18C468.515 41.18 470.513 39.29 470.513 36.536C470.513 33.746 468.515 31.874 465.527 31.874C462.557 31.874 460.559 33.746 460.559 36.536C460.559 39.29 462.557 41.18 465.527 41.18ZM465.527 39.452C463.367 39.452 462.467 38.426 462.467 36.536C462.467 34.628 463.367 33.584 465.527 33.584C467.705 33.584 468.605 34.628 468.605 36.536C468.605 38.426 467.705 39.452 465.527 39.452ZM473.867 41V35.978C473.867 34.376 474.497 33.53 476.027 33.53C477.359 33.53 477.899 34.124 477.899 35.402V36.194H479.825V35.024C479.825 33.332 478.943 31.874 476.909 31.874C475.073 31.874 474.101 33.026 473.831 34.466H473.705V32.054H471.923V41H473.867ZM486.914 41V39.254H485.294C484.178 39.254 483.674 38.966 483.674 37.868V33.674H486.914V32.054H483.674V30.092H481.748V32.054H480.236V33.674H481.748V37.976C481.748 40.154 482.936 41 484.862 41H486.914ZM493.998 41V39.254H492.378C491.262 39.254 490.758 38.966 490.758 37.868V33.674H493.998V32.054H490.758V30.092H488.832V32.054H487.32V33.674H488.832V37.976C488.832 40.154 490.02 41 491.946 41H493.998ZM497.158 31.01V28.94H495.214V31.01H497.158ZM497.158 41V32.054H495.214V41H497.158ZM504.827 41V39.254H503.207C502.091 39.254 501.587 38.966 501.587 37.868V33.674H504.827V32.054H501.587V30.092H499.661V32.054H498.149V33.674H499.661V37.976C499.661 40.154 500.849 41 502.775 41H504.827ZM510.615 41.18C513.603 41.18 515.601 39.29 515.601 36.536C515.601 33.746 513.603 31.874 510.615 31.874C507.645 31.874 505.647 33.746 505.647 36.536C505.647 39.29 507.645 41.18 510.615 41.18ZM510.615 39.452C508.455 39.452 507.555 38.426 507.555 36.536C507.555 34.628 508.455 33.584 510.615 33.584C512.793 33.584 513.693 34.628 513.693 36.536C513.693 38.426 512.793 39.452 510.615 39.452ZM518.955 41V35.978C518.955 34.376 519.585 33.53 521.115 33.53C522.447 33.53 522.987 34.124 522.987 35.402V36.194H524.913V35.024C524.913 33.332 524.031 31.874 521.997 31.874C520.161 31.874 519.189 33.026 518.919 34.466H518.793V32.054H517.011V41H518.955ZM528.222 41V38.21H525.774V41H528.222Z" fill="black"/>
</svg>
