<svg width="1183" height="407" viewBox="0 0 1183 407" fill="none" xmlns="http://www.w3.org/2000/svg">
<mask id="path-1-inside-1_101_431" fill="white">
<path d="M0 302.709H1090V406.709H0V302.709Z"/>
</mask>
<path d="M0 303.709H1090V301.709H0V303.709Z" fill="url(#paint0_linear_101_431)" mask="url(#path-1-inside-1_101_431)"/>
<path d="M375.016 359.869C378.056 359.869 380.152 358.269 380.152 355.693V355.485H378.248V355.693C378.248 357.341 377.208 358.205 375.032 358.205C372.52 358.205 371.304 357.021 371.304 354.349C371.304 351.677 372.52 350.477 375.032 350.477C377.208 350.477 378.248 351.357 378.248 352.989V353.213H380.152V352.989C380.152 350.429 378.04 348.829 375.016 348.829C371.688 348.829 369.48 351.005 369.48 354.349C369.48 357.693 371.688 359.869 375.016 359.869ZM385.489 359.869C388.145 359.869 389.921 358.189 389.921 355.741C389.921 353.261 388.145 351.597 385.489 351.597C382.849 351.597 381.073 353.261 381.073 355.741C381.073 358.189 382.849 359.869 385.489 359.869ZM385.489 358.333C383.569 358.333 382.769 357.421 382.769 355.741C382.769 354.045 383.569 353.117 385.489 353.117C387.425 353.117 388.225 354.045 388.225 355.741C388.225 357.421 387.425 358.333 385.489 358.333ZM392.903 362.429V357.469H392.967C393.287 358.925 394.439 359.869 396.231 359.869C398.711 359.869 400.071 358.205 400.071 355.741C400.071 353.277 398.679 351.597 396.215 351.597C394.343 351.597 393.223 352.493 392.903 353.965H392.759V351.757H391.175V362.429H392.903ZM392.903 355.869V355.725C392.903 354.013 393.895 353.181 395.671 353.181C397.335 353.181 398.343 353.821 398.343 355.741C398.343 357.645 397.351 358.301 395.639 358.301C393.943 358.301 392.903 357.501 392.903 355.869ZM402.549 362.429C404.181 362.429 405.077 361.997 405.733 360.573L409.877 351.757H407.973L406.101 355.965L405.349 357.885H405.221L404.437 355.981L402.405 351.757H400.469L404.389 359.709L404.197 360.125C403.957 360.669 403.669 360.861 402.965 360.861H401.413V362.429H402.549ZM412.45 359.709V355.245C412.45 353.821 413.01 353.069 414.37 353.069C415.554 353.069 416.034 353.597 416.034 354.733V355.437H417.746V354.397C417.746 352.893 416.962 351.597 415.154 351.597C413.522 351.597 412.658 352.621 412.418 353.901H412.306V351.757H410.722V359.709H412.45ZM420.559 350.829V348.989H418.831V350.829H420.559ZM420.559 359.709V351.757H418.831V359.709H420.559ZM425.615 358.989C427.423 358.989 428.495 358.125 428.783 356.925H428.895V358.877C428.895 360.653 428.239 361.149 426.431 361.149C424.735 361.149 424.063 360.717 424.063 359.565H422.351C422.351 361.485 423.983 362.589 426.335 362.589C428.943 362.589 430.607 361.453 430.607 358.781V351.757H429.023V353.741H428.927C428.639 352.349 427.391 351.597 425.727 351.597C423.311 351.597 421.839 353.085 421.839 355.293C421.839 357.501 423.247 358.989 425.615 358.989ZM423.583 355.293C423.583 353.661 424.559 353.101 426.223 353.101C427.903 353.101 428.895 353.789 428.895 355.133V355.357C428.895 356.765 427.935 357.501 426.175 357.501C424.543 357.501 423.583 356.925 423.583 355.293ZM433.934 359.709V355.853C433.934 354.173 434.606 353.149 436.494 353.149C438.142 353.149 438.862 353.789 438.862 355.389V359.709H440.574V354.973C440.574 353.037 439.502 351.597 437.31 351.597C435.278 351.597 434.302 352.845 434.03 354.189H433.934V348.989H432.206V359.709H433.934ZM447.344 359.709V358.157H445.904C444.912 358.157 444.464 357.901 444.464 356.925V353.197H447.344V351.757H444.464V350.013H442.752V351.757H441.408V353.197H442.752V357.021C442.752 358.957 443.808 359.709 445.52 359.709H447.344ZM459.879 359.709V358.157H455.287L452.695 358.333C452.695 357.117 453.191 356.605 454.631 356.109L456.887 355.421C458.775 354.845 459.911 353.917 459.911 352.157C459.911 350.269 458.631 348.829 455.591 348.829C452.247 348.829 450.887 350.621 450.887 352.605V352.765H452.583V352.573C452.583 351.165 453.383 350.413 455.527 350.413C457.447 350.413 458.183 350.989 458.183 352.125C458.183 353.069 457.735 353.501 456.455 353.965L453.895 354.845C451.687 355.597 450.903 356.589 450.903 358.573V359.709H459.879ZM466.023 359.869C469.255 359.869 471.175 357.757 471.175 354.349C471.175 350.957 469.255 348.829 466.023 348.829C462.791 348.829 460.871 350.957 460.871 354.349C460.871 357.757 462.791 359.869 466.023 359.869ZM466.023 358.205C463.735 358.205 462.695 357.021 462.695 354.349C462.695 351.677 463.735 350.493 466.023 350.493C468.311 350.493 469.335 351.677 469.335 354.349C469.335 357.021 468.311 358.205 466.023 358.205ZM481.176 359.709V358.157H476.584L473.992 358.333C473.992 357.117 474.488 356.605 475.928 356.109L478.184 355.421C480.072 354.845 481.208 353.917 481.208 352.157C481.208 350.269 479.928 348.829 476.888 348.829C473.544 348.829 472.184 350.621 472.184 352.605V352.765H473.88V352.573C473.88 351.165 474.68 350.413 476.824 350.413C478.744 350.413 479.48 350.989 479.48 352.125C479.48 353.069 479.032 353.501 477.752 353.965L475.192 354.845C472.984 355.597 472.2 356.589 472.2 358.573V359.709H481.176ZM491.208 359.709V358.157H486.616L484.024 358.333C484.024 357.117 484.52 356.605 485.96 356.109L488.216 355.421C490.104 354.845 491.24 353.917 491.24 352.157C491.24 350.269 489.96 348.829 486.92 348.829C483.576 348.829 482.215 350.621 482.215 352.605V352.765H483.912V352.573C483.912 351.165 484.712 350.413 486.856 350.413C488.776 350.413 489.512 350.989 489.512 352.125C489.512 353.069 489.064 353.501 487.784 353.965L485.224 354.845C483.016 355.597 482.232 356.589 482.232 358.573V359.709H491.208ZM500.213 359.869C503.429 359.869 505.253 358.173 505.253 355.261V348.989H503.525V355.149C503.525 357.309 502.565 358.205 500.213 358.205C497.861 358.205 496.901 357.309 496.901 355.149V348.989H495.189V355.261C495.189 358.173 497.013 359.869 500.213 359.869ZM508.512 350.829V348.989H506.784V350.829H508.512ZM508.512 359.709V351.757H506.784V359.709H508.512ZM512.449 359.709V353.197H515.297V351.757H512.417C512.321 350.605 512.977 350.269 514.241 350.269H515.297V348.989H514.513C512.257 348.989 510.929 350.013 510.737 351.757H509.521V353.197H510.721V359.709H512.449ZM517.981 359.709V355.245C517.981 353.821 518.541 353.069 519.901 353.069C521.085 353.069 521.565 353.597 521.565 354.733V355.437H523.277V354.397C523.277 352.893 522.493 351.597 520.685 351.597C519.053 351.597 518.189 352.621 517.949 353.901H517.837V351.757H516.253V359.709H517.981ZM525.643 362.429C527.275 362.429 528.171 361.997 528.827 360.573L532.97 351.757H531.067L529.195 355.965L528.443 357.885H528.315L527.531 355.981L525.499 351.757H523.562L527.483 359.709L527.291 360.125C527.051 360.669 526.763 360.861 526.059 360.861H524.507V362.429H525.643ZM535.672 359.709V357.229H533.496V359.709H535.672ZM542.172 359.869C545.212 359.869 547.308 358.269 547.308 355.693V355.485H545.404V355.693C545.404 357.341 544.364 358.205 542.188 358.205C539.676 358.205 538.46 357.021 538.46 354.349C538.46 351.677 539.676 350.477 542.188 350.477C544.364 350.477 545.404 351.357 545.404 352.989V353.213H547.308V352.989C547.308 350.429 545.196 348.829 542.172 348.829C538.844 348.829 536.636 351.005 536.636 354.349C536.636 357.693 538.844 359.869 542.172 359.869ZM552.645 359.869C555.301 359.869 557.077 358.189 557.077 355.741C557.077 353.261 555.301 351.597 552.645 351.597C550.005 351.597 548.229 353.261 548.229 355.741C548.229 358.189 550.005 359.869 552.645 359.869ZM552.645 358.333C550.725 358.333 549.925 357.421 549.925 355.741C549.925 354.045 550.725 353.117 552.645 353.117C554.581 353.117 555.381 354.045 555.381 355.741C555.381 357.421 554.581 358.333 552.645 358.333ZM560.059 359.709V355.773C560.059 354.013 560.651 353.149 562.363 353.149C563.899 353.149 564.507 353.821 564.507 355.389V359.709H566.219V355.773C566.219 354.013 566.827 353.149 568.523 353.149C570.059 353.149 570.683 353.821 570.683 355.389V359.709H572.395V354.925C572.395 353.005 571.355 351.597 569.291 351.597C567.275 351.597 566.379 352.861 566.171 354.221H566.075C565.851 352.701 564.875 351.597 563.067 351.597C561.083 351.597 560.219 352.829 560.011 354.157H559.915V351.757H558.331V359.709H560.059ZM577.795 359.709L579.027 356.925H584.691L585.923 359.709H587.875L583.091 348.989H580.659L575.875 359.709H577.795ZM581.171 352.109L581.795 350.589H581.923L582.547 352.109L584.003 355.373H579.715L581.171 352.109ZM590.403 359.709V348.989H588.675V359.709H590.403ZM593.731 359.709V348.989H592.003V359.709H593.731ZM599.794 359.709V355.549H601.762C603.106 355.549 603.602 355.901 604.082 356.749L605.794 359.709H607.778L605.986 356.605C605.602 355.933 605.218 355.453 604.386 355.229V355.117C606.402 355.005 607.57 353.917 607.57 352.141C607.57 350.141 606.066 348.989 603.634 348.989H598.066V359.709H599.794ZM599.794 350.541H603.618C605.058 350.541 605.778 351.069 605.778 352.381C605.778 353.725 605.058 354.221 603.618 354.221H599.794V350.541ZM610.544 350.829V348.989H608.816V350.829H610.544ZM610.544 359.709V351.757H608.816V359.709H610.544ZM615.6 358.989C617.408 358.989 618.48 358.125 618.768 356.925H618.88V358.877C618.88 360.653 618.224 361.149 616.416 361.149C614.72 361.149 614.048 360.717 614.048 359.565H612.336C612.336 361.485 613.968 362.589 616.32 362.589C618.928 362.589 620.592 361.453 620.592 358.781V351.757H619.008V353.741H618.912C618.624 352.349 617.376 351.597 615.712 351.597C613.296 351.597 611.824 353.085 611.824 355.293C611.824 357.501 613.232 358.989 615.6 358.989ZM613.568 355.293C613.568 353.661 614.544 353.101 616.208 353.101C617.888 353.101 618.88 353.789 618.88 355.133V355.357C618.88 356.765 617.92 357.501 616.16 357.501C614.528 357.501 613.568 356.925 613.568 355.293ZM623.919 359.709V355.853C623.919 354.173 624.591 353.149 626.479 353.149C628.127 353.149 628.847 353.789 628.847 355.389V359.709H630.559V354.973C630.559 353.037 629.487 351.597 627.295 351.597C625.263 351.597 624.287 352.845 624.015 354.189H623.919V348.989H622.191V359.709H623.919ZM637.329 359.709V358.157H635.889C634.897 358.157 634.449 357.901 634.449 356.925V353.197H637.329V351.757H634.449V350.013H632.737V351.757H631.393V353.197H632.737V357.021C632.737 358.957 633.793 359.709 635.505 359.709H637.329ZM642.169 359.869C644.409 359.869 645.881 358.989 645.881 357.501C645.881 356.189 645.017 355.549 643.129 355.309L641.289 355.053C640.089 354.893 639.769 354.669 639.769 354.045C639.769 353.293 640.281 352.973 641.737 352.973C643.497 352.973 643.977 353.469 643.977 354.413V354.509H645.689V354.461C645.689 352.573 644.217 351.597 641.785 351.597C639.337 351.597 638.073 352.589 638.073 353.981C638.073 355.309 638.985 355.949 640.489 356.141L642.665 356.429C643.801 356.589 644.185 356.797 644.185 357.453C644.185 358.157 643.721 358.477 642.169 358.477C640.505 358.477 639.881 358.141 639.881 357.101V356.973H638.153V357.021C638.153 358.861 639.609 359.869 642.169 359.869ZM651.591 359.709V355.549H653.559C654.903 355.549 655.399 355.901 655.879 356.749L657.591 359.709H659.575L657.783 356.605C657.399 355.933 657.015 355.453 656.183 355.229V355.117C658.199 355.005 659.367 353.917 659.367 352.141C659.367 350.141 657.863 348.989 655.431 348.989H649.863V359.709H651.591ZM651.591 350.541H655.415C656.855 350.541 657.575 351.069 657.575 352.381C657.575 353.725 656.855 354.221 655.415 354.221H651.591V350.541ZM664.613 359.869C666.981 359.869 668.645 358.701 668.645 357.005V356.861H666.917V356.989C666.917 357.933 666.229 358.477 664.565 358.477C662.725 358.477 661.973 357.661 661.909 356.125H668.661C668.709 355.885 668.725 355.661 668.725 355.373C668.725 352.957 667.045 351.597 664.581 351.597C661.989 351.597 660.293 353.261 660.293 355.741C660.293 358.397 662.005 359.869 664.613 359.869ZM664.549 352.957C666.245 352.957 667.093 353.661 667.093 355.133V355.165H661.924C662.021 353.741 662.789 352.957 664.549 352.957ZM673.779 359.869C676.019 359.869 677.491 358.989 677.491 357.501C677.491 356.189 676.627 355.549 674.739 355.309L672.899 355.053C671.699 354.893 671.379 354.669 671.379 354.045C671.379 353.293 671.891 352.973 673.347 352.973C675.107 352.973 675.587 353.469 675.587 354.413V354.509H677.299V354.461C677.299 352.573 675.827 351.597 673.395 351.597C670.947 351.597 669.683 352.589 669.683 353.981C669.683 355.309 670.595 355.949 672.099 356.141L674.275 356.429C675.411 356.589 675.795 356.797 675.795 357.453C675.795 358.157 675.331 358.477 673.779 358.477C672.115 358.477 671.491 358.141 671.491 357.101V356.973H669.763V357.021C669.763 358.861 671.219 359.869 673.779 359.869ZM682.738 359.869C685.106 359.869 686.77 358.701 686.77 357.005V356.861H685.042V356.989C685.042 357.933 684.354 358.477 682.69 358.477C680.85 358.477 680.098 357.661 680.034 356.125H686.786C686.834 355.885 686.85 355.661 686.85 355.373C686.85 352.957 685.17 351.597 682.706 351.597C680.114 351.597 678.418 353.261 678.418 355.741C678.418 358.397 680.13 359.869 682.738 359.869ZM682.674 352.957C684.37 352.957 685.218 353.661 685.218 355.133V355.165H680.049C680.146 353.741 680.914 352.957 682.674 352.957ZM689.872 359.709V355.245C689.872 353.821 690.432 353.069 691.792 353.069C692.976 353.069 693.456 353.597 693.456 354.733V355.437H695.168V354.397C695.168 352.893 694.384 351.597 692.576 351.597C690.944 351.597 690.08 352.621 689.84 353.901H689.728V351.757H688.144V359.709H689.872ZM701.357 359.709L705.101 351.757H703.229L700.397 358.029H700.269L697.437 351.757H695.533L699.245 359.709H701.357ZM709.988 359.869C712.356 359.869 714.02 358.701 714.02 357.005V356.861H712.292V356.989C712.292 357.933 711.604 358.477 709.94 358.477C708.1 358.477 707.348 357.661 707.284 356.125H714.036C714.084 355.885 714.1 355.661 714.1 355.373C714.1 352.957 712.42 351.597 709.956 351.597C707.364 351.597 705.668 353.261 705.668 355.741C705.668 358.397 707.38 359.869 709.988 359.869ZM709.924 352.957C711.62 352.957 712.468 353.661 712.468 355.133V355.165H707.299C707.396 353.741 708.164 352.957 709.924 352.957ZM718.898 359.869C720.69 359.869 721.858 359.005 722.194 357.421H722.306V359.709H723.89V348.989H722.162V353.917H722.066C721.746 352.573 720.674 351.597 718.786 351.597C716.37 351.597 714.994 353.261 714.994 355.741C714.994 358.189 716.386 359.869 718.898 359.869ZM716.738 355.741C716.738 353.821 717.73 353.165 719.394 353.165C721.17 353.165 722.162 353.997 722.162 355.693V355.821C722.162 357.485 721.122 358.285 719.426 358.285C717.714 358.285 716.738 357.645 716.738 355.741Z" fill="black"/>
<path d="M564.128 76.709V67.541H568.336V65.989H558.192V67.541H562.416V76.709H564.128ZM571.683 76.869C573.491 76.869 574.755 76.069 575.171 74.725H575.283V76.709H576.867V71.877C576.867 69.973 575.731 68.597 573.203 68.597C570.675 68.597 569.171 69.957 569.171 71.765V71.829H570.883V71.765C570.883 70.597 571.603 70.117 573.075 70.117C574.595 70.117 575.171 70.581 575.171 71.893V72.357L571.555 72.741C569.987 72.917 568.995 73.557 568.995 74.789C568.995 76.101 570.035 76.869 571.683 76.869ZM570.723 74.677C570.723 74.053 571.155 73.845 572.051 73.733L575.171 73.381C575.171 74.949 573.955 75.621 572.147 75.621C571.155 75.621 570.723 75.317 570.723 74.677ZM580.137 76.709V73.461H582.409L584.761 76.709H586.793L583.817 72.581L586.809 68.757H584.793L582.409 71.909H580.137V65.989H578.409V76.709H580.137ZM591.659 76.869C594.027 76.869 595.691 75.701 595.691 74.005V73.861H593.963V73.989C593.963 74.933 593.275 75.477 591.611 75.477C589.771 75.477 589.019 74.661 588.955 73.125H595.707C595.755 72.885 595.771 72.661 595.771 72.373C595.771 69.957 594.091 68.597 591.627 68.597C589.035 68.597 587.339 70.261 587.339 72.741C587.339 75.397 589.051 76.869 591.659 76.869ZM591.595 69.957C593.291 69.957 594.139 70.661 594.139 72.133V72.165H588.971C589.067 70.741 589.835 69.957 591.595 69.957ZM605.128 76.709V67.541H609.336V65.989H599.192V67.541H603.416V76.709H605.128ZM614.411 76.869C617.067 76.869 618.843 75.189 618.843 72.741C618.843 70.261 617.067 68.597 614.411 68.597C611.771 68.597 609.995 70.261 609.995 72.741C609.995 75.189 611.771 76.869 614.411 76.869ZM614.411 75.333C612.491 75.333 611.691 74.421 611.691 72.741C611.691 71.045 612.491 70.117 614.411 70.117C616.347 70.117 617.147 71.045 617.147 72.741C617.147 74.421 616.347 75.333 614.411 75.333ZM623.409 76.869C625.457 76.869 626.513 75.589 626.769 74.245H626.865V76.709H628.449V68.757H626.737V72.693C626.737 74.421 625.921 75.317 624.161 75.317C622.481 75.317 621.793 74.565 621.793 73.077V68.757H620.081V73.541C620.081 75.381 621.169 76.869 623.409 76.869ZM631.747 76.709V72.245C631.747 70.821 632.307 70.069 633.667 70.069C634.851 70.069 635.331 70.597 635.331 71.733V72.437H637.043V71.397C637.043 69.893 636.259 68.597 634.451 68.597C632.819 68.597 631.955 69.621 631.715 70.901H631.603V68.757H630.019V76.709H631.747Z" fill="black"/>
<path d="M567.136 118.709V117.157H560.528V107.989H558.8V118.709H567.136ZM569.981 109.829V107.989H568.253V109.829H569.981ZM569.981 118.709V110.757H568.253V118.709H569.981ZM576.685 118.709L580.429 110.757H578.557L575.725 117.029H575.597L572.765 110.757H570.861L574.573 118.709H576.685ZM585.316 118.869C587.684 118.869 589.348 117.701 589.348 116.005V115.861H587.62V115.989C587.62 116.933 586.932 117.477 585.268 117.477C583.428 117.477 582.676 116.661 582.612 115.125H589.364C589.412 114.885 589.428 114.661 589.428 114.373C589.428 111.957 587.748 110.597 585.284 110.597C582.692 110.597 580.996 112.261 580.996 114.741C580.996 117.397 582.708 118.869 585.316 118.869ZM585.252 111.957C586.948 111.957 587.796 112.661 587.796 114.133V114.165H582.628C582.724 112.741 583.492 111.957 585.252 111.957ZM598.672 118.869C601.712 118.869 603.808 117.269 603.808 114.693V114.485H601.904V114.693C601.904 116.341 600.864 117.205 598.688 117.205C596.176 117.205 594.96 116.021 594.96 113.349C594.96 110.677 596.176 109.477 598.688 109.477C600.864 109.477 601.904 110.357 601.904 111.989V112.213H603.808V111.989C603.808 109.429 601.696 107.829 598.672 107.829C595.344 107.829 593.136 110.005 593.136 113.349C593.136 116.693 595.344 118.869 598.672 118.869ZM606.809 118.709V114.853C606.809 113.173 607.481 112.149 609.369 112.149C611.017 112.149 611.737 112.789 611.737 114.389V118.709H613.449V113.973C613.449 112.037 612.377 110.597 610.185 110.597C608.153 110.597 607.177 111.845 606.905 113.189H606.809V107.989H605.081V118.709H606.809ZM617.339 118.869C619.147 118.869 620.411 118.069 620.827 116.725H620.939V118.709H622.523V113.877C622.523 111.973 621.387 110.597 618.859 110.597C616.331 110.597 614.827 111.957 614.827 113.765V113.829H616.539V113.765C616.539 112.597 617.259 112.117 618.731 112.117C620.251 112.117 620.827 112.581 620.827 113.893V114.357L617.211 114.741C615.643 114.917 614.651 115.557 614.651 116.789C614.651 118.101 615.691 118.869 617.339 118.869ZM616.379 116.677C616.379 116.053 616.811 115.845 617.707 115.733L620.827 115.381C620.827 116.949 619.611 117.621 617.803 117.621C616.811 117.621 616.379 117.317 616.379 116.677ZM629.282 118.709V117.157H627.842C626.85 117.157 626.402 116.901 626.402 115.925V112.197H629.282V110.757H626.402V109.013H624.69V110.757H623.346V112.197H624.69V116.021C624.69 117.957 625.746 118.709 627.458 118.709H629.282Z" fill="black"/>
<path d="M560.528 160.709V156.549H562.496C563.84 156.549 564.336 156.901 564.816 157.749L566.528 160.709H568.512L566.72 157.605C566.336 156.933 565.952 156.453 565.12 156.229V156.117C567.136 156.005 568.304 154.917 568.304 153.141C568.304 151.141 566.8 149.989 564.368 149.989H558.8V160.709H560.528ZM560.528 151.541H564.352C565.792 151.541 566.512 152.069 566.512 153.381C566.512 154.725 565.792 155.221 564.352 155.221H560.528V151.541ZM573.55 160.869C575.918 160.869 577.582 159.701 577.582 158.005V157.861H575.854V157.989C575.854 158.933 575.166 159.477 573.502 159.477C571.662 159.477 570.91 158.661 570.846 157.125H577.598C577.646 156.885 577.662 156.661 577.662 156.373C577.662 153.957 575.982 152.597 573.518 152.597C570.926 152.597 569.23 154.261 569.23 156.741C569.23 159.397 570.942 160.869 573.55 160.869ZM573.486 153.957C575.182 153.957 576.03 154.661 576.03 156.133V156.165H570.862C570.958 154.741 571.726 153.957 573.486 153.957ZM584.06 160.709L587.804 152.757H585.932L583.1 159.029H582.972L580.14 152.757H578.236L581.948 160.709H584.06ZM592.691 160.869C595.059 160.869 596.723 159.701 596.723 158.005V157.861H594.995V157.989C594.995 158.933 594.307 159.477 592.643 159.477C590.803 159.477 590.051 158.661 589.987 157.125H596.739C596.787 156.885 596.803 156.661 596.803 156.373C596.803 153.957 595.123 152.597 592.659 152.597C590.067 152.597 588.371 154.261 588.371 156.741C588.371 159.397 590.083 160.869 592.691 160.869ZM592.627 153.957C594.323 153.957 595.171 154.661 595.171 156.133V156.165H590.003C590.099 154.741 590.867 153.957 592.627 153.957ZM599.825 151.829V149.989H598.097V151.829H599.825ZM599.825 160.709V152.757H598.097V160.709H599.825ZM605.233 160.709L606.993 156.133L607.601 154.181H607.729L608.337 156.133L610.081 160.709H612.225L614.641 152.757H612.881L611.553 157.269L611.185 159.317H611.057L610.465 157.109L608.785 152.757H606.577L604.913 157.109L604.321 159.317H604.193L603.825 157.269L602.497 152.757H600.705L603.089 160.709H605.233ZM619.279 160.869C621.519 160.869 622.991 159.989 622.991 158.501C622.991 157.189 622.127 156.549 620.239 156.309L618.399 156.053C617.199 155.893 616.879 155.669 616.879 155.045C616.879 154.293 617.391 153.973 618.847 153.973C620.607 153.973 621.087 154.469 621.087 155.413V155.509H622.799V155.461C622.799 153.573 621.327 152.597 618.895 152.597C616.447 152.597 615.183 153.589 615.183 154.981C615.183 156.309 616.095 156.949 617.599 157.141L619.775 157.429C620.911 157.589 621.295 157.797 621.295 158.453C621.295 159.157 620.831 159.477 619.279 159.477C617.615 159.477 616.991 159.141 616.991 158.101V157.973H615.263V158.021C615.263 159.861 616.719 160.869 619.279 160.869Z" fill="black"/>
<path d="M563.056 31.709V25.245H570.096C574.864 25.245 578.128 22.493 578.128 17.757C578.128 12.989 574.864 10.269 570.096 10.269H559.6V31.709H563.056ZM569.776 13.373C573.008 13.373 574.672 14.589 574.672 17.757C574.672 20.925 573.008 22.141 569.776 22.141H563.056V13.373H569.776ZM583.65 31.709V22.781C583.65 19.933 584.77 18.429 587.49 18.429C589.858 18.429 590.818 19.485 590.818 21.757V23.165H594.242V21.085C594.242 18.077 592.674 15.485 589.058 15.485C585.794 15.485 584.066 17.533 583.586 20.093H583.362V15.805H580.194V31.709H583.65ZM604.541 32.029C609.853 32.029 613.405 28.669 613.405 23.773C613.405 18.813 609.853 15.485 604.541 15.485C599.261 15.485 595.709 18.813 595.709 23.773C595.709 28.669 599.261 32.029 604.541 32.029ZM604.541 28.957C600.701 28.957 599.101 27.133 599.101 23.773C599.101 20.381 600.701 18.525 604.541 18.525C608.413 18.525 610.013 20.381 610.013 23.773C610.013 27.133 608.413 28.957 604.541 28.957ZM622.921 32.029C626.505 32.029 628.841 30.301 629.513 27.133H629.737V31.709H632.905V10.269H629.449V20.125H629.257C628.617 17.437 626.473 15.485 622.697 15.485C617.865 15.485 615.113 18.813 615.113 23.773C615.113 28.669 617.897 32.029 622.921 32.029ZM618.601 23.773C618.601 19.933 620.585 18.621 623.913 18.621C627.465 18.621 629.449 20.285 629.449 23.677V23.933C629.449 27.261 627.369 28.861 623.977 28.861C620.553 28.861 618.601 27.581 618.601 23.773ZM642.724 32.029C646.82 32.029 648.932 29.469 649.444 26.781H649.636V31.709H652.804V15.805H649.38V23.677C649.38 27.133 647.748 28.925 644.228 28.925C640.868 28.925 639.492 27.421 639.492 24.445V15.805H636.068V25.373C636.068 29.053 638.244 32.029 642.724 32.029ZM663.976 32.029C668.744 32.029 672.232 29.341 672.232 25.373V25.021H668.808V25.245C668.808 27.709 667.016 28.925 663.912 28.925C660.328 28.925 658.728 27.197 658.728 23.773C658.728 20.285 660.328 18.589 663.912 18.589C667.016 18.589 668.808 19.805 668.808 22.269V22.461H672.232V22.141C672.232 18.173 668.744 15.485 663.976 15.485C658.728 15.485 655.304 18.813 655.304 23.773C655.304 28.669 658.728 32.029 663.976 32.029ZM685.22 31.709V28.605H682.34C680.356 28.605 679.46 28.093 679.46 26.141V18.685H685.22V15.805H679.46V12.317H676.036V15.805H673.348V18.685H676.036V26.333C676.036 30.205 678.148 31.709 681.572 31.709H685.22Z" fill="black"/>
<path d="M391.128 76.709V67.541H395.336V65.989H385.192V67.541H389.416V76.709H391.128ZM400.347 76.869C402.715 76.869 404.379 75.701 404.379 74.005V73.861H402.651V73.989C402.651 74.933 401.963 75.477 400.299 75.477C398.459 75.477 397.707 74.661 397.643 73.125H404.395C404.443 72.885 404.459 72.661 404.459 72.373C404.459 69.957 402.779 68.597 400.315 68.597C397.723 68.597 396.027 70.261 396.027 72.741C396.027 75.397 397.739 76.869 400.347 76.869ZM400.283 69.957C401.979 69.957 402.827 70.661 402.827 72.133V72.165H397.659C397.755 70.741 398.523 69.957 400.283 69.957ZM407.481 76.709V72.245C407.481 70.821 408.041 70.069 409.401 70.069C410.585 70.069 411.065 70.597 411.065 71.733V72.437H412.777V71.397C412.777 69.893 411.993 68.597 410.185 68.597C408.553 68.597 407.689 69.621 407.449 70.901H407.337V68.757H405.753V76.709H407.481ZM415.591 76.709V72.773C415.591 71.013 416.183 70.149 417.895 70.149C419.431 70.149 420.039 70.821 420.039 72.389V76.709H421.751V72.773C421.751 71.013 422.359 70.149 424.055 70.149C425.591 70.149 426.215 70.821 426.215 72.389V76.709H427.927V71.925C427.927 70.005 426.887 68.597 424.823 68.597C422.807 68.597 421.911 69.861 421.703 71.221H421.607C421.383 69.701 420.407 68.597 418.599 68.597C416.615 68.597 415.751 69.829 415.543 71.157H415.447V68.757H413.863V76.709H415.591ZM433.232 76.869C435.472 76.869 436.944 75.989 436.944 74.501C436.944 73.189 436.08 72.549 434.192 72.309L432.352 72.053C431.152 71.893 430.832 71.669 430.832 71.045C430.832 70.293 431.344 69.973 432.8 69.973C434.56 69.973 435.04 70.469 435.04 71.413V71.509H436.752V71.461C436.752 69.573 435.28 68.597 432.848 68.597C430.4 68.597 429.136 69.589 429.136 70.981C429.136 72.309 430.048 72.949 431.552 73.141L433.728 73.429C434.864 73.589 435.248 73.797 435.248 74.453C435.248 75.157 434.784 75.477 433.232 75.477C431.568 75.477 430.944 75.141 430.944 74.101V73.973H429.216V74.021C429.216 75.861 430.672 76.869 433.232 76.869ZM446.189 76.869C449.581 76.869 451.789 74.693 451.789 71.349C451.789 68.005 449.581 65.829 446.189 65.829C442.829 65.829 440.605 68.005 440.605 71.349C440.605 74.693 442.829 76.869 446.189 76.869ZM446.189 75.205C443.645 75.205 442.429 74.021 442.429 71.349C442.429 68.677 443.645 67.477 446.189 67.477C448.733 67.477 449.965 68.677 449.965 71.349C449.965 74.021 448.733 75.205 446.189 75.205ZM455.402 76.709V70.197H458.25V68.757H455.37C455.274 67.605 455.93 67.269 457.194 67.269H458.25V65.989H457.466C455.21 65.989 453.882 67.013 453.69 68.757H452.474V70.197H453.674V76.709H455.402ZM466.901 76.869C470.117 76.869 471.941 75.173 471.941 72.261V65.989H470.213V72.149C470.213 74.309 469.253 75.205 466.901 75.205C464.549 75.205 463.589 74.309 463.589 72.149V65.989H461.877V72.261C461.877 75.173 463.701 76.869 466.901 76.869ZM477.232 76.869C479.472 76.869 480.944 75.989 480.944 74.501C480.944 73.189 480.08 72.549 478.192 72.309L476.352 72.053C475.152 71.893 474.832 71.669 474.832 71.045C474.832 70.293 475.344 69.973 476.8 69.973C478.56 69.973 479.04 70.469 479.04 71.413V71.509H480.752V71.461C480.752 69.573 479.28 68.597 476.848 68.597C474.4 68.597 473.136 69.589 473.136 70.981C473.136 72.309 474.048 72.949 475.552 73.141L477.728 73.429C478.864 73.589 479.248 73.797 479.248 74.453C479.248 75.157 478.784 75.477 477.232 75.477C475.568 75.477 474.944 75.141 474.944 74.101V73.973H473.216V74.021C473.216 75.861 474.672 76.869 477.232 76.869ZM486.191 76.869C488.559 76.869 490.223 75.701 490.223 74.005V73.861H488.495V73.989C488.495 74.933 487.807 75.477 486.143 75.477C484.303 75.477 483.551 74.661 483.487 73.125H490.239C490.287 72.885 490.303 72.661 490.303 72.373C490.303 69.957 488.623 68.597 486.159 68.597C483.567 68.597 481.871 70.261 481.871 72.741C481.871 75.397 483.583 76.869 486.191 76.869ZM486.127 69.957C487.823 69.957 488.671 70.661 488.671 72.133V72.165H483.503C483.599 70.741 484.367 69.957 486.127 69.957Z" fill="black"/>
<path d="M387.528 118.709V115.477H391.048C393.432 115.477 395.064 114.101 395.064 111.733C395.064 109.349 393.432 107.989 391.048 107.989H385.8V118.709H387.528ZM390.888 109.541C392.504 109.541 393.336 110.149 393.336 111.733C393.336 113.317 392.504 113.925 390.888 113.925H387.528V109.541H390.888ZM397.825 118.709V114.245C397.825 112.821 398.385 112.069 399.745 112.069C400.929 112.069 401.409 112.597 401.409 113.733V114.437H403.121V113.397C403.121 111.893 402.337 110.597 400.529 110.597C398.897 110.597 398.033 111.621 397.793 112.901H397.681V110.757H396.097V118.709H397.825ZM405.934 109.829V107.989H404.206V109.829H405.934ZM405.934 118.709V110.757H404.206V118.709H405.934ZM412.638 118.709L416.382 110.757H414.51L411.678 117.029H411.55L408.718 110.757H406.814L410.526 118.709H412.638ZM419.605 118.869C421.413 118.869 422.677 118.069 423.093 116.725H423.205V118.709H424.789V113.877C424.789 111.973 423.653 110.597 421.125 110.597C418.597 110.597 417.093 111.957 417.093 113.765V113.829H418.805V113.765C418.805 112.597 419.525 112.117 420.997 112.117C422.517 112.117 423.093 112.581 423.093 113.893V114.357L419.477 114.741C417.909 114.917 416.917 115.557 416.917 116.789C416.917 118.101 417.957 118.869 419.605 118.869ZM418.645 116.677C418.645 116.053 419.077 115.845 419.973 115.733L423.093 115.381C423.093 116.949 421.877 117.621 420.069 117.621C419.077 117.621 418.645 117.317 418.645 116.677ZM430.347 118.869C432.731 118.869 434.475 117.525 434.475 115.541V115.365H432.763V115.477C432.763 116.709 431.867 117.317 430.315 117.317C428.523 117.317 427.723 116.453 427.723 114.741C427.723 112.997 428.523 112.149 430.315 112.149C431.867 112.149 432.763 112.757 432.763 113.989V114.085H434.475V113.925C434.475 111.941 432.731 110.597 430.347 110.597C427.723 110.597 426.011 112.261 426.011 114.741C426.011 117.189 427.723 118.869 430.347 118.869ZM437.033 121.429C438.665 121.429 439.561 120.997 440.217 119.573L444.361 110.757H442.457L440.585 114.965L439.833 116.885H439.705L438.921 114.981L436.889 110.757H434.953L438.873 118.709L438.681 119.125C438.441 119.669 438.153 119.861 437.449 119.861H435.897V121.429H437.033ZM449.669 118.709V115.477H453.189C455.573 115.477 457.205 114.101 457.205 111.733C457.205 109.349 455.573 107.989 453.189 107.989H447.941V118.709H449.669ZM453.029 109.541C454.645 109.541 455.477 110.149 455.477 111.733C455.477 113.317 454.645 113.925 453.029 113.925H449.669V109.541H453.029ZM462.302 118.869C464.958 118.869 466.734 117.189 466.734 114.741C466.734 112.261 464.958 110.597 462.302 110.597C459.662 110.597 457.886 112.261 457.886 114.741C457.886 117.189 459.662 118.869 462.302 118.869ZM462.302 117.333C460.382 117.333 459.582 116.421 459.582 114.741C459.582 113.045 460.382 112.117 462.302 112.117C464.238 112.117 465.038 113.045 465.038 114.741C465.038 116.421 464.238 117.333 462.302 117.333ZM469.716 118.709V107.989H467.988V118.709H469.716ZM473.044 109.829V107.989H471.316V109.829H473.044ZM473.044 118.709V110.757H471.316V118.709H473.044ZM478.66 118.869C481.044 118.869 482.788 117.525 482.788 115.541V115.365H481.076V115.477C481.076 116.709 480.18 117.317 478.628 117.317C476.836 117.317 476.036 116.453 476.036 114.741C476.036 112.997 476.836 112.149 478.628 112.149C480.18 112.149 481.076 112.757 481.076 113.989V114.085H482.788V113.925C482.788 111.941 481.044 110.597 478.66 110.597C476.036 110.597 474.324 112.261 474.324 114.741C474.324 117.189 476.036 118.869 478.66 118.869ZM485.346 121.429C486.978 121.429 487.874 120.997 488.53 119.573L492.674 110.757H490.77L488.898 114.965L488.146 116.885H488.018L487.234 114.981L485.202 110.757H483.266L487.186 118.709L486.994 119.125C486.754 119.669 486.466 119.861 485.762 119.861H484.21V121.429H485.346Z" fill="black"/>
<path d="M391.016 160.869C394.056 160.869 396.152 159.269 396.152 156.693V156.485H394.248V156.693C394.248 158.341 393.208 159.205 391.032 159.205C388.52 159.205 387.304 158.021 387.304 155.349C387.304 152.677 388.52 151.477 391.032 151.477C393.208 151.477 394.248 152.357 394.248 153.989V154.213H396.152V153.989C396.152 151.429 394.04 149.829 391.016 149.829C387.688 149.829 385.48 152.005 385.48 155.349C385.48 158.693 387.688 160.869 391.016 160.869ZM401.489 160.869C404.145 160.869 405.921 159.189 405.921 156.741C405.921 154.261 404.145 152.597 401.489 152.597C398.849 152.597 397.073 154.261 397.073 156.741C397.073 159.189 398.849 160.869 401.489 160.869ZM401.489 159.333C399.569 159.333 398.769 158.421 398.769 156.741C398.769 155.045 399.569 154.117 401.489 154.117C403.425 154.117 404.225 155.045 404.225 156.741C404.225 158.421 403.425 159.333 401.489 159.333ZM411.239 160.869C413.895 160.869 415.671 159.189 415.671 156.741C415.671 154.261 413.895 152.597 411.239 152.597C408.599 152.597 406.823 154.261 406.823 156.741C406.823 159.189 408.599 160.869 411.239 160.869ZM411.239 159.333C409.319 159.333 408.519 158.421 408.519 156.741C408.519 155.045 409.319 154.117 411.239 154.117C413.175 154.117 413.975 155.045 413.975 156.741C413.975 158.421 413.175 159.333 411.239 159.333ZM418.653 160.709V157.461H420.925L423.277 160.709H425.309L422.333 156.581L425.325 152.757H423.309L420.925 155.909H418.653V149.989H416.925V160.709H418.653ZM427.903 151.829V149.989H426.175V151.829H427.903ZM427.903 160.709V152.757H426.175V160.709H427.903ZM433.503 160.869C435.871 160.869 437.535 159.701 437.535 158.005V157.861H435.807V157.989C435.807 158.933 435.119 159.477 433.455 159.477C431.615 159.477 430.863 158.661 430.799 157.125H437.551C437.599 156.885 437.615 156.661 437.615 156.373C437.615 153.957 435.935 152.597 433.471 152.597C430.879 152.597 429.183 154.261 429.183 156.741C429.183 159.397 430.895 160.869 433.503 160.869ZM433.439 153.957C435.135 153.957 435.983 154.661 435.983 156.133V156.165H430.815C430.911 154.741 431.679 153.957 433.439 153.957ZM443.372 160.709V157.477H446.892C449.276 157.477 450.908 156.101 450.908 153.733C450.908 151.349 449.276 149.989 446.892 149.989H441.644V160.709H443.372ZM446.732 151.541C448.348 151.541 449.18 152.149 449.18 153.733C449.18 155.317 448.348 155.925 446.732 155.925H443.372V151.541H446.732ZM456.005 160.869C458.661 160.869 460.437 159.189 460.437 156.741C460.437 154.261 458.661 152.597 456.005 152.597C453.365 152.597 451.589 154.261 451.589 156.741C451.589 159.189 453.365 160.869 456.005 160.869ZM456.005 159.333C454.085 159.333 453.285 158.421 453.285 156.741C453.285 155.045 454.085 154.117 456.005 154.117C457.941 154.117 458.741 155.045 458.741 156.741C458.741 158.421 457.941 159.333 456.005 159.333ZM463.419 160.709V149.989H461.691V160.709H463.419ZM466.747 151.829V149.989H465.019V151.829H466.747ZM466.747 160.709V152.757H465.019V160.709H466.747ZM472.363 160.869C474.747 160.869 476.491 159.525 476.491 157.541V157.365H474.779V157.477C474.779 158.709 473.883 159.317 472.331 159.317C470.539 159.317 469.739 158.453 469.739 156.741C469.739 154.997 470.539 154.149 472.331 154.149C473.883 154.149 474.779 154.757 474.779 155.989V156.085H476.491V155.925C476.491 153.941 474.747 152.597 472.363 152.597C469.739 152.597 468.027 154.261 468.027 156.741C468.027 159.189 469.739 160.869 472.363 160.869ZM479.049 163.429C480.681 163.429 481.577 162.997 482.233 161.573L486.377 152.757H484.473L482.601 156.965L481.849 158.885H481.721L480.937 156.981L478.905 152.757H476.969L480.889 160.709L480.697 161.125C480.457 161.669 480.169 161.861 479.465 161.861H477.913V163.429H479.049Z" fill="black"/>
<path d="M403.272 31.709V28.605H390.056V10.269H386.6V31.709H403.272ZM413.506 32.029C418.242 32.029 421.57 29.693 421.57 26.301V26.013H418.114V26.269C418.114 28.157 416.738 29.245 413.41 29.245C409.73 29.245 408.226 27.613 408.098 24.541H421.602C421.698 24.061 421.73 23.613 421.73 23.037C421.73 18.205 418.37 15.485 413.442 15.485C408.258 15.485 404.866 18.813 404.866 23.773C404.866 29.085 408.29 32.029 413.506 32.029ZM413.378 18.205C416.77 18.205 418.466 19.613 418.466 22.557V22.621H408.13C408.322 19.773 409.858 18.205 413.378 18.205ZM431.231 30.269C434.847 30.269 436.991 28.541 437.567 26.141H437.791V30.045C437.791 33.597 436.479 34.589 432.863 34.589C429.471 34.589 428.127 33.725 428.127 31.421H424.703C424.703 35.261 427.967 37.469 432.671 37.469C437.887 37.469 441.215 35.197 441.215 29.853V15.805H438.047V19.773H437.855C437.279 16.989 434.783 15.485 431.455 15.485C426.623 15.485 423.679 18.461 423.679 22.877C423.679 27.293 426.495 30.269 431.231 30.269ZM427.167 22.877C427.167 19.613 429.119 18.493 432.447 18.493C435.807 18.493 437.791 19.869 437.791 22.557V23.005C437.791 25.821 435.871 27.293 432.351 27.293C429.087 27.293 427.167 26.141 427.167 22.877ZM449.085 32.029C452.701 32.029 455.229 30.429 456.061 27.741H456.285V31.709H459.453V22.045C459.453 18.237 457.181 15.485 452.125 15.485C447.069 15.485 444.061 18.205 444.061 21.821V21.949H447.485V21.821C447.485 19.485 448.925 18.525 451.869 18.525C454.909 18.525 456.061 19.453 456.061 22.077V23.005L448.829 23.773C445.693 24.125 443.709 25.405 443.709 27.869C443.709 30.493 445.789 32.029 449.085 32.029ZM447.165 27.645C447.165 26.397 448.029 25.981 449.821 25.757L456.061 25.053C456.061 28.189 453.629 29.533 450.013 29.533C448.029 29.533 447.165 28.925 447.165 27.645ZM465.994 31.709V10.269H462.538V31.709H465.994Z" fill="black"/>
<path d="M243.528 76.709V72.085H249.832V76.709H251.544V65.989H249.832V70.533H243.528V65.989H241.8V76.709H243.528ZM257.223 76.869C259.879 76.869 261.655 75.189 261.655 72.741C261.655 70.261 259.879 68.597 257.223 68.597C254.583 68.597 252.807 70.261 252.807 72.741C252.807 75.189 254.583 76.869 257.223 76.869ZM257.223 75.333C255.303 75.333 254.503 74.421 254.503 72.741C254.503 71.045 255.303 70.117 257.223 70.117C259.159 70.117 259.959 71.045 259.959 72.741C259.959 74.421 259.159 75.333 257.223 75.333ZM264.637 76.709V72.773C264.637 71.013 265.229 70.149 266.941 70.149C268.477 70.149 269.085 70.821 269.085 72.389V76.709H270.797V72.773C270.797 71.013 271.405 70.149 273.101 70.149C274.637 70.149 275.261 70.821 275.261 72.389V76.709H276.973V71.925C276.973 70.005 275.933 68.597 273.869 68.597C271.853 68.597 270.957 69.861 270.749 71.221H270.653C270.429 69.701 269.453 68.597 267.645 68.597C265.661 68.597 264.797 69.829 264.589 71.157H264.493V68.757H262.909V76.709H264.637ZM282.519 76.869C284.887 76.869 286.551 75.701 286.551 74.005V73.861H284.823V73.989C284.823 74.933 284.135 75.477 282.471 75.477C280.631 75.477 279.879 74.661 279.815 73.125H286.567C286.615 72.885 286.631 72.661 286.631 72.373C286.631 69.957 284.951 68.597 282.487 68.597C279.895 68.597 278.199 70.261 278.199 72.741C278.199 75.397 279.911 76.869 282.519 76.869ZM282.455 69.957C284.151 69.957 284.999 70.661 284.999 72.133V72.165H279.831C279.927 70.741 280.695 69.957 282.455 69.957Z" fill="black"/>
<path d="M242.92 118.709L244.152 115.925H249.816L251.048 118.709H253L248.216 107.989H245.784L241 118.709H242.92ZM246.296 111.109L246.92 109.589H247.048L247.672 111.109L249.128 114.373H244.84L246.296 111.109ZM255.384 118.709V116.421H255.496C255.832 118.005 257 118.869 258.808 118.869C261.336 118.869 262.696 117.189 262.696 114.741C262.696 112.261 261.352 110.597 258.904 110.597C257 110.597 255.944 111.573 255.624 112.917H255.528V107.989H253.8V118.709H255.384ZM255.528 114.821V114.693C255.528 112.997 256.504 112.165 258.296 112.165C259.992 112.165 260.968 112.821 260.968 114.741C260.968 116.645 260.008 117.285 258.264 117.285C256.552 117.285 255.528 116.485 255.528 114.821ZM267.958 118.869C270.614 118.869 272.39 117.189 272.39 114.741C272.39 112.261 270.614 110.597 267.958 110.597C265.318 110.597 263.542 112.261 263.542 114.741C263.542 117.189 265.318 118.869 267.958 118.869ZM267.958 117.333C266.038 117.333 265.238 116.421 265.238 114.741C265.238 113.045 266.038 112.117 267.958 112.117C269.894 112.117 270.694 113.045 270.694 114.741C270.694 116.421 269.894 117.333 267.958 117.333ZM276.956 118.869C279.004 118.869 280.06 117.589 280.316 116.245H280.412V118.709H281.996V110.757H280.284V114.693C280.284 116.421 279.468 117.317 277.708 117.317C276.028 117.317 275.34 116.565 275.34 115.077V110.757H273.628V115.541C273.628 117.381 274.716 118.869 276.956 118.869ZM288.782 118.709V117.157H287.342C286.35 117.157 285.902 116.901 285.902 115.925V112.197H288.782V110.757H285.902V109.013H284.19V110.757H282.846V112.197H284.19V116.021C284.19 117.957 285.246 118.709 286.958 118.709H288.782ZM297.557 118.869C300.773 118.869 302.597 117.173 302.597 114.261V107.989H300.869V114.149C300.869 116.309 299.909 117.205 297.557 117.205C295.205 117.205 294.245 116.309 294.245 114.149V107.989H292.533V114.261C292.533 117.173 294.357 118.869 297.557 118.869ZM307.888 118.869C310.128 118.869 311.6 117.989 311.6 116.501C311.6 115.189 310.736 114.549 308.848 114.309L307.008 114.053C305.808 113.893 305.488 113.669 305.488 113.045C305.488 112.293 306 111.973 307.456 111.973C309.216 111.973 309.696 112.469 309.696 113.413V113.509H311.408V113.461C311.408 111.573 309.936 110.597 307.504 110.597C305.056 110.597 303.792 111.589 303.792 112.981C303.792 114.309 304.704 114.949 306.208 115.141L308.384 115.429C309.52 115.589 309.904 115.797 309.904 116.453C309.904 117.157 309.44 117.477 307.888 117.477C306.224 117.477 305.6 117.141 305.6 116.101V115.973H303.872V116.021C303.872 117.861 305.328 118.869 307.888 118.869Z" fill="black"/>
<path d="M247.944 160.709C250.152 160.709 251.384 159.589 251.384 157.749C251.384 156.341 250.488 155.349 248.664 155.141V155.029C250.296 154.837 251 153.893 251 152.629C251 150.933 249.768 149.989 247.72 149.989H241.72V160.709H247.944ZM243.432 151.541H247.528C248.728 151.541 249.288 152.005 249.288 153.013C249.288 154.021 248.68 154.485 247.48 154.485H243.432V151.541ZM243.432 155.909H247.752C249.016 155.909 249.656 156.389 249.656 157.509C249.656 158.677 249.032 159.157 247.752 159.157H243.432V155.909ZM256.567 160.869C259.223 160.869 260.999 159.189 260.999 156.741C260.999 154.261 259.223 152.597 256.567 152.597C253.927 152.597 252.151 154.261 252.151 156.741C252.151 159.189 253.927 160.869 256.567 160.869ZM256.567 159.333C254.647 159.333 253.847 158.421 253.847 156.741C253.847 155.045 254.647 154.117 256.567 154.117C258.503 154.117 259.303 155.045 259.303 156.741C259.303 158.421 258.503 159.333 256.567 159.333ZM266.317 160.869C268.973 160.869 270.749 159.189 270.749 156.741C270.749 154.261 268.973 152.597 266.317 152.597C263.677 152.597 261.901 154.261 261.901 156.741C261.901 159.189 263.677 160.869 266.317 160.869ZM266.317 159.333C264.397 159.333 263.597 158.421 263.597 156.741C263.597 155.045 264.397 154.117 266.317 154.117C268.253 154.117 269.053 155.045 269.053 156.741C269.053 158.421 268.253 159.333 266.317 159.333ZM273.731 160.709V157.461H276.003L278.355 160.709H280.387L277.411 156.581L280.403 152.757H278.387L276.003 155.909H273.731V149.989H272.003V160.709H273.731ZM282.981 151.829V149.989H281.253V151.829H282.981ZM282.981 160.709V152.757H281.253V160.709H282.981ZM286.309 160.709V156.773C286.309 155.045 287.093 154.149 288.837 154.149C290.485 154.149 291.157 154.901 291.157 156.389V160.709H292.885V155.925C292.885 154.085 291.797 152.597 289.589 152.597C287.573 152.597 286.517 153.877 286.277 155.221H286.165V152.757H284.581V160.709H286.309ZM297.881 159.989C299.689 159.989 300.761 159.125 301.049 157.925H301.161V159.877C301.161 161.653 300.505 162.149 298.697 162.149C297.001 162.149 296.329 161.717 296.329 160.565H294.617C294.617 162.485 296.249 163.589 298.601 163.589C301.209 163.589 302.873 162.453 302.873 159.781V152.757H301.289V154.741H301.193C300.905 153.349 299.657 152.597 297.993 152.597C295.577 152.597 294.105 154.085 294.105 156.293C294.105 158.501 295.513 159.989 297.881 159.989ZM295.849 156.293C295.849 154.661 296.825 154.101 298.489 154.101C300.169 154.101 301.161 154.789 301.161 156.133V156.357C301.161 157.765 300.201 158.501 298.441 158.501C296.809 158.501 295.849 157.925 295.849 156.293ZM308.232 160.869C310.472 160.869 311.944 159.989 311.944 158.501C311.944 157.189 311.08 156.549 309.192 156.309L307.352 156.053C306.152 155.893 305.832 155.669 305.832 155.045C305.832 154.293 306.344 153.973 307.8 153.973C309.56 153.973 310.04 154.469 310.04 155.413V155.509H311.752V155.461C311.752 153.573 310.28 152.597 307.848 152.597C305.4 152.597 304.136 153.589 304.136 154.981C304.136 156.309 305.048 156.949 306.552 157.141L308.728 157.429C309.864 157.589 310.248 157.797 310.248 158.453C310.248 159.157 309.784 159.477 308.232 159.477C306.568 159.477 305.944 159.141 305.944 158.101V157.973H304.216V158.021C304.216 159.861 305.672 160.869 308.232 160.869Z" fill="black"/>
<path d="M247.944 202.709C250.152 202.709 251.384 201.589 251.384 199.749C251.384 198.341 250.488 197.349 248.664 197.141V197.029C250.296 196.837 251 195.893 251 194.629C251 192.933 249.768 191.989 247.72 191.989H241.72V202.709H247.944ZM243.432 193.541H247.528C248.728 193.541 249.288 194.005 249.288 195.013C249.288 196.021 248.68 196.485 247.48 196.485H243.432V193.541ZM243.432 197.909H247.752C249.016 197.909 249.656 198.389 249.656 199.509C249.656 200.677 249.032 201.157 247.752 201.157H243.432V197.909ZM254.231 202.709V191.989H252.503V202.709H254.231ZM259.895 202.869C262.551 202.869 264.327 201.189 264.327 198.741C264.327 196.261 262.551 194.597 259.895 194.597C257.255 194.597 255.479 196.261 255.479 198.741C255.479 201.189 257.255 202.869 259.895 202.869ZM259.895 201.333C257.975 201.333 257.175 200.421 257.175 198.741C257.175 197.045 257.975 196.117 259.895 196.117C261.831 196.117 262.631 197.045 262.631 198.741C262.631 200.421 261.831 201.333 259.895 201.333ZM269.037 201.989C270.845 201.989 271.917 201.125 272.205 199.925H272.317V201.877C272.317 203.653 271.661 204.149 269.853 204.149C268.157 204.149 267.485 203.717 267.485 202.565H265.773C265.773 204.485 267.405 205.589 269.757 205.589C272.365 205.589 274.029 204.453 274.029 201.781V194.757H272.445V196.741H272.349C272.061 195.349 270.813 194.597 269.149 194.597C266.733 194.597 265.261 196.085 265.261 198.293C265.261 200.501 266.669 201.989 269.037 201.989ZM267.005 198.293C267.005 196.661 267.981 196.101 269.645 196.101C271.325 196.101 272.317 196.789 272.317 198.133V198.357C272.317 199.765 271.357 200.501 269.597 200.501C267.965 200.501 267.005 199.925 267.005 198.293Z" fill="black"/>
<path d="M256.678 31.709V28.605H243.462V10.269H240.006V31.709H256.678ZM262.369 13.949V10.269H258.913V13.949H262.369ZM262.369 31.709V15.805H258.913V31.709H262.369ZM269.025 31.709V23.837C269.025 20.381 270.593 18.589 274.081 18.589C277.377 18.589 278.721 20.093 278.721 23.069V31.709H282.177V22.141C282.177 18.461 280.001 15.485 275.585 15.485C271.553 15.485 269.441 18.045 268.961 20.733H268.737V15.805H265.569V31.709H269.025ZM288.712 31.709V25.213H293.256L297.96 31.709H302.024L296.072 23.453L302.056 15.805H298.024L293.256 22.109H288.712V10.269H285.256V31.709H288.712ZM311.276 32.029C315.756 32.029 318.7 30.269 318.7 27.293C318.7 24.669 316.972 23.389 313.196 22.909L309.516 22.397C307.116 22.077 306.476 21.629 306.476 20.381C306.476 18.877 307.5 18.237 310.412 18.237C313.932 18.237 314.892 19.229 314.892 21.117V21.309H318.316V21.213C318.316 17.437 315.372 15.485 310.508 15.485C305.612 15.485 303.084 17.469 303.084 20.253C303.084 22.909 304.908 24.189 307.916 24.573L312.268 25.149C314.54 25.469 315.308 25.885 315.308 27.197C315.308 28.605 314.38 29.245 311.276 29.245C307.948 29.245 306.7 28.573 306.7 26.493V26.237H303.244V26.333C303.244 30.013 306.156 32.029 311.276 32.029Z" fill="black"/>
<path d="M109.59 14.709V12.3308H110.681V11.9282H108.05V12.3308H109.146V14.709H109.59ZM111.392 14.709V13.0032L111.375 12.6006H111.408L111.578 13.0032L112.346 14.543H112.886L113.654 13.0032L113.824 12.6006H113.857L113.84 13.0032V14.709H114.289V11.9282H113.678L112.886 13.5386L112.641 14.1155H112.608L112.354 13.5386L111.553 11.9282H110.943V14.709H111.392Z" fill="#262626"/>
<g clip-path="url(#clip0_101_431)">
<path d="M26.3829 11.5942C26.1564 11.3741 25.8387 11.2741 25.5277 11.3253C25.2162 11.3762 24.9472 11.5718 24.8027 11.8524C24.3057 12.8179 23.6745 13.7051 22.9318 14.4895C23.0058 13.9229 23.0431 13.3529 23.0431 12.7814C23.0431 11.6848 22.8961 10.5564 22.6061 9.42704C21.6527 5.71752 19.1525 2.58042 15.7468 0.820189C15.4503 0.66699 15.097 0.672369 14.8053 0.834533C14.5136 0.996764 14.3226 1.2942 14.2964 1.62689C14.0309 4.99794 12.2945 8.06485 9.52981 10.0432C9.49322 10.0696 9.4569 10.0963 9.42057 10.1228C9.34534 10.1779 9.27441 10.23 9.20814 10.2737C9.19778 10.2806 9.18749 10.2876 9.17739 10.2948C7.43861 11.5398 6.00391 13.1992 5.0282 15.0944C4.03675 17.0221 3.53406 19.0907 3.53406 21.2426C3.53406 22.3389 3.68101 23.4673 3.97088 24.5969C5.50055 30.5507 10.8585 34.7089 17.0004 34.7089C24.4253 34.7089 30.4659 28.6679 30.4659 21.2426C30.4659 17.581 29.0159 14.1544 26.3829 11.5942Z" fill="#FF5555"/>
<circle cx="16" cy="20.709" r="4" fill="white"/>
</g>
<path d="M46.5863 28.8389C47.6222 28.8389 48.5386 28.6497 49.3355 28.2712C50.1324 27.8727 50.74 27.2751 51.1583 26.4782V28.4803H55.3419V12.1644H50.8595V21.697C50.8595 22.6333 50.5806 23.3903 50.0228 23.9681C49.465 24.5259 48.7478 24.8048 47.8713 24.8048C46.9947 24.8048 46.2775 24.5259 45.7197 23.9681C45.1619 23.3903 44.883 22.6333 44.883 21.697V12.1644H40.4006V22.0556C40.4006 24.0876 40.9285 25.7311 41.9844 26.9862C43.0601 28.2214 44.5941 28.8389 46.5863 28.8389Z" fill="black"/>
<path d="M58.6181 10.7001H63.1005V6.21772H58.6181V10.7001ZM58.6181 28.4803H63.1005V12.1644H58.6181V28.4803Z" fill="black"/>
<path d="M68.3528 28.4803H72.8352V16.0491H76.3315V12.1644H72.8352V11.9253C72.8352 10.471 73.6819 9.74388 75.3752 9.74388C75.6542 9.74388 75.9829 9.77377 76.3614 9.83353V6.00854C75.9032 5.90894 75.3752 5.85913 74.7776 5.85913C72.7456 5.85913 71.1618 6.38706 70.0262 7.44291C68.9106 8.49877 68.3528 9.99291 68.3528 11.9253V12.1644H65.6036V16.0491H68.3528V28.4803Z" fill="black"/>
<path d="M78.6371 28.4803H83.1195V19.6948C83.1195 18.4796 83.4582 17.5433 84.1355 16.8858C84.8129 16.2085 85.6994 15.8698 86.7951 15.8698H88.1996V11.9851H87.2433C86.2473 11.9851 85.3607 12.1743 84.5838 12.5529C83.8268 12.9114 83.2391 13.5988 82.8207 14.6148V12.1644H78.6371V28.4803Z" fill="black"/>
<path d="M92.7042 35.1143C95.6924 35.1143 97.854 33.411 99.1887 30.0044L106.181 12.1644H101.37L97.5153 22.6532L93.6604 12.1644H88.8493L95.2741 28.4803L94.9753 29.1676C94.7362 29.7055 94.4274 30.1837 94.0489 30.602C93.6704 31.0204 93.0428 31.2295 92.1663 31.2295C91.4491 31.2295 90.7718 31.1299 90.1343 30.9307V34.6063C90.4729 34.7856 90.8614 34.9151 91.2997 34.9948C91.7579 35.0745 92.2261 35.1143 92.7042 35.1143Z" fill="black"/>
<path d="M34.528 68.709V64.085H40.832V68.709H42.544V57.989H40.832V62.533H34.528V57.989H32.8V68.709H34.528ZM48.1594 68.869C50.5274 68.869 52.1914 67.701 52.1914 66.005V65.861H50.4634V65.989C50.4634 66.933 49.7754 67.477 48.1114 67.477C46.2714 67.477 45.5194 66.661 45.4554 65.125H52.2074C52.2554 64.885 52.2714 64.661 52.2714 64.373C52.2714 61.957 50.5914 60.597 48.1274 60.597C45.5354 60.597 43.8394 62.261 43.8394 64.741C43.8394 67.397 45.5514 68.869 48.1594 68.869ZM48.0954 61.957C49.7914 61.957 50.6394 62.661 50.6394 64.133V64.165H45.4714C45.5674 62.741 46.3354 61.957 48.0954 61.957ZM55.2936 68.709V57.989H53.5656V68.709H55.2936ZM58.6218 71.429V66.469H58.6858C59.0058 67.925 60.1578 68.869 61.9498 68.869C64.4298 68.869 65.7898 67.205 65.7898 64.741C65.7898 62.277 64.3978 60.597 61.9338 60.597C60.0618 60.597 58.9418 61.493 58.6218 62.965H58.4778V60.757H56.8938V71.429H58.6218ZM58.6218 64.869V64.725C58.6218 63.013 59.6138 62.181 61.3898 62.181C63.0538 62.181 64.0618 62.821 64.0618 64.741C64.0618 66.645 63.0698 67.301 61.3578 67.301C59.6618 67.301 58.6218 66.501 58.6218 64.869ZM72.5395 68.053C73.9155 68.053 74.6195 67.237 74.8755 66.341H74.9555C75.1475 67.365 75.9315 68.053 77.3235 68.053C79.0515 68.053 80.1715 66.501 80.1715 64.037C80.1715 60.389 77.6275 58.165 73.5795 58.165C69.2115 58.165 66.4275 60.741 66.4275 64.741C66.4275 68.693 68.9395 71.093 72.9555 71.093C74.2515 71.093 75.2115 70.885 76.1075 70.549L75.8195 69.381C75.0195 69.621 74.2035 69.765 73.1155 69.765C69.7235 69.765 67.9795 68.341 67.9795 64.741C67.9795 61.045 69.8035 59.605 73.4995 59.605C77.1475 59.605 78.6995 61.093 78.6995 64.165C78.6995 66.133 78.2995 66.741 77.4355 66.741C76.7955 66.741 76.5235 66.437 76.5235 65.717V61.669H75.0195V63.253H74.9075C74.6675 62.245 73.8675 61.525 72.5715 61.525C70.8755 61.525 69.6595 62.677 69.6595 64.789C69.6595 66.997 70.8915 68.053 72.5395 68.053ZM71.2595 64.789C71.2595 63.349 71.8515 62.757 73.0835 62.757C74.1715 62.757 74.9075 63.349 74.9075 64.597V64.981C74.9075 66.245 74.1715 66.837 73.0835 66.837C71.8515 66.837 71.2595 66.229 71.2595 64.789ZM83.0124 68.709V64.405H89.5724V62.869H83.0124V59.541H89.8124V57.989H81.2844V68.709H83.0124ZM92.8249 68.709V64.245C92.8249 62.821 93.3849 62.069 94.7449 62.069C95.9289 62.069 96.4089 62.597 96.4089 63.733V64.437H98.1209V63.397C98.1209 61.893 97.3369 60.597 95.5289 60.597C93.8969 60.597 93.0329 61.621 92.7929 62.901H92.6809V60.757H91.0969V68.709H92.8249ZM100.486 71.429C102.118 71.429 103.014 70.997 103.67 69.573L107.814 60.757H105.91L104.038 64.965L103.286 66.885H103.158L102.374 64.981L100.342 60.757H98.4062L102.326 68.709L102.134 69.125C101.894 69.669 101.606 69.861 100.902 69.861H99.3503V71.429H100.486ZM110.243 68.709V66.421H110.355C110.691 68.005 111.859 68.869 113.667 68.869C116.195 68.869 117.555 67.189 117.555 64.741C117.555 62.261 116.211 60.597 113.763 60.597C111.859 60.597 110.803 61.573 110.483 62.917H110.387V57.989H108.659V68.709H110.243ZM110.387 64.821V64.693C110.387 62.997 111.363 62.165 113.155 62.165C114.851 62.165 115.827 62.821 115.827 64.741C115.827 66.645 114.867 67.285 113.123 67.285C111.411 67.285 110.387 66.485 110.387 64.821ZM120.481 59.829V57.989H118.753V59.829H120.481ZM120.481 68.709V60.757H118.753V68.709H120.481ZM123.393 68.709L126.001 65.669H126.113L128.753 68.709H130.849L127.425 64.741V64.645L130.849 60.757H128.769L126.161 63.765H126.065L123.425 60.757H121.329L124.753 64.677V64.773L121.329 68.709H123.393ZM133.547 68.709V66.229H131.371V68.709H133.547ZM140.047 68.869C143.087 68.869 145.183 67.269 145.183 64.693V64.485H143.279V64.693C143.279 66.341 142.239 67.205 140.063 67.205C137.551 67.205 136.335 66.021 136.335 63.349C136.335 60.677 137.551 59.477 140.063 59.477C142.239 59.477 143.279 60.357 143.279 61.989V62.213H145.183V61.989C145.183 59.429 143.071 57.829 140.047 57.829C136.719 57.829 134.511 60.005 134.511 63.349C134.511 66.693 136.719 68.869 140.047 68.869ZM150.52 68.869C153.176 68.869 154.952 67.189 154.952 64.741C154.952 62.261 153.176 60.597 150.52 60.597C147.88 60.597 146.104 62.261 146.104 64.741C146.104 67.189 147.88 68.869 150.52 68.869ZM150.52 67.333C148.6 67.333 147.8 66.421 147.8 64.741C147.8 63.045 148.6 62.117 150.52 62.117C152.456 62.117 153.256 63.045 153.256 64.741C153.256 66.421 152.456 67.333 150.52 67.333ZM157.934 68.709V64.773C157.934 63.013 158.526 62.149 160.238 62.149C161.774 62.149 162.382 62.821 162.382 64.389V68.709H164.094V64.773C164.094 63.013 164.702 62.149 166.398 62.149C167.934 62.149 168.558 62.821 168.558 64.389V68.709H170.27V63.925C170.27 62.005 169.23 60.597 167.166 60.597C165.15 60.597 164.254 61.861 164.046 63.221H163.95C163.726 61.701 162.75 60.597 160.942 60.597C158.958 60.597 158.094 61.829 157.886 63.157H157.79V60.757H156.206V68.709H157.934Z" fill="black"/>
<path d="M16.9394 54.709C18.2804 54.709 19.5704 55.239 20.5194 56.19C21.4694 57.139 22.0004 58.419 22.0004 59.759V67.659C22.0004 70.449 19.7304 72.709 16.9394 72.709H7.06043C4.26943 72.709 2.00043 70.449 2.00043 67.659V59.759C2.00043 56.969 4.25943 54.709 7.06043 54.709H16.9394ZM18.0704 59.909C17.8604 59.898 17.6604 59.969 17.5094 60.109L13.0004 63.709C12.4204 64.19 11.5894 64.19 11.0004 63.709L6.50043 60.109C6.18943 59.879 5.75943 59.909 5.50043 60.179C5.23043 60.449 5.20043 60.879 5.42943 61.179L5.56043 61.309L10.1104 64.859C10.6704 65.299 11.3494 65.539 12.0604 65.539C12.7694 65.539 13.4604 65.299 14.0194 64.859L18.5304 61.249L18.6104 61.169C18.8494 60.879 18.8494 60.459 18.5994 60.169C18.4604 60.02 18.2694 59.929 18.0704 59.909Z" fill="#FF5555"/>
<path d="M36.64 108.677V106.069H39.216V104.629H36.64V102.021H35.136V104.629H32.56V106.069H35.136V108.677H36.64ZM44.2933 110.709V99.989H42.7733C42.3093 101.013 41.6373 101.317 40.4533 101.317H39.9413V102.549H42.5653V110.709H44.2933ZM57.3481 110.709V109.157H52.7561L50.1641 109.333C50.1641 108.117 50.6601 107.605 52.1001 107.109L54.3561 106.421C56.2441 105.845 57.3801 104.917 57.3801 103.157C57.3801 101.269 56.1001 99.829 53.0601 99.829C49.7161 99.829 48.3561 101.621 48.3561 103.605V103.765H50.0521V103.573C50.0521 102.165 50.8521 101.413 52.9961 101.413C54.9161 101.413 55.6521 101.989 55.6521 103.125C55.6521 104.069 55.2041 104.501 53.9241 104.965L51.3641 105.845C49.1561 106.597 48.3721 107.589 48.3721 109.573V110.709H57.3481ZM63.1714 110.869C66.0994 110.869 67.8754 109.749 67.8754 107.717C67.8754 106.229 66.9474 105.365 65.3954 105.093V104.965C66.7714 104.741 67.4914 103.877 67.4914 102.661C67.4914 100.837 65.9394 99.829 63.2034 99.829C59.8754 99.829 58.3394 101.397 58.3394 103.493V103.637H60.1634V103.525C60.1634 102.117 60.8674 101.461 63.0594 101.461C65.1394 101.461 65.7794 101.957 65.7794 102.997C65.7794 103.957 65.1074 104.437 63.8114 104.437H61.0594V105.877H64.0514C65.3954 105.877 66.1314 106.373 66.1314 107.461C66.1314 108.725 65.3314 109.237 63.1074 109.237C60.7394 109.237 60.1634 108.581 60.1634 107.173V106.949H58.3394V107.205C58.3394 109.381 59.8114 110.869 63.1714 110.869ZM77.1613 110.709V108.533H79.0013V106.981H77.1613V99.989H75.1613L68.6013 107.333V108.533H75.4493V110.709H77.1613ZM70.9853 106.981V106.853L75.3213 102.005H75.4493V106.981H70.9853ZM90.9425 110.709V108.533H92.7825V106.981H90.9425V99.989H88.9425L82.3825 107.333V108.533H89.2305V110.709H90.9425ZM84.7665 106.981V106.853L89.1025 102.005H89.2305V106.981H84.7665ZM98.5014 110.869C101.525 110.869 103.141 109.445 103.141 107.221C103.141 105.013 101.669 103.813 99.1734 103.813C97.3974 103.813 96.1494 104.469 95.6054 105.061L95.4774 105.045L95.8614 101.541H102.629V99.989H94.3574L93.7814 105.877L95.3814 105.989V105.957L95.4934 105.989C96.1014 105.445 96.9974 105.189 98.5334 105.189C100.485 105.189 101.333 105.749 101.333 107.221C101.333 108.725 100.453 109.301 98.5334 109.301C96.3894 109.301 95.4294 108.741 95.4294 107.477V107.301H93.6694V107.477C93.6694 109.637 95.3654 110.869 98.5014 110.869ZM109.463 110.869C112.455 110.869 114.119 109.509 114.119 107.397C114.119 105.269 112.615 104.069 109.975 104.069C107.943 104.069 106.615 104.885 106.231 105.925H106.087V105.077C106.087 102.533 106.967 101.461 109.335 101.461C111.239 101.461 111.943 102.197 111.943 103.333V103.461H113.847V103.333C113.847 101.157 112.007 99.829 109.335 99.829C106.071 99.829 104.247 101.845 104.247 105.301C104.247 109.205 105.799 110.869 109.463 110.869ZM109.367 109.221C107.255 109.221 106.295 108.549 106.295 107.205C106.295 105.989 107.287 105.301 109.383 105.301C111.511 105.301 112.327 105.941 112.327 107.269C112.327 108.581 111.495 109.221 109.367 109.221ZM123.213 110.869C126.205 110.869 127.869 109.509 127.869 107.397C127.869 105.269 126.365 104.069 123.725 104.069C121.693 104.069 120.365 104.885 119.981 105.925H119.837V105.077C119.837 102.533 120.717 101.461 123.085 101.461C124.989 101.461 125.693 102.197 125.693 103.333V103.461H127.597V103.333C127.597 101.157 125.757 99.829 123.085 99.829C119.821 99.829 117.997 101.845 117.997 105.301C117.997 109.205 119.549 110.869 123.213 110.869ZM123.117 109.221C121.005 109.221 120.045 108.549 120.045 107.205C120.045 105.989 121.037 105.301 123.133 105.301C125.261 105.301 126.077 105.941 126.077 107.269C126.077 108.581 125.245 109.221 123.117 109.221ZM132.901 110.725C132.901 106.485 134.405 104.181 137.493 101.381V99.989H128.629V101.541H135.653V101.669C133.461 103.365 130.949 105.749 130.949 110.725H132.901ZM142.858 110.869C145.85 110.869 147.77 109.861 147.77 107.781C147.77 106.309 146.81 105.429 145.146 105.093V104.965C146.65 104.741 147.466 103.861 147.466 102.629C147.466 100.949 145.898 99.829 142.858 99.829C139.818 99.829 138.25 100.949 138.25 102.629C138.25 103.861 139.082 104.741 140.554 104.965V105.093C138.97 105.429 137.946 106.309 137.946 107.781C137.946 109.861 139.834 110.869 142.858 110.869ZM142.858 104.549C140.794 104.549 139.978 104.053 139.978 103.013C139.978 102.021 140.634 101.461 142.858 101.461C145.098 101.461 145.754 102.021 145.754 103.013C145.754 104.053 144.938 104.549 142.858 104.549ZM142.858 109.237C140.522 109.237 139.69 108.709 139.69 107.461C139.69 106.293 140.538 105.733 142.858 105.733C145.178 105.733 146.026 106.293 146.026 107.461C146.026 108.709 145.178 109.237 142.858 109.237ZM156.139 110.869C159.131 110.869 161.051 109.861 161.051 107.781C161.051 106.309 160.091 105.429 158.427 105.093V104.965C159.931 104.741 160.747 103.861 160.747 102.629C160.747 100.949 159.179 99.829 156.139 99.829C153.099 99.829 151.531 100.949 151.531 102.629C151.531 103.861 152.363 104.741 153.835 104.965V105.093C152.251 105.429 151.227 106.309 151.227 107.781C151.227 109.861 153.115 110.869 156.139 110.869ZM156.139 104.549C154.075 104.549 153.259 104.053 153.259 103.013C153.259 102.021 153.915 101.461 156.139 101.461C158.379 101.461 159.035 102.021 159.035 103.013C159.035 104.053 158.219 104.549 156.139 104.549ZM156.139 109.237C153.803 109.237 152.971 108.709 152.971 107.461C152.971 106.293 153.819 105.733 156.139 105.733C158.459 105.733 159.307 106.293 159.307 107.461C159.307 108.709 158.459 109.237 156.139 109.237ZM166.798 110.869C170.03 110.869 171.822 108.805 171.822 105.317C171.822 101.461 170.286 99.829 166.622 99.829C163.614 99.829 161.95 101.189 161.95 103.301C161.95 105.429 163.454 106.629 166.094 106.629C168.126 106.629 169.454 105.781 169.854 104.693H169.998V105.541C169.998 108.117 169.134 109.237 166.798 109.237C164.894 109.237 164.174 108.501 164.174 107.365V107.237H162.286V107.365C162.286 109.541 164.126 110.869 166.798 110.869ZM166.686 105.397C164.558 105.397 163.758 104.757 163.758 103.429C163.758 102.117 164.574 101.477 166.702 101.477C168.83 101.477 169.79 102.133 169.79 103.413C169.79 104.677 168.782 105.397 166.686 105.397Z" fill="black"/>
<path fill-rule="evenodd" clip-rule="evenodd" d="M11.5317 106.181C15.5208 110.169 16.4258 105.556 18.9656 108.094C21.4143 110.542 22.8216 111.032 19.7192 114.134C19.3306 114.446 16.8616 118.203 8.1846 109.529C-0.493478 100.853 3.26158 98.3814 3.57397 97.9929C6.68387 94.8828 7.16586 96.2984 9.61449 98.7463C12.1544 101.285 7.54266 102.193 11.5317 106.181Z" fill="#FF5555"/>
<path d="M756.056 31.709V19.133L755.928 15.421H756.184L758.872 19.197L768.536 31.709H772.248V10.269H768.792V22.941L768.952 26.813H768.696L765.912 22.813L756.312 10.269H752.6V31.709H756.056ZM783.444 32.029C788.18 32.029 791.508 29.693 791.508 26.301V26.013H788.052V26.269C788.052 28.157 786.676 29.245 783.348 29.245C779.668 29.245 778.164 27.613 778.036 24.541H791.54C791.636 24.061 791.668 23.613 791.668 23.037C791.668 18.205 788.308 15.485 783.38 15.485C778.196 15.485 774.804 18.813 774.804 23.773C774.804 29.085 778.228 32.029 783.444 32.029ZM783.316 18.205C786.708 18.205 788.404 19.613 788.404 22.557V22.621H778.068C778.26 19.773 779.796 18.205 783.316 18.205ZM801.872 31.709L805.392 22.557L806.608 18.653H806.864L808.08 22.557L811.568 31.709H815.856L820.688 15.805H817.168L814.512 24.829L813.776 28.925H813.52L812.336 24.509L808.976 15.805H804.56L801.232 24.509L800.048 28.925H799.792L799.056 24.829L796.4 15.805H792.816L797.584 31.709H801.872ZM829.964 32.029C834.444 32.029 837.388 30.269 837.388 27.293C837.388 24.669 835.66 23.389 831.884 22.909L828.204 22.397C825.804 22.077 825.164 21.629 825.164 20.381C825.164 18.877 826.188 18.237 829.1 18.237C832.62 18.237 833.58 19.229 833.58 21.117V21.309H837.004V21.213C837.004 17.437 834.06 15.485 829.196 15.485C824.3 15.485 821.772 17.469 821.772 20.253C821.772 22.909 823.596 24.189 826.604 24.573L830.956 25.149C833.228 25.469 833.996 25.885 833.996 27.197C833.996 28.605 833.068 29.245 829.964 29.245C826.636 29.245 825.388 28.573 825.388 26.493V26.237H821.932V26.333C821.932 30.013 824.844 32.029 829.964 32.029ZM843.337 31.709V10.269H839.881V31.709H843.337ZM854.538 32.029C859.274 32.029 862.602 29.693 862.602 26.301V26.013H859.146V26.269C859.146 28.157 857.77 29.245 854.442 29.245C850.762 29.245 849.258 27.613 849.13 24.541H862.634C862.73 24.061 862.762 23.613 862.762 23.037C862.762 18.205 859.402 15.485 854.474 15.485C849.29 15.485 845.898 18.813 845.898 23.773C845.898 29.085 849.322 32.029 854.538 32.029ZM854.41 18.205C857.802 18.205 859.498 19.613 859.498 22.557V22.621H849.161C849.354 19.773 850.89 18.205 854.41 18.205ZM875.782 31.709V28.605H872.902C870.918 28.605 870.022 28.093 870.022 26.141V18.685H875.782V15.805H870.022V12.317H866.598V15.805H863.91V18.685H866.598V26.333C866.598 30.205 868.71 31.709 872.134 31.709H875.782ZM888.376 31.709V28.605H885.496C883.512 28.605 882.616 28.093 882.616 26.141V18.685H888.376V15.805H882.616V12.317H879.192V15.805H876.504V18.685H879.192V26.333C879.192 30.205 881.304 31.709 884.728 31.709H888.376ZM898.538 32.029C903.274 32.029 906.602 29.693 906.602 26.301V26.013H903.146V26.269C903.146 28.157 901.77 29.245 898.442 29.245C894.762 29.245 893.258 27.613 893.13 24.541H906.634C906.73 24.061 906.762 23.613 906.762 23.037C906.762 18.205 903.402 15.485 898.474 15.485C893.29 15.485 889.898 18.813 889.898 23.773C889.898 29.085 893.322 32.029 898.538 32.029ZM898.41 18.205C901.802 18.205 903.498 19.613 903.498 22.557V22.621H893.161C893.354 19.773 894.89 18.205 898.41 18.205ZM912.806 31.709V22.781C912.806 19.933 913.926 18.429 916.646 18.429C919.014 18.429 919.974 19.485 919.974 21.757V23.165H923.398V21.085C923.398 18.077 921.83 15.485 918.214 15.485C914.95 15.485 913.222 17.533 912.742 20.093H912.518V15.805H909.35V31.709H912.806Z" fill="black"/>
<path d="M756.296 76.869C759.464 76.869 760.792 75.365 760.792 73.733C760.792 72.165 759.736 71.189 757.592 70.805L754.984 70.357C753.72 70.085 753.176 69.781 753.176 68.853C753.176 67.893 753.944 67.413 755.896 67.413C758.12 67.413 758.904 68.069 758.904 69.381V69.589H760.616V69.493C760.616 67.397 759.192 65.829 756.056 65.829C752.728 65.829 751.448 67.397 751.448 68.949C751.448 70.709 752.728 71.541 754.536 71.861L757.16 72.293C758.52 72.549 759.064 72.901 759.064 73.829C759.064 74.837 758.344 75.285 756.296 75.285C753.944 75.285 753.192 74.645 753.192 73.365V73.109H751.464V73.205C751.464 75.461 753.096 76.869 756.296 76.869ZM767.235 76.709V75.157H765.795C764.803 75.157 764.355 74.901 764.355 73.925V70.197H767.235V68.757H764.355V67.013H762.643V68.757H761.299V70.197H762.643V74.021C762.643 75.957 763.699 76.709 765.411 76.709H767.235ZM770.652 76.869C772.46 76.869 773.724 76.069 774.14 74.725H774.252V76.709H775.836V71.877C775.836 69.973 774.7 68.597 772.172 68.597C769.644 68.597 768.14 69.957 768.14 71.765V71.829H769.852V71.765C769.852 70.597 770.572 70.117 772.044 70.117C773.564 70.117 774.14 70.581 774.14 71.893V72.357L770.524 72.741C768.956 72.917 767.964 73.557 767.964 74.789C767.964 76.101 769.004 76.869 770.652 76.869ZM769.692 74.677C769.692 74.053 770.124 73.845 771.02 73.733L774.14 73.381C774.14 74.949 772.924 75.621 771.116 75.621C770.124 75.621 769.692 75.317 769.692 74.677ZM778.658 79.429C780.29 79.429 781.186 78.997 781.842 77.573L785.986 68.757H784.082L782.21 72.965L781.458 74.885H781.33L780.546 72.981L778.514 68.757H776.578L780.498 76.709L780.306 77.125C780.066 77.669 779.778 77.861 779.074 77.861H777.522V79.429H778.658ZM794.526 76.869C797.742 76.869 799.566 75.173 799.566 72.261V65.989H797.838V72.149C797.838 74.309 796.878 75.205 794.526 75.205C792.174 75.205 791.214 74.309 791.214 72.149V65.989H789.502V72.261C789.502 75.173 791.326 76.869 794.526 76.869ZM802.825 79.429V74.469H802.889C803.209 75.925 804.361 76.869 806.153 76.869C808.633 76.869 809.993 75.205 809.993 72.741C809.993 70.277 808.601 68.597 806.137 68.597C804.265 68.597 803.145 69.493 802.825 70.965H802.681V68.757H801.097V79.429H802.825ZM802.825 72.869V72.725C802.825 71.013 803.817 70.181 805.593 70.181C807.257 70.181 808.265 70.821 808.265 72.741C808.265 74.645 807.273 75.301 805.561 75.301C803.865 75.301 802.825 74.501 802.825 72.869ZM819.253 76.709V67.541H823.461V65.989H813.317V67.541H817.541V76.709H819.253ZM828.536 76.869C831.192 76.869 832.968 75.189 832.968 72.741C832.968 70.261 831.192 68.597 828.536 68.597C825.896 68.597 824.12 70.261 824.12 72.741C824.12 75.189 825.896 76.869 828.536 76.869ZM828.536 75.333C826.616 75.333 825.816 74.421 825.816 72.741C825.816 71.045 826.616 70.117 828.536 70.117C830.472 70.117 831.272 71.045 831.272 72.741C831.272 74.421 830.472 75.333 828.536 75.333ZM841.932 76.709C845.26 76.709 847.356 74.661 847.356 71.349C847.356 68.037 845.26 65.989 841.932 65.989H837.052V76.709H841.932ZM841.932 67.541C844.412 67.541 845.532 68.597 845.532 71.349C845.532 74.101 844.412 75.157 841.932 75.157H838.764V67.541H841.932ZM850.98 76.869C852.788 76.869 854.052 76.069 854.468 74.725H854.58V76.709H856.164V71.877C856.164 69.973 855.028 68.597 852.5 68.597C849.972 68.597 848.468 69.957 848.468 71.765V71.829H850.18V71.765C850.18 70.597 850.9 70.117 852.372 70.117C853.892 70.117 854.468 70.581 854.468 71.893V72.357L850.852 72.741C849.284 72.917 848.292 73.557 848.292 74.789C848.292 76.101 849.332 76.869 850.98 76.869ZM850.02 74.677C850.02 74.053 850.452 73.845 851.348 73.733L854.468 73.381C854.468 74.949 853.252 75.621 851.444 75.621C850.452 75.621 850.02 75.317 850.02 74.677ZM862.922 76.709V75.157H861.482C860.49 75.157 860.042 74.901 860.042 73.925V70.197H862.922V68.757H860.042V67.013H858.33V68.757H856.986V70.197H858.33V74.021C858.33 75.957 859.386 76.709 861.098 76.709H862.922ZM868.003 76.869C870.371 76.869 872.035 75.701 872.035 74.005V73.861H870.307V73.989C870.307 74.933 869.619 75.477 867.955 75.477C866.115 75.477 865.363 74.661 865.299 73.125H872.051C872.099 72.885 872.115 72.661 872.115 72.373C872.115 69.957 870.435 68.597 867.971 68.597C865.379 68.597 863.683 70.261 863.683 72.741C863.683 75.397 865.395 76.869 868.003 76.869ZM867.939 69.957C869.635 69.957 870.483 70.661 870.483 72.133V72.165H865.315C865.411 70.741 866.179 69.957 867.939 69.957Z" fill="black"/>
<g filter="url(#filter0_d_101_431)">
<rect x="751" y="100.709" width="340" height="81" rx="4" fill="white"/>
</g>
<path d="M781.304 146.709V143.045L786.072 135.989H783.944L781.432 139.797L780.552 141.157H780.424L779.528 139.797L777 135.989H774.888L779.592 143.013V146.709H781.304ZM790.802 146.869C793.458 146.869 795.234 145.189 795.234 142.741C795.234 140.261 793.458 138.597 790.802 138.597C788.162 138.597 786.386 140.261 786.386 142.741C786.386 145.189 788.162 146.869 790.802 146.869ZM790.802 145.333C788.882 145.333 788.082 144.421 788.082 142.741C788.082 141.045 788.882 140.117 790.802 140.117C792.738 140.117 793.538 141.045 793.538 142.741C793.538 144.421 792.738 145.333 790.802 145.333ZM799.799 146.869C801.848 146.869 802.904 145.589 803.16 144.245H803.256V146.709H804.84V138.757H803.128V142.693C803.128 144.421 802.312 145.317 800.552 145.317C798.872 145.317 798.184 144.565 798.184 143.077V138.757H796.472V143.541C796.472 145.381 797.56 146.869 799.799 146.869ZM808.137 146.709V142.245C808.137 140.821 808.697 140.069 810.057 140.069C811.241 140.069 811.721 140.597 811.721 141.733V142.437H813.433V141.397C813.433 139.893 812.649 138.597 810.841 138.597C809.209 138.597 808.345 139.621 808.105 140.901H807.993V138.757H806.409V146.709H808.137ZM821.253 146.869C823.621 146.869 825.285 145.701 825.285 144.005V143.861H823.557V143.989C823.557 144.933 822.869 145.477 821.205 145.477C819.365 145.477 818.613 144.661 818.549 143.125H825.301C825.349 142.885 825.365 142.661 825.365 142.373C825.365 139.957 823.685 138.597 821.221 138.597C818.629 138.597 816.933 140.261 816.933 142.741C816.933 145.397 818.645 146.869 821.253 146.869ZM821.189 139.957C822.885 139.957 823.733 140.661 823.733 142.133V142.165H818.565C818.661 140.741 819.429 139.957 821.189 139.957ZM828.387 146.709V142.773C828.387 141.013 828.979 140.149 830.691 140.149C832.227 140.149 832.835 140.821 832.835 142.389V146.709H834.547V142.773C834.547 141.013 835.155 140.149 836.851 140.149C838.387 140.149 839.011 140.821 839.011 142.389V146.709H840.723V141.925C840.723 140.005 839.683 138.597 837.619 138.597C835.603 138.597 834.707 139.861 834.499 141.221H834.403C834.179 139.701 833.203 138.597 831.395 138.597C829.411 138.597 828.547 139.829 828.339 141.157H828.243V138.757H826.659V146.709H828.387ZM844.605 146.869C846.413 146.869 847.677 146.069 848.093 144.725H848.205V146.709H849.789V141.877C849.789 139.973 848.653 138.597 846.125 138.597C843.597 138.597 842.093 139.957 842.093 141.765V141.829H843.805V141.765C843.805 140.597 844.525 140.117 845.997 140.117C847.517 140.117 848.093 140.581 848.093 141.893V142.357L844.477 142.741C842.909 142.917 841.917 143.557 841.917 144.789C841.917 146.101 842.957 146.869 844.605 146.869ZM843.645 144.677C843.645 144.053 844.077 143.845 844.973 143.733L848.093 143.381C848.093 144.949 846.877 145.621 845.069 145.621C844.077 145.621 843.645 145.317 843.645 144.677ZM853.059 137.829V135.989H851.331V137.829H853.059ZM853.059 146.709V138.757H851.331V146.709H853.059ZM856.387 146.709V135.989H854.659V146.709H856.387Z" fill="#81848A"/>
<rect x="921" y="110.709" width="160" height="61" rx="4" fill="black"/>
<path d="M966.296 146.869C969.464 146.869 970.792 145.365 970.792 143.733C970.792 142.165 969.736 141.189 967.592 140.805L964.984 140.357C963.72 140.085 963.176 139.781 963.176 138.853C963.176 137.893 963.944 137.413 965.896 137.413C968.12 137.413 968.904 138.069 968.904 139.381V139.589H970.616V139.493C970.616 137.397 969.192 135.829 966.056 135.829C962.728 135.829 961.448 137.397 961.448 138.949C961.448 140.709 962.728 141.541 964.536 141.861L967.16 142.293C968.52 142.549 969.064 142.901 969.064 143.829C969.064 144.837 968.344 145.285 966.296 145.285C963.944 145.285 963.192 144.645 963.192 143.365V143.109H961.464V143.205C961.464 145.461 963.096 146.869 966.296 146.869ZM975.331 146.869C977.379 146.869 978.435 145.589 978.691 144.245H978.787V146.709H980.371V138.757H978.659V142.693C978.659 144.421 977.843 145.317 976.083 145.317C974.403 145.317 973.715 144.565 973.715 143.077V138.757H972.003V143.541C972.003 145.381 973.091 146.869 975.331 146.869ZM983.525 146.709V144.421H983.637C983.973 146.005 985.141 146.869 986.949 146.869C989.477 146.869 990.837 145.189 990.837 142.741C990.837 140.261 989.493 138.597 987.045 138.597C985.141 138.597 984.085 139.573 983.765 140.917H983.669V135.989H981.941V146.709H983.525ZM983.669 142.821V142.693C983.669 140.997 984.645 140.165 986.437 140.165C988.133 140.165 989.109 140.821 989.109 142.741C989.109 144.645 988.149 145.285 986.405 145.285C984.693 145.285 983.669 144.485 983.669 142.821ZM995.794 146.869C998.034 146.869 999.506 145.989 999.506 144.501C999.506 143.189 998.642 142.549 996.754 142.309L994.914 142.053C993.714 141.893 993.394 141.669 993.394 141.045C993.394 140.293 993.906 139.973 995.362 139.973C997.122 139.973 997.602 140.469 997.602 141.413V141.509H999.314V141.461C999.314 139.573 997.842 138.597 995.41 138.597C992.962 138.597 991.698 139.589 991.698 140.981C991.698 142.309 992.61 142.949 994.114 143.141L996.29 143.429C997.426 143.589 997.81 143.797 997.81 144.453C997.81 145.157 997.346 145.477 995.794 145.477C994.13 145.477 993.506 145.141 993.506 144.101V143.973H991.778V144.021C991.778 145.861 993.234 146.869 995.794 146.869ZM1004.77 146.869C1007.15 146.869 1008.9 145.525 1008.9 143.541V143.365H1007.19V143.477C1007.19 144.709 1006.29 145.317 1004.74 145.317C1002.95 145.317 1002.15 144.453 1002.15 142.741C1002.15 140.997 1002.95 140.149 1004.74 140.149C1006.29 140.149 1007.19 140.757 1007.19 141.989V142.085H1008.9V141.925C1008.9 139.941 1007.15 138.597 1004.77 138.597C1002.15 138.597 1000.43 140.261 1000.43 142.741C1000.43 145.189 1002.15 146.869 1004.77 146.869ZM1011.9 146.709V142.245C1011.9 140.821 1012.46 140.069 1013.82 140.069C1015.01 140.069 1015.49 140.597 1015.49 141.733V142.437H1017.2V141.397C1017.2 139.893 1016.42 138.597 1014.61 138.597C1012.98 138.597 1012.11 139.621 1011.87 140.901H1011.76V138.757H1010.18V146.709H1011.9ZM1020.01 137.829V135.989H1018.28V137.829H1020.01ZM1020.01 146.709V138.757H1018.28V146.709H1020.01ZM1023.2 146.709V144.421H1023.31C1023.64 146.005 1024.81 146.869 1026.62 146.869C1029.15 146.869 1030.51 145.189 1030.51 142.741C1030.51 140.261 1029.16 138.597 1026.72 138.597C1024.81 138.597 1023.76 139.573 1023.44 140.917H1023.34V135.989H1021.61V146.709H1023.2ZM1023.34 142.821V142.693C1023.34 140.997 1024.32 140.165 1026.11 140.165C1027.8 140.165 1028.78 140.821 1028.78 142.741C1028.78 144.645 1027.82 145.285 1026.08 145.285C1024.36 145.285 1023.34 144.485 1023.34 142.821ZM1035.71 146.869C1038.07 146.869 1039.74 145.701 1039.74 144.005V143.861H1038.01V143.989C1038.01 144.933 1037.32 145.477 1035.66 145.477C1033.82 145.477 1033.07 144.661 1033 143.125H1039.75C1039.8 142.885 1039.82 142.661 1039.82 142.373C1039.82 139.957 1038.14 138.597 1035.67 138.597C1033.08 138.597 1031.39 140.261 1031.39 142.741C1031.39 145.397 1033.1 146.869 1035.71 146.869ZM1035.64 139.957C1037.34 139.957 1038.19 140.661 1038.19 142.133V142.165H1033.02C1033.11 140.741 1033.88 139.957 1035.64 139.957Z" fill="white"/>
<defs>
<filter id="filter0_d_101_431" x="633.9" y="9.63122" width="548.178" height="289.178" filterUnits="userSpaceOnUse" color-interpolation-filters="sRGB">
<feFlood flood-opacity="0" result="BackgroundImageFix"/>
<feColorMatrix in="SourceAlpha" type="matrix" values="0 0 0 0 0 0 0 0 0 0 0 0 0 0 0 0 0 0 127 0" result="hardAlpha"/>
<feOffset dx="-13.0111" dy="13.0111"/>
<feGaussianBlur stdDeviation="52.0444"/>
<feComposite in2="hardAlpha" operator="out"/>
<feColorMatrix type="matrix" values="0 0 0 0 0.633333 0 0 0 0 0.633333 0 0 0 0 0.633333 0 0 0 0.1 0"/>
<feBlend mode="normal" in2="BackgroundImageFix" result="effect1_dropShadow_101_431"/>
<feBlend mode="normal" in="SourceGraphic" in2="effect1_dropShadow_101_431" result="shape"/>
</filter>
<linearGradient id="paint0_linear_101_431" x1="-1.19122e-06" y1="146.698" x2="1090" y2="146.698" gradientUnits="userSpaceOnUse">
<stop stop-color="#161616" stop-opacity="0"/>
<stop offset="0.515625" stop-color="#696969"/>
<stop offset="1" stop-color="#161616" stop-opacity="0"/>
</linearGradient>
<clipPath id="clip0_101_431">
<rect width="34" height="34" fill="white" transform="translate(0 0.708984)"/>
</clipPath>
</defs>
</svg>
