<svg width="1098" height="113" viewBox="0 0 1098 113" fill="none" xmlns="http://www.w3.org/2000/svg">
<g filter="url(#filter0_d_101_432)">
<mask id="path-1-inside-1_101_432" fill="white">
<path d="M4 0.708984H1094V104.709H4V0.708984Z"/>
</mask>
<path d="M4 1.70898H1094V-0.291016H4V1.70898Z" fill="url(#paint0_linear_101_432)" mask="url(#path-1-inside-1_101_432)"/>
<path d="M379.016 57.869C382.056 57.869 384.152 56.269 384.152 53.693V53.485H382.248V53.693C382.248 55.341 381.208 56.205 379.032 56.205C376.52 56.205 375.304 55.021 375.304 52.349C375.304 49.677 376.52 48.477 379.032 48.477C381.208 48.477 382.248 49.357 382.248 50.989V51.213H384.152V50.989C384.152 48.429 382.04 46.829 379.016 46.829C375.688 46.829 373.48 49.005 373.48 52.349C373.48 55.693 375.688 57.869 379.016 57.869ZM389.489 57.869C392.145 57.869 393.921 56.189 393.921 53.741C393.921 51.261 392.145 49.597 389.489 49.597C386.849 49.597 385.073 51.261 385.073 53.741C385.073 56.189 386.849 57.869 389.489 57.869ZM389.489 56.333C387.569 56.333 386.769 55.421 386.769 53.741C386.769 52.045 387.569 51.117 389.489 51.117C391.425 51.117 392.225 52.045 392.225 53.741C392.225 55.421 391.425 56.333 389.489 56.333ZM396.903 60.429V55.469H396.967C397.287 56.925 398.439 57.869 400.231 57.869C402.711 57.869 404.071 56.205 404.071 53.741C404.071 51.277 402.679 49.597 400.215 49.597C398.343 49.597 397.223 50.493 396.903 51.965H396.759V49.757H395.175V60.429H396.903ZM396.903 53.869V53.725C396.903 52.013 397.895 51.181 399.671 51.181C401.335 51.181 402.343 51.821 402.343 53.741C402.343 55.645 401.351 56.301 399.639 56.301C397.943 56.301 396.903 55.501 396.903 53.869ZM406.549 60.429C408.181 60.429 409.077 59.997 409.733 58.573L413.877 49.757H411.973L410.101 53.965L409.349 55.885H409.221L408.437 53.981L406.405 49.757H404.469L408.389 57.709L408.197 58.125C407.957 58.669 407.669 58.861 406.965 58.861H405.413V60.429H406.549ZM416.45 57.709V53.245C416.45 51.821 417.01 51.069 418.37 51.069C419.554 51.069 420.034 51.597 420.034 52.733V53.437H421.746V52.397C421.746 50.893 420.962 49.597 419.154 49.597C417.522 49.597 416.658 50.621 416.418 51.901H416.306V49.757H414.722V57.709H416.45ZM424.559 48.829V46.989H422.831V48.829H424.559ZM424.559 57.709V49.757H422.831V57.709H424.559ZM429.615 56.989C431.423 56.989 432.495 56.125 432.783 54.925H432.895V56.877C432.895 58.653 432.239 59.149 430.431 59.149C428.735 59.149 428.063 58.717 428.063 57.565H426.351C426.351 59.485 427.983 60.589 430.335 60.589C432.943 60.589 434.607 59.453 434.607 56.781V49.757H433.023V51.741H432.927C432.639 50.349 431.391 49.597 429.727 49.597C427.311 49.597 425.839 51.085 425.839 53.293C425.839 55.501 427.247 56.989 429.615 56.989ZM427.583 53.293C427.583 51.661 428.559 51.101 430.223 51.101C431.903 51.101 432.895 51.789 432.895 53.133V53.357C432.895 54.765 431.935 55.501 430.175 55.501C428.543 55.501 427.583 54.925 427.583 53.293ZM437.934 57.709V53.853C437.934 52.173 438.606 51.149 440.494 51.149C442.142 51.149 442.862 51.789 442.862 53.389V57.709H444.574V52.973C444.574 51.037 443.502 49.597 441.31 49.597C439.278 49.597 438.302 50.845 438.03 52.189H437.934V46.989H436.206V57.709H437.934ZM451.344 57.709V56.157H449.904C448.912 56.157 448.464 55.901 448.464 54.925V51.197H451.344V49.757H448.464V48.013H446.752V49.757H445.408V51.197H446.752V55.021C446.752 56.957 447.808 57.709 449.52 57.709H451.344ZM463.879 57.709V56.157H459.287L456.695 56.333C456.695 55.117 457.191 54.605 458.631 54.109L460.887 53.421C462.775 52.845 463.911 51.917 463.911 50.157C463.911 48.269 462.631 46.829 459.591 46.829C456.247 46.829 454.887 48.621 454.887 50.605V50.765H456.583V50.573C456.583 49.165 457.383 48.413 459.527 48.413C461.447 48.413 462.183 48.989 462.183 50.125C462.183 51.069 461.735 51.501 460.455 51.965L457.895 52.845C455.687 53.597 454.903 54.589 454.903 56.573V57.709H463.879ZM470.023 57.869C473.255 57.869 475.175 55.757 475.175 52.349C475.175 48.957 473.255 46.829 470.023 46.829C466.791 46.829 464.871 48.957 464.871 52.349C464.871 55.757 466.791 57.869 470.023 57.869ZM470.023 56.205C467.735 56.205 466.695 55.021 466.695 52.349C466.695 49.677 467.735 48.493 470.023 48.493C472.311 48.493 473.335 49.677 473.335 52.349C473.335 55.021 472.311 56.205 470.023 56.205ZM485.176 57.709V56.157H480.584L477.992 56.333C477.992 55.117 478.488 54.605 479.928 54.109L482.184 53.421C484.072 52.845 485.208 51.917 485.208 50.157C485.208 48.269 483.928 46.829 480.888 46.829C477.544 46.829 476.184 48.621 476.184 50.605V50.765H477.88V50.573C477.88 49.165 478.68 48.413 480.824 48.413C482.744 48.413 483.48 48.989 483.48 50.125C483.48 51.069 483.032 51.501 481.752 51.965L479.192 52.845C476.984 53.597 476.2 54.589 476.2 56.573V57.709H485.176ZM495.208 57.709V56.157H490.616L488.024 56.333C488.024 55.117 488.52 54.605 489.96 54.109L492.216 53.421C494.104 52.845 495.24 51.917 495.24 50.157C495.24 48.269 493.96 46.829 490.92 46.829C487.576 46.829 486.215 48.621 486.215 50.605V50.765H487.912V50.573C487.912 49.165 488.712 48.413 490.856 48.413C492.776 48.413 493.512 48.989 493.512 50.125C493.512 51.069 493.064 51.501 491.784 51.965L489.224 52.845C487.016 53.597 486.232 54.589 486.232 56.573V57.709H495.208ZM504.213 57.869C507.429 57.869 509.253 56.173 509.253 53.261V46.989H507.525V53.149C507.525 55.309 506.565 56.205 504.213 56.205C501.861 56.205 500.901 55.309 500.901 53.149V46.989H499.189V53.261C499.189 56.173 501.013 57.869 504.213 57.869ZM512.512 48.829V46.989H510.784V48.829H512.512ZM512.512 57.709V49.757H510.784V57.709H512.512ZM516.449 57.709V51.197H519.297V49.757H516.417C516.321 48.605 516.977 48.269 518.241 48.269H519.297V46.989H518.513C516.257 46.989 514.929 48.013 514.737 49.757H513.521V51.197H514.721V57.709H516.449ZM521.981 57.709V53.245C521.981 51.821 522.541 51.069 523.901 51.069C525.085 51.069 525.565 51.597 525.565 52.733V53.437H527.277V52.397C527.277 50.893 526.493 49.597 524.685 49.597C523.053 49.597 522.189 50.621 521.949 51.901H521.837V49.757H520.253V57.709H521.981ZM529.643 60.429C531.275 60.429 532.171 59.997 532.827 58.573L536.97 49.757H535.067L533.195 53.965L532.443 55.885H532.315L531.531 53.981L529.499 49.757H527.562L531.483 57.709L531.291 58.125C531.051 58.669 530.763 58.861 530.059 58.861H528.507V60.429H529.643ZM539.672 57.709V55.229H537.496V57.709H539.672ZM546.172 57.869C549.212 57.869 551.308 56.269 551.308 53.693V53.485H549.404V53.693C549.404 55.341 548.364 56.205 546.188 56.205C543.676 56.205 542.46 55.021 542.46 52.349C542.46 49.677 543.676 48.477 546.188 48.477C548.364 48.477 549.404 49.357 549.404 50.989V51.213H551.308V50.989C551.308 48.429 549.196 46.829 546.172 46.829C542.844 46.829 540.636 49.005 540.636 52.349C540.636 55.693 542.844 57.869 546.172 57.869ZM556.645 57.869C559.301 57.869 561.077 56.189 561.077 53.741C561.077 51.261 559.301 49.597 556.645 49.597C554.005 49.597 552.229 51.261 552.229 53.741C552.229 56.189 554.005 57.869 556.645 57.869ZM556.645 56.333C554.725 56.333 553.925 55.421 553.925 53.741C553.925 52.045 554.725 51.117 556.645 51.117C558.581 51.117 559.381 52.045 559.381 53.741C559.381 55.421 558.581 56.333 556.645 56.333ZM564.059 57.709V53.773C564.059 52.013 564.651 51.149 566.363 51.149C567.899 51.149 568.507 51.821 568.507 53.389V57.709H570.219V53.773C570.219 52.013 570.827 51.149 572.523 51.149C574.059 51.149 574.683 51.821 574.683 53.389V57.709H576.395V52.925C576.395 51.005 575.355 49.597 573.291 49.597C571.275 49.597 570.379 50.861 570.171 52.221H570.075C569.851 50.701 568.875 49.597 567.067 49.597C565.083 49.597 564.219 50.829 564.011 52.157H563.915V49.757H562.331V57.709H564.059ZM581.795 57.709L583.027 54.925H588.691L589.923 57.709H591.875L587.091 46.989H584.659L579.875 57.709H581.795ZM585.171 50.109L585.795 48.589H585.923L586.547 50.109L588.003 53.373H583.715L585.171 50.109ZM594.403 57.709V46.989H592.675V57.709H594.403ZM597.731 57.709V46.989H596.003V57.709H597.731ZM603.794 57.709V53.549H605.762C607.106 53.549 607.602 53.901 608.082 54.749L609.794 57.709H611.778L609.986 54.605C609.602 53.933 609.218 53.453 608.386 53.229V53.117C610.402 53.005 611.57 51.917 611.57 50.141C611.57 48.141 610.066 46.989 607.634 46.989H602.066V57.709H603.794ZM603.794 48.541H607.618C609.058 48.541 609.778 49.069 609.778 50.381C609.778 51.725 609.058 52.221 607.618 52.221H603.794V48.541ZM614.544 48.829V46.989H612.816V48.829H614.544ZM614.544 57.709V49.757H612.816V57.709H614.544ZM619.6 56.989C621.408 56.989 622.48 56.125 622.768 54.925H622.88V56.877C622.88 58.653 622.224 59.149 620.416 59.149C618.72 59.149 618.048 58.717 618.048 57.565H616.336C616.336 59.485 617.968 60.589 620.32 60.589C622.928 60.589 624.592 59.453 624.592 56.781V49.757H623.008V51.741H622.912C622.624 50.349 621.376 49.597 619.712 49.597C617.296 49.597 615.824 51.085 615.824 53.293C615.824 55.501 617.232 56.989 619.6 56.989ZM617.568 53.293C617.568 51.661 618.544 51.101 620.208 51.101C621.888 51.101 622.88 51.789 622.88 53.133V53.357C622.88 54.765 621.92 55.501 620.16 55.501C618.528 55.501 617.568 54.925 617.568 53.293ZM627.919 57.709V53.853C627.919 52.173 628.591 51.149 630.479 51.149C632.127 51.149 632.847 51.789 632.847 53.389V57.709H634.559V52.973C634.559 51.037 633.487 49.597 631.295 49.597C629.263 49.597 628.287 50.845 628.015 52.189H627.919V46.989H626.191V57.709H627.919ZM641.329 57.709V56.157H639.889C638.897 56.157 638.449 55.901 638.449 54.925V51.197H641.329V49.757H638.449V48.013H636.737V49.757H635.393V51.197H636.737V55.021C636.737 56.957 637.793 57.709 639.505 57.709H641.329ZM646.169 57.869C648.409 57.869 649.881 56.989 649.881 55.501C649.881 54.189 649.017 53.549 647.129 53.309L645.289 53.053C644.089 52.893 643.769 52.669 643.769 52.045C643.769 51.293 644.281 50.973 645.737 50.973C647.497 50.973 647.977 51.469 647.977 52.413V52.509H649.689V52.461C649.689 50.573 648.217 49.597 645.785 49.597C643.337 49.597 642.073 50.589 642.073 51.981C642.073 53.309 642.985 53.949 644.489 54.141L646.665 54.429C647.801 54.589 648.185 54.797 648.185 55.453C648.185 56.157 647.721 56.477 646.169 56.477C644.505 56.477 643.881 56.141 643.881 55.101V54.973H642.153V55.021C642.153 56.861 643.609 57.869 646.169 57.869ZM655.591 57.709V53.549H657.559C658.903 53.549 659.399 53.901 659.879 54.749L661.591 57.709H663.575L661.783 54.605C661.399 53.933 661.015 53.453 660.183 53.229V53.117C662.199 53.005 663.367 51.917 663.367 50.141C663.367 48.141 661.863 46.989 659.431 46.989H653.863V57.709H655.591ZM655.591 48.541H659.415C660.855 48.541 661.575 49.069 661.575 50.381C661.575 51.725 660.855 52.221 659.415 52.221H655.591V48.541ZM668.613 57.869C670.981 57.869 672.645 56.701 672.645 55.005V54.861H670.917V54.989C670.917 55.933 670.229 56.477 668.565 56.477C666.725 56.477 665.973 55.661 665.909 54.125H672.661C672.709 53.885 672.725 53.661 672.725 53.373C672.725 50.957 671.045 49.597 668.581 49.597C665.989 49.597 664.293 51.261 664.293 53.741C664.293 56.397 666.005 57.869 668.613 57.869ZM668.549 50.957C670.245 50.957 671.093 51.661 671.093 53.133V53.165H665.924C666.021 51.741 666.789 50.957 668.549 50.957ZM677.779 57.869C680.019 57.869 681.491 56.989 681.491 55.501C681.491 54.189 680.627 53.549 678.739 53.309L676.899 53.053C675.699 52.893 675.379 52.669 675.379 52.045C675.379 51.293 675.891 50.973 677.347 50.973C679.107 50.973 679.587 51.469 679.587 52.413V52.509H681.299V52.461C681.299 50.573 679.827 49.597 677.395 49.597C674.947 49.597 673.683 50.589 673.683 51.981C673.683 53.309 674.595 53.949 676.099 54.141L678.275 54.429C679.411 54.589 679.795 54.797 679.795 55.453C679.795 56.157 679.331 56.477 677.779 56.477C676.115 56.477 675.491 56.141 675.491 55.101V54.973H673.763V55.021C673.763 56.861 675.219 57.869 677.779 57.869ZM686.738 57.869C689.106 57.869 690.77 56.701 690.77 55.005V54.861H689.042V54.989C689.042 55.933 688.354 56.477 686.69 56.477C684.85 56.477 684.098 55.661 684.034 54.125H690.786C690.834 53.885 690.85 53.661 690.85 53.373C690.85 50.957 689.17 49.597 686.706 49.597C684.114 49.597 682.418 51.261 682.418 53.741C682.418 56.397 684.13 57.869 686.738 57.869ZM686.674 50.957C688.37 50.957 689.218 51.661 689.218 53.133V53.165H684.049C684.146 51.741 684.914 50.957 686.674 50.957ZM693.872 57.709V53.245C693.872 51.821 694.432 51.069 695.792 51.069C696.976 51.069 697.456 51.597 697.456 52.733V53.437H699.168V52.397C699.168 50.893 698.384 49.597 696.576 49.597C694.944 49.597 694.08 50.621 693.84 51.901H693.728V49.757H692.144V57.709H693.872ZM705.357 57.709L709.101 49.757H707.229L704.397 56.029H704.269L701.437 49.757H699.533L703.245 57.709H705.357ZM713.988 57.869C716.356 57.869 718.02 56.701 718.02 55.005V54.861H716.292V54.989C716.292 55.933 715.604 56.477 713.94 56.477C712.1 56.477 711.348 55.661 711.284 54.125H718.036C718.084 53.885 718.1 53.661 718.1 53.373C718.1 50.957 716.42 49.597 713.956 49.597C711.364 49.597 709.668 51.261 709.668 53.741C709.668 56.397 711.38 57.869 713.988 57.869ZM713.924 50.957C715.62 50.957 716.468 51.661 716.468 53.133V53.165H711.299C711.396 51.741 712.164 50.957 713.924 50.957ZM722.898 57.869C724.69 57.869 725.858 57.005 726.194 55.421H726.306V57.709H727.89V46.989H726.162V51.917H726.066C725.746 50.573 724.674 49.597 722.786 49.597C720.37 49.597 718.994 51.261 718.994 53.741C718.994 56.189 720.386 57.869 722.898 57.869ZM720.738 53.741C720.738 51.821 721.73 51.165 723.394 51.165C725.17 51.165 726.162 51.997 726.162 53.693V53.821C726.162 55.485 725.122 56.285 723.426 56.285C721.714 56.285 720.738 55.645 720.738 53.741Z" fill="black"/>
</g>
<defs>
<filter id="filter0_d_101_432" x="0" y="0.708984" width="1098" height="112" filterUnits="userSpaceOnUse" color-interpolation-filters="sRGB">
<feFlood flood-opacity="0" result="BackgroundImageFix"/>
<feColorMatrix in="SourceAlpha" type="matrix" values="0 0 0 0 0 0 0 0 0 0 0 0 0 0 0 0 0 0 127 0" result="hardAlpha"/>
<feOffset dy="4"/>
<feGaussianBlur stdDeviation="2"/>
<feComposite in2="hardAlpha" operator="out"/>
<feColorMatrix type="matrix" values="0 0 0 0 0 0 0 0 0 0 0 0 0 0 0 0 0 0 0.25 0"/>
<feBlend mode="normal" in2="BackgroundImageFix" result="effect1_dropShadow_101_432"/>
<feBlend mode="normal" in="SourceGraphic" in2="effect1_dropShadow_101_432" result="shape"/>
</filter>
<linearGradient id="paint0_linear_101_432" x1="4" y1="-155.302" x2="1094" y2="-155.302" gradientUnits="userSpaceOnUse">
<stop stop-color="#161616" stop-opacity="0"/>
<stop offset="0.515625" stop-color="#696969"/>
<stop offset="1" stop-color="#161616" stop-opacity="0"/>
</linearGradient>
</defs>
</svg>
